<svg xmlns="http://www.w3.org/2000/svg" viewBox="0 0 16.43 17.41"><defs><style>.cls-1{fill:#232323}</style></defs><g id="Layer_2" data-name="Layer 2"><g id="Layer_1-2" data-name="Layer 1"><path class="cls-1" d="M11.73 1h-7A4.7 4.7 0 000 5.67v7a4.63 4.63 0 00.71 2.47 4 4 0 00.73.91 4.64 4.64 0 003.25 1.32h7a4.7 4.7 0 004.7-4.7v-7A4.69 4.69 0 0011.73 1zm3.74 11.3a4.15 4.15 0 01-4.15 4.15H5.1a4.11 4.11 0 01-2.71-1l-.26-.24a4 4 0 01-.54-.7A4 4 0 011 12.3V6.08a4.11 4.11 0 011-2.63 3.65 3.65 0 01.79-.73 4.07 4.07 0 012.4-.78h6.22a4.08 4.08 0 012.68 1 1.71 1.71 0 01.25.22 2.73 2.73 0 01.23.25 4.1 4.1 0 011 2.68z"/><path class="cls-1" d="M6.75 6.12H5.32a1 1 0 00-1 1v1.39a.92.92 0 00.15.5.9.9 0 00.15.19.92.92 0 00.66.27h1.47a1 1 0 001-1V7.08a1 1 0 00-1-.96zm4.36 0H9.68a1 1 0 00-1 1v1.39a.92.92 0 00.15.5.9.9 0 00.17.19.92.92 0 00.66.27h1.43a1 1 0 001-1V7.08a1 1 0 00-.98-.96zm0 4.32H9.68a1 1 0 00-1 1v1.44a1 1 0 00.15.5.9.9 0 00.15.19 1 1 0 00.66.27h1.43a1 1 0 001-1v-1.45a1 1 0 00-.96-.95zm-4.36 0H5.32a1 1 0 00-1 1v1.44a1 1 0 00.15.5.9.9 0 00.15.19 1 1 0 00.66.27h1.47a1 1 0 001-1v-1.45a1 1 0 00-1-.95z"/><rect class="cls-1" x="10.03" width="1.48" height="3.1" rx=".74"/><rect class="cls-1" x="4.92" width="1.48" height="3.1" rx=".74"/></g></g></svg>