<svg width="36" height="36" fill="none" xmlns="http://www.w3.org/2000/svg"><path d="M28.56 0H7.368C3.305 0 0 3.305 0 7.368V28.56c0 4.063 3.305 7.368 7.368 7.368H28.56c4.063 0 7.368-3.305 7.368-7.368V7.368C35.928 3.305 32.623 0 28.56 0zM11.063 27.684a1.756 1.756 0 01-2.397.642 1.756 1.756 0 01-.642-2.396l.345-.598h4.051l-1.357 2.352zm-3.309-3.755A1.756 1.756 0 016 22.174c0-.967.787-1.754 1.754-1.754h3.451l4.733-8.198L14.655 10a1.756 1.756 0 01.643-2.397 1.756 1.756 0 012.396.642l.27.468.27-.468a1.756 1.756 0 013.214.424c.121.452.059.925-.175 1.33L15.256 20.42h3.795l2.026 3.509H7.754zm20.42 0H26.75l1.155 2a1.756 1.756 0 01-1.973 2.572 1.743 1.743 0 01-1.066-.817l-6.09-10.55 2.025-3.509 3.923 6.795h3.451c.968 0 1.755.787 1.755 1.754 0 .968-.787 1.755-1.755 1.755z" fill="#022D48"/></svg>