<svg width="1920" height="5024" fill="none" xmlns="http://www.w3.org/2000/svg"><mask id="a" maskUnits="userSpaceOnUse" x="0" y="0" width="1920" height="5024"><path fill="#C4C4C4" d="M0 0h1920v5024H0z"/></mask><g mask="url(#a)"><path fill="url(#paint0_linear)" d="M-200-.067h2320v5023.57H-200z"/><mask id="b" maskUnits="userSpaceOnUse" x="-1574" y="-1083" width="5976" height="7689"><path transform="rotate(108.307 4401.45 192.076)" fill="#C4C4C4" d="M4401.45 192.076h6755.1v4058.45h-6755.1z"/></mask><g mask="url(#b)"><g filter="url(#filter0_dd)"><path fill-rule="evenodd" clip-rule="evenodd" d="M1300.44 5167.37c289.59 30.45 547.47-187.86 565.39-478.61l54.74-888.69-775.8 377.23c-196.928 95.76-314.724 303.03-295.651 520.22l1.061 12.08c21.164 241.01 209.47 432.46 450.26 457.77zm640.76-1702.19l-923.13 448.87c-307.109 149.33-490.81 472.56-461.066 811.26l1.061 12.08c33.35 379.78 330.085 681.47 709.505 721.35 456.34 47.98 862.71-296.03 890.94-754.18l64.78-1051.68 1883.75-915.97 67.15-39.98c622.07-370.39 863.86-1150.5 558.39-1801.537-614.06-1308.696-2576.32-921.4-2665.49 526.097L1941.2 3465.18zm302.72-147.2l1725.17-838.85 56.39-33.58c491.76-292.81 682.9-909.5 441.42-1424.16-485.43-1034.55-2036.63-728.384-2107.12 415.89l-115.86 1880.7z" fill="#fff"/></g><g filter="url(#filter1_dd)"><path fill-rule="evenodd" clip-rule="evenodd" d="M3513.85 976.551c-289.59-30.444-547.48 187.859-565.39 478.609l-54.74 888.69 775.79-377.23c196.94-95.75 314.73-303.02 295.66-520.22l-1.06-12.08c-21.17-241-209.48-432.46-450.26-457.769zM2873.09 2678.74l923.13-448.86c307.11-149.33 490.81-472.56 461.06-811.27l-1.06-12.08c-33.35-379.78-330.08-681.463-709.51-721.352-456.33-47.973-862.71 296.032-890.93 754.182L2591 2491.05 707.244 3407.01 640.095 3447C18.03 3817.39-223.765 4597.5 81.71 5248.53c614.061 1308.7 2576.31 921.4 2665.48-526.09l125.9-2043.7zm-302.72 147.2L845.201 3664.8l-56.398 33.58c-491.756 292.8-682.9 909.49-441.415 1424.15 485.428 1034.55 2036.632 728.39 2107.122-415.89l115.86-1880.7z" fill="#fff"/></g></g><mask id="c" maskUnits="userSpaceOnUse" x="-2502" y="-1578" width="5976" height="7689"><path transform="rotate(-71.693 -2501.44 4835.53)" fill="#C4C4C4" d="M-2501.44 4835.53h6755.1v4058.45h-6755.1z"/></mask><g mask="url(#c)"><g filter="url(#filter2_dd)"><path fill-rule="evenodd" clip-rule="evenodd" d="M598.669-137.718C309.08-168.162 51.192 50.144 33.281 340.891l-54.745 888.689 775.797-377.226c196.931-95.757 314.727-303.026 295.657-520.218l-1.06-12.083c-21.17-241.006-209.477-432.458-450.261-457.771zM-42.093 1564.48l923.132-448.87C1188.15 966.277 1371.85 643.048 1342.1 304.341l-1.06-12.082c-33.35-379.775-330.08-681.462-709.509-721.35C175.2-477.064-231.177-133.06-259.4 325.094l-64.785 1051.686-1883.755 915.96-67.15 39.99c-622.06 370.39-863.86 1150.5-558.38 1801.53 614.06 1308.7 2576.314 921.4 2665.482-526.09l125.894-2043.69zm-302.723 147.19l-1725.164 838.86-56.4 33.58c-491.75 292.8-682.9 909.49-441.41 1424.15 485.43 1034.55 2036.631 728.39 2107.12-415.89l115.854-1880.7z" fill="#fff"/></g><g filter="url(#filter3_dd)"><path fill-rule="evenodd" clip-rule="evenodd" d="M-1616.76 4052.43c289.59 30.45 547.48-187.86 565.39-478.6l54.741-888.7-775.801 377.23c-196.93 95.76-314.72 303.03-295.65 520.22l1.06 12.08c21.17 241.01 209.47 432.46 450.26 457.77zM-976 2350.24l-923.13 448.87c-307.11 149.33-490.81 472.56-461.07 811.27l1.07 12.08c33.35 379.77 330.08 681.46 709.51 721.35 456.33 47.97 862.704-296.03 890.927-754.19l64.785-1051.68 1883.748-915.97 67.15-39.98c622.07-370.39 863.86-1150.5 558.39-1801.534C1201.32-1528.24-760.936-1140.94-850.104 306.55L-976 2350.24zm302.723-147.2l1725.167-838.85 56.39-33.58c491.76-292.8 682.9-909.496 441.42-1424.153C1064.27-1128.1-486.934-821.931-557.423 322.346L-673.277 2203.04z" fill="#fff"/></g></g><path transform="rotate(180 2120 5023.51)" fill="url(#paint1_linear)" d="M2120 5023.51h2320v5023.57H2120z"/><path fill="url(#paint2_linear)" d="M-200-.067h2320v5023.57H-200z"/></g><defs><filter id="filter0_dd" x="-877.376" y="-546.967" width="6631.37" height="6408.58" filterUnits="userSpaceOnUse" color-interpolation-filters="sRGB"><feFlood flood-opacity="0" result="BackgroundImageFix"/><feColorMatrix in="SourceAlpha" values="0 0 0 0 0 0 0 0 0 0 0 0 0 0 0 0 0 0 127 0"/><feOffset dx="-8" dy="4"/><feGaussianBlur stdDeviation="20"/><feColorMatrix values="0 0 0 0 0 0 0 0 0 0 0 0 0 0 0 0 0 0 0.03 0"/><feBlend in2="BackgroundImageFix" result="effect1_dropShadow"/><feColorMatrix in="SourceAlpha" values="0 0 0 0 0 0 0 0 0 0 0 0 0 0 0 0 0 0 127 0"/><feOffset dx="2" dy="4"/><feGaussianBlur stdDeviation="32"/><feColorMatrix values="0 0 0 0 0 0 0 0 0 0 0 0 0 0 0 0 0 0 0.05 0"/><feBlend in2="effect1_dropShadow" result="effect2_dropShadow"/><feBlend in="SourceGraphic" in2="effect2_dropShadow" result="shape"/></filter><filter id="filter1_dd" x="-935.709" y="290.309" width="6631.37" height="6408.58" filterUnits="userSpaceOnUse" color-interpolation-filters="sRGB"><feFlood flood-opacity="0" result="BackgroundImageFix"/><feColorMatrix in="SourceAlpha" values="0 0 0 0 0 0 0 0 0 0 0 0 0 0 0 0 0 0 127 0"/><feOffset dx="2" dy="4"/><feGaussianBlur stdDeviation="32"/><feColorMatrix values="0 0 0 0 0 0 0 0 0 0 0 0 0 0 0 0 0 0 0.05 0"/><feBlend in2="BackgroundImageFix" result="effect1_dropShadow"/><feColorMatrix in="SourceAlpha" values="0 0 0 0 0 0 0 0 0 0 0 0 0 0 0 0 0 0 127 0"/><feOffset dx="-8" dy="4"/><feGaussianBlur stdDeviation="20"/><feColorMatrix values="0 0 0 0 0 0 0 0 0 0 0 0 0 0 0 0 0 0 0.03 0"/><feBlend in2="effect1_dropShadow" result="effect2_dropShadow"/><feBlend in="SourceGraphic" in2="effect2_dropShadow" result="shape"/></filter><filter id="filter2_dd" x="-3850.89" y="-823.96" width="6631.37" height="6408.58" filterUnits="userSpaceOnUse" color-interpolation-filters="sRGB"><feFlood flood-opacity="0" result="BackgroundImageFix"/><feColorMatrix in="SourceAlpha" values="0 0 0 0 0 0 0 0 0 0 0 0 0 0 0 0 0 0 127 0"/><feOffset dx="-8" dy="4"/><feGaussianBlur stdDeviation="20"/><feColorMatrix values="0 0 0 0 0 0 0 0 0 0 0 0 0 0 0 0 0 0 0.03 0"/><feBlend in2="BackgroundImageFix" result="effect1_dropShadow"/><feColorMatrix in="SourceAlpha" values="0 0 0 0 0 0 0 0 0 0 0 0 0 0 0 0 0 0 127 0"/><feOffset dx="2" dy="4"/><feGaussianBlur stdDeviation="32"/><feColorMatrix values="0 0 0 0 0 0 0 0 0 0 0 0 0 0 0 0 0 0 0.05 0"/><feBlend in2="effect1_dropShadow" result="effect2_dropShadow"/><feBlend in="SourceGraphic" in2="effect2_dropShadow" result="shape"/></filter><filter id="filter3_dd" x="-3794.58" y="-1661.9" width="6631.37" height="6408.58" filterUnits="userSpaceOnUse" color-interpolation-filters="sRGB"><feFlood flood-opacity="0" result="BackgroundImageFix"/><feColorMatrix in="SourceAlpha" values="0 0 0 0 0 0 0 0 0 0 0 0 0 0 0 0 0 0 127 0"/><feOffset dx="2" dy="4"/><feGaussianBlur stdDeviation="32"/><feColorMatrix values="0 0 0 0 0 0 0 0 0 0 0 0 0 0 0 0 0 0 0.05 0"/><feBlend in2="BackgroundImageFix" result="effect1_dropShadow"/><feColorMatrix in="SourceAlpha" values="0 0 0 0 0 0 0 0 0 0 0 0 0 0 0 0 0 0 127 0"/><feOffset dx="-8" dy="4"/><feGaussianBlur stdDeviation="20"/><feColorMatrix values="0 0 0 0 0 0 0 0 0 0 0 0 0 0 0 0 0 0 0.03 0"/><feBlend in2="effect1_dropShadow" result="effect2_dropShadow"/><feBlend in="SourceGraphic" in2="effect2_dropShadow" result="shape"/></filter><linearGradient id="paint0_linear" x1="960" y1="-.067" x2="960" y2="5023.51" gradientUnits="userSpaceOnUse"><stop stop-color="#fff"/><stop offset="1" stop-color="#EEE"/></linearGradient><linearGradient id="paint1_linear" x1="4177.07" y1="5147.24" x2="1878.72" y2="10804.9" gradientUnits="userSpaceOnUse"><stop stop-color="#fff"/><stop offset="1" stop-color="#fff" stop-opacity=".19"/></linearGradient><linearGradient id="paint2_linear" x1="2120" y1="-430.041" x2="-32.959" y2="2063.19" gradientUnits="userSpaceOnUse"><stop stop-color="#fff"/><stop offset="1" stop-color="#fff" stop-opacity=".19"/></linearGradient></defs></svg>