<svg width="172" height="149" fill="none" xmlns="http://www.w3.org/2000/svg"><path d="M91.634 149c44.255 0 80.13-2.04 80.13-4.557 0-2.517-35.875-4.557-80.13-4.557-44.255 0-80.13 2.04-80.13 4.557 0 2.517 35.875 4.557 80.13 4.557z" fill="#ECECEC"/><path d="M71.473 85.467l-2.28 56.95h1.14l3.93-56.95h-2.79z" fill="#000"/><path d="M111.674 84.394l4.71 56.802-1.14.06-6.36-56.742 2.79-.12z" fill="#0F1D5B"/><path d="M53.564 41.563c-2.7-6.315-5.76-6.762-5.76-6.762l-3.42 24.157c2.91-.12 7.11 1.489 9.81 2.085 1.26-7.417.66-16.502-.63-19.48z" fill="#A4043B"/><path d="M44.383 58.958l-2.4 16.918h7.56s1.86-7.744 3.24-16.025c-2.7-.596-5.49-1.012-8.4-.893z" fill="#FD7B77"/><path d="M125.084 102.505c6.6 1.846 13.56 2.144 20.34 1.37 5.37-.596 10.98-1.519 15.54-4.706 4.35-3.038 8.16-8.28 9.12-13.583.9-4.944-4.92-7.893-9.15-7.744 0 0-.87-8.906-6.33-9.978-5.46-1.102-22.83-2.175-27.69 0-4.89 2.174-4.68 9.68-5.55 9.68-3.09 0-5.67-1.191-7.65 2.115-4.23 7.089-.9 19.39 11.37 22.846z" fill="#DBDBDB"/><path d="M130.934 100.539h-3.06l-4.41 41.878h.57l6.9-41.878zm19.529 0h3.06l4.41 41.878h-.57l-6.9-41.878z" fill="#011C2D"/><path d="M166.484 91.394c-4.56 3.158-10.17 4.081-15.54 4.706-6.78.745-13.74.477-20.34-1.37-9.48-2.68-13.62-10.603-13.08-17.365-1.47.03-2.73.477-3.84 2.324-4.2 7.089-.9 19.39 11.4 22.845 6.6 1.847 13.56 2.145 20.34 1.37 5.37-.595 10.98-1.519 15.54-4.706 3.3-2.293 6.3-5.868 7.95-9.77-.78.745-1.59 1.4-2.43 1.966z" fill="#BFBFBF"/><path d="M130.935 43.469c-5.46 5.421-6.45 24.782-10.32 25.288-5.49.715-7.5-.447-10.59.268-.93.238-7.11 3.634-6.99 4.29.12.655 3.18-.983 3.18-.983s-2.31 2.174-2.04 2.8c.27.655 2.88-2.205 2.88-2.205s-.39 1.31-.54 2.234c-.15.894-.09 2.204.51 1.043.6-1.192.75-2.681 1.38-3.009.63-.327 1.2-.06 1.2-.06s-.24.06-.75.537c-.51.506-1.71 3.514-.72 2.532.75-.745 2.55-3.545 5.07-3.753.99.089 7.38.625 9.69.268 2.52-.417 7.59-12.004 10.2-18.378 2.64-6.374 6.271-13.642 6.271-13.642s-2.97-2.68-8.431 2.77z" fill="#FD7B77"/><path d="M141.376 5.343c2.22 2.383 4.08 5.987 2.7 8.996l-.39-.18c1.08-2.829-.84-6.075-3-8.13l.69-.686z" fill="#011C2D"/><path d="M122.654 94.969l-.18 2.74c1.47 2.532 3.81 4.885 4.68 9.561 2.19 12.063 5.61 32.079 5.61 32.079s2.101 2.681.87 3.039c-1.26.357-4.71 1.638-7.32 2.382-2.64.745-3.15-.327-3.15-.327s5.97-2.711 5.91-5.391c-.09-2.651-16.77-46.407-16.77-46.407l11.04-4.408-.69 6.732z" fill="#FD7B77"/><path d="M124.634 143.549l2.61.805 5.64-4.826s1.98 2.502.81 2.83c-1.17.328-5.22 2.025-7.65 2.71-2.46.686-4.08-.238-4.08-.238s1.2-.506 2.67-1.281z" fill="#022D48"/><path d="M101.145 138.396l4.56-7.297 4.2-41.015s18.87-8.757 21.45-10.544c2.61-1.788 4.11-9.115 2.01-12.421l15-1.906 4.92 16.918c1.2 4.23-.45 8.43-5.58 10.395-5.13 1.966-29.61 1.817-29.61 1.817s1.95.268 1.77 4.855c-.21 4.617-12.66 33.033-12.66 33.033l-1.35 9.501-5.55 2.353.84-5.689z" fill="#FD9B9B"/><path d="M153.316 82.131c-2.31-8.132-4.2-14.386-4.2-14.386l.09-15.042-3.78-5.898c-4.77-.417-9.72.12-14.52.983 0 0 .36 15.459 2.19 18.765 1.83 3.306 1.17 11.676-3.87 14.208s-14.7 5.719-14.7 5.719 7.86 9.62 8.61 12.271c0 0 19.92-4.884 23.64-5.927 3.69-1.013 8.85-2.561 6.54-10.693z" fill="#027CCD"/><path d="M153.315 82.131c-2.31-8.131-4.2-14.386-4.2-14.386l.09-15.042-3.78-5.898c-.57-.06-1.14-.09-1.71-.119 0 0 4.56 8.37 2.04 14.387-2.52 5.986-6.51 6.79-4.95 8.34 1.56 1.549 6.57.685 6.57 3.574 0 2.89 1.8 14.982-1.8 16.918-3.63 1.936-22.44 8.847-22.44 8.847s19.92-4.885 23.64-5.928c3.69-1.013 8.85-2.561 6.54-10.693z" fill="#066EBA"/><path d="M105.885 141.762l-4.74-3.366-.81 5.719 5.55-2.353z" fill="#022D48"/><path d="M130.515 12.64s-3.42 1.847-3.78 4.677c-.36 2.83.66 4.26.48 5.6-.18 1.37 0 3.902 1.65 7.833 1.65 3.932 7.29 1.698 10.5-1.102 3.63-3.157 4.71-1.876 4.71-6.97 0-5.093-7.62-14.624-13.56-10.037z" fill="#FD9B9B"/><path d="M145.725 25.955c1.56-2.025.24-3.366 1.291-3.961 1.05-.596 3.3-4.29 1.679-6.94-1.65-2.651-3.03-1.192-4.47-2.681-1.44-1.49-1.83-3.247-5.94-5.868-4.11-2.621-6.54 1.847-6.54 1.847s-4.65.208-6.84 3.514a26.08 26.08 0 00-1.32 2.294c-.69 1.46-.6 3.127.21 4.527.36.626.78 1.281 1.14 1.728.87 1.132 1.29 1.072 1.29 1.072-1.68-1.578-.78-3.306-.78-3.306s.39 2.591 1.05 3.068c.42.268 1.47-.506 1.47-.506s-.21-1.4.15-2.74c.36-1.341 2.31-1.967 2.61-1.61.27.358 1.8 1.967 1.8 1.967l2.04.238c-.84-2.025 2.37-4.17 2.37-4.17s.51.298.87 1.132c.36.804-.27 3.991-.42 5.034-.15 1.042 1.71 1.608 1.71 1.608s2.46-.06 2.16 2.294c-.3 2.353-2.1 1.787-2.19 2.442-.09.626-.51 3.872-.51 3.872s5.61-2.83 7.17-4.855z" fill="#011C2D"/><path d="M141.076 21.279c-.48-.12-4.08 1.936-3.54 3.455.54 1.519 1.89 1.817 3.27 1.132 1.38-.685 2.31-4.051.27-4.587z" fill="#FD9B9B"/><path d="M138.255 23.632s1.47-1.728 2.16-.834c.69.893.42 2.383-.6 2.83-1.02.476-2.55-.954-1.56-1.996z" fill="#FD7B77"/><path d="M130.994 26.52c.06-.446-.54.09-1.56-1.31.39-.625.63-1.37.66-2.055-.36 1.37-1.08 1.906-1.2 2.055.03.03.81 1.34 1.83 1.52.12 0 .24-.09.27-.21zm2.344-2.75a.594.594 0 00.105-.835.604.604 0 00-.843-.105.594.594 0 00-.105.836c.204.26.581.307.843.105zm-5.09-.132a.594.594 0 00.105-.836.603.603 0 00-.842-.104.592.592 0 00-.105.836c.203.26.58.306.842.104z" fill="#2846A6"/><path d="M131.145 22.321a5.4 5.4 0 012.07.209c.36.119.66.268.96.417.3.149.6.327.9.536-.36 0-.69-.09-1.05-.179-.33-.09-.66-.268-.96-.357-.6-.268-1.26-.417-1.92-.626zm-4.621-.119c.51-.03 1.05.06 1.56.268.27.12.48.239.72.358s.45.268.69.446a3.31 3.31 0 01-.78-.178c-.24-.09-.48-.239-.72-.328-.45-.209-.96-.357-1.47-.566zm4.621-2.174l.3.744s1.86-.119 2.67.626c0 0-1.41-1.847-2.97-1.37z" fill="#0F1D5B"/><path d="M129.464 28.517s2.1-.209 3.87-.894c0 0-1.62 2.562-2.61 2.442-.99-.119-1.26-1.548-1.26-1.548z" fill="#fff"/><path d="M122.505 59.94c0-3.246 2.94-16.024 2.94-16.024h-6.57l2.91 15.518v7.03l-3.09 1.012h6.6l-2.79-1.012V59.94z" fill="#E3E4FF"/><path d="M122.505 59.94c0-3.246 2.94-16.024 2.94-16.024h-6.57l2.91 15.518v7.03l-3.09 1.012h6.6l-2.79-1.012V59.94z" fill="#E3E4FF"/><path d="M120.165 48.83l1.98 10.575v.03h.03c.15-2.235 1.05-6.94 1.83-10.604h-3.84z" fill="#F3F0A5"/><path d="M121.214 49.873a.21.21 0 00.21-.208.21.21 0 00-.21-.209.21.21 0 00-.21.209.21.21 0 00.21.208zm.331 1.579a.12.12 0 100-.239.12.12 0 00-.12.12.12.12 0 00.12.119zm-.15 1.488a.18.18 0 00.18-.178.18.18 0 00-.18-.178.179.179 0 100 .357zm.78-.297a.09.09 0 00.09-.09.09.09 0 00-.18 0c0 .05.04.09.09.09z" fill="#FFE9B8"/><path d="M150.434 44.214c-1.62-5.004-9.39-3.872-9.39-3.872-4.74.148-10.17 7.416-10.17 7.416 4.26-.745 8.61-1.25 12.87-1.072l2.22 4.408s5.85 12.45 3.24 15.042c-1.62 1.608-9.24-.566-14.01-2.71-2.52-1.132-4.47-1.46-5.88-1.49a1.9 1.9 0 01-.33-.238c-.78-.775-3.84-3.336-4.02-3.336-2.46 0-3.84-.298-4.08.179-.24.476-.03 1.549-.03 1.549-.51.744-.06 1.727-.06 1.727-.3 1.072-.09 2.145.48 2.174.99.09 6.39-.178 6.39-.178.39.387 3.84 1.995 4.86 2.65 3.51 2.294 17.79 8.996 21 4.647 3.24-4.319-1.11-20.85-3.09-26.896z" fill="#FD9B9B"/><path d="M135.375 30.78c0 .239 1.86 8.46 0 12.064-1.86 3.604 5.34 1.34 7.11-.805 1.77-2.144-3.12-15.37-3.12-15.37l-3.99 4.111z" fill="#FD9B9B"/><path d="M34.304 92.854c-.69 0-10.29-6.553-9.6-13.493.69-6.94-5.49-10.634-9.48-9.83-3.99.835-15.12 4.111-15.12 4.111l10.98 20.046 7.38 8.548 10.74.179 22.35 1.757s-2.88-11.318-17.25-11.318z" fill="#DBDBDB"/><path d="M42.672 83.799l21.24 3.068c1.59.238 2.85 1.49 3.03 3.097l5.52 46.228s0 4.617 2.7 5.54c2.73.924 5.43 2.413 5.43 2.413l-12.84-.596s-.87-3.812 0-6.404c.9-2.561-5.67-35.802-5.67-35.802l-19.41-17.544z" fill="#011C2D"/><path d="M16.724 79.778l2.1 16.203 4.2 7.477 31.41-4.647 9.18 37.888 1.53 10.842h13.77s-8.34-2.8-9.24-5.332c-.72-2.055-3.27-36.875-4.17-49.862a6.192 6.192 0 00-5.13-5.629l-21.96-3.664-6.45-5.063-15.24 1.787z" fill="#022D48"/><path d="M51.493 44.69c-.03-3.425.03-6.88-2.82-9.71l-6.81-1.46s-2.31-.476-8.94 3.634c-9.45 5.868-20.88 51.41-20.88 51.41l26.37-5.51s1.59-17.127 6.33-21.833c3.69-3.693 6.78-8.131 6.75-16.53z" fill="#B80543"/><path d="M19.933 99.973h-3.24l-4.65 46.614h.6l7.29-46.614zm20.611 0h3.24l4.65 46.614h-.6l-7.29-46.614z" fill="#011C2D"/><path d="M.104 73.642c0 2.442 10.29 25.199 11.7 28.028 3.6 7.149 18.63 1.966 22.62 2.77 3.99.805 12.09 3.962 15.78 2.056 3.72-1.907-.54-7.238-9.33-7.238s-15.45 3.991-20.67-1.192c-5.22-5.183-4.44-15.429-7.47-21.565-3.03-6.136-12.63-2.86-12.63-2.86z" fill="#BFBFBF"/><path d="M61.962 84.454l-2.55 62.818h1.29l4.32-62.818h-3.06zm63.541.119l5.19 62.64-1.26.059-7.02-62.58 3.09-.119z" fill="#000"/><path d="M126.193 77.842c-9.09-.983-21.36-1.579-34.83-1.579-13.47 0-25.71.596-34.83 1.579l-16.05.804v3.455c0 3.217 22.77 5.838 50.88 5.838 28.11 0 50.88-2.62 50.88-5.838v-3.455l-16.05-.804z" fill="#BFBFBF"/><path d="M90.88 84.676c28.1 0 50.88-2.614 50.88-5.838S118.98 73 90.88 73 40 75.614 40 78.838s22.78 5.838 50.88 5.838z" fill="#8C8C8C"/><path d="M66.612 78.646c0-2.71 16.05-4.974 37.801-5.63a456.88 456.88 0 00-13.05-.208c-28.11 0-50.88 2.621-50.88 5.838s22.77 5.838 50.88 5.838c4.53 0 8.88-.06 13.05-.209-21.75-.655-37.8-2.919-37.8-5.63z" fill="#A6A6A6"/><path d="M99.283 47.818l-10.62.06c0-.865.39-1.58.9-1.58l8.82-.059c.48 0 .9.715.9 1.579z" fill="#446393"/><path d="M89.442 46.864l8.82-.06c.39 0 .72.418.84 1.014h.15c0-.864-.42-1.579-.9-1.579l-8.82.06c-.48 0-.87.655-.9 1.46.15-.507.45-.865.81-.895z" fill="#446393"/><path d="M94.152 52.762h-.99v-.09c-.09-.863-.39-1.637-.81-2.114l-2.43-2.68 7.65-.06-2.55 2.62c-.51.537-.81 1.37-.87 2.324z" fill="#18287D"/><path d="M94.152 52.762h-.99v-.09c-.09-.863-.39-1.637-.81-2.114l-2.43-2.68 7.65-.06-2.55 2.62c-.51.537-.81 1.37-.87 2.324zm.66 7.268c0 .417-.54.774-1.2.774-.66 0-1.2-.327-1.2-.744s.54-.775 1.2-.775c.66-.03 1.2.328 1.2.745z" fill="#022D48"/><path d="M94.271 60.03c0 .745-.3 1.34-.66 1.34-.36 0-.66-.595-.66-1.34 0-.745.3-1.34.66-1.34.36 0 .66.595.66 1.34z" fill="#022D48"/><path d="M94.003 69.234h-.66l-.03-16.472h.66l.03 16.472z" fill="#022D48"/><path d="M94.511 70.425h-1.56v-.715c0-.357.15-.655.36-.655h.81c.21 0 .36.298.36.655l.03.715z" fill="#022D48"/><path d="M95.293 71.587l-3.12.03v-.656c0-.328.15-.596.33-.596l2.43-.03c.18 0 .36.269.36.596v.656z" fill="#022D48"/><path d="M96.372 72.719l-5.19.03v-.626c0-.387.18-.685.39-.685l4.41-.03c.21 0 .39.298.39.685v.626z" fill="#022D48"/><path d="M98.442 74.03v-.06c0-.745-.36-1.34-.78-1.34l-7.62.059c-.42 0-.78.595-.78 1.34h9.18z" fill="#022D48"/><path d="M96.28 73.463c.896 0 1.62-.12 1.62-.268 0-.148-.724-.268-1.62-.268-.894 0-1.62.12-1.62.268 0 .148.726.268 1.62.268zm-.927-1.37c.43 0 .78-.08.78-.179 0-.098-.35-.178-.78-.178-.43 0-.78.08-.78.178 0 .099.35.179.78.179zm-1.08-.983c.43 0 .78-.133.78-.298 0-.164-.35-.298-.78-.298-.431 0-.78.134-.78.298 0 .165.349.298.78.298zm-.241-.983c.199 0 .36-.173.36-.387 0-.214-.161-.387-.36-.387-.2 0-.36.173-.36.387 0 .214.16.387.36.387zm-.15-9.71c.298 0 .54-.173.54-.387 0-.214-.242-.387-.54-.387-.298 0-.54.173-.54.387 0 .214.242.387.54.387z" fill="#446393"/><path d="M93.614 33.163c-.3-.953.42-1.578.45-1.608l.12.119c-.03.03-.69.596-.42 1.46l-.15.03z" fill="#0F0502"/><path d="M95.113 46.269l-2.85.03V34.742h.57c.39 0 .36-1.34.78-2.234.06-.15.15-.15.21-.03.12.209.3.655.45 1.49.21 1.101.54.595.87.714v8.49l-.03 3.097z" fill="#FEA66D"/><path d="M95.113 46.269l-2.85.03V34.742h.12c.12 2.71.39 6.106.87 7.178.48 1.043 1.26 1.28 1.89 1.28l-.03 3.069z" fill="#E35C02"/><path d="M93.852 29.5c-.03.03-.54.953-.45 1.43.09.446.27.863.66.863s.51-.596.42-1.013c-.09-.417 0-.983.09-.983.06 0-.45.15-.45.596 0 0 .21-1.37.69-1.668-.03-.03-.72.447-.96.774z" fill="#E9084E"/><path d="M94.424 73.344c0 .03 0 .06.03.06-.03 0-.03-.03-.03-.06z" fill="#FB86BB"/><path d="M51.314 27.146c-.3.507-1.95 5.034-2.13 8.4-.12 2.085-1.86 3.693-3.96 3.783-1.95.09-4.92-1.46-5.64-2.443-1.62-2.144 3.27-14.505 3.27-14.505l8.46 4.765z" fill="#FD9B9B"/><path d="M42.823 22.38s-.45 1.58-.99 3.754c2.58 1.638 6.09 3.544 8.46 3.782.45-1.46.87-2.531.99-2.77l-8.46-4.765z" fill="#FD7B77"/><path d="M53.354 27.742c1.68-2.978.66-7.089.66-7.089l1.86.328s-1.41-8.876-4.11-10.783c-2.7-1.906-7.74-1.936-10.41 4.021-2.67 5.928-3.48 6.94-1.59 8.34 1.86 1.4 11.88 8.132 13.59 5.183z" fill="#FD9B9B"/><path d="M44.774 20.474s.99-2.561 1.08-4.646c.09-2.085-.99-3.366 1.17-4.528 2.16-1.132 3.72-.536 4.98-.893 1.26-.358 3.66-4.647 1.68-7.357-2.01-2.681-5.73-4.468-7.38-1.55a855.642 855.642 0 01-1.89 3.337s-.3-3.068-3.57-.804c-3.27 2.263-3.12 3.693-3.51 4.348-.36.656-4.41 1.52-4.53 4.498-.12 2.979.63 2.353-1.05 5.272-1.65 2.92 8.37 8.549 8.43 10.544.06 1.996-1.8 3.843-1.65 3.604.15-.238 3.3-1.966 3.93-4.914.6-2.979-1.11-7.536.18-7.894 1.2-.357 2.13.983 2.13.983z" fill="#011C2D"/><path d="M44.384 23.572s-2.46-.149-3.96-.983c-1.5-.864-1.35-4.438.15-4.855 1.5-.417 5.97 2.055 3.81 5.838z" fill="#FD9B9B"/><path d="M49.544 15.798s1.23-1.698 2.16-1.46c.9.239 1.5.06 1.5.06l-.18.923s-.93-.208-1.77.03c-.87.209-1.71.447-1.71.447zm2.876 1.969a.683.683 0 00-.26-.933.693.693 0 00-.94.258.682.682 0 00.26.934c.332.186.753.07.94-.259z" fill="#2846A6"/><path d="M52.155 23.185c-.24-.12-.48-.268-.69-.477.18.209.39.388.63.566.24.15.48.298.72.417.45.209.96.358 1.47.477v-.387c-.48-.03-.93-.12-1.41-.268-.21-.09-.48-.209-.72-.328z" fill="#18287D"/><path d="M42.343 19.104c-1.23.03-1.86 2.056-.72 2.71 1.14.626 1.74-.476 1.77-.952.03-.15.18-1.758-1.05-1.758z" fill="#FD7B77"/><path d="M73.663 41.563s2.79 12.837 2.76 16.084c-.03 3.247-.09 6.523-.09 6.523h.72l.09-7.03 3.09-15.458-6.57-.12z" fill="#E3E4FF"/><path d="M80.233 41.622l-6.57-.089s2.43 11.23 2.73 15.31h.81l3.03-15.22z" fill="#E3E4FF"/><path d="M75.014 46.239c.69 3.425 1.5 7.834 1.71 10.276h.18l2.04-10.276h-3.93z" fill="#F3F0A5"/><path d="M76.782 46.894c.1 0 .18-.08.18-.178a.18.18 0 00-.18-.18.18.18 0 100 .357zm-.599 1.162a.15.15 0 00.15-.149.15.15 0 00-.15-.149.15.15 0 00-.15.149.15.15 0 00.15.149zm.931 1.311a.18.18 0 00.18-.179.18.18 0 00-.18-.179.179.179 0 100 .358zm-.36 1.221a.09.09 0 100-.179.09.09 0 00-.09.09c0 .049.04.089.09.089zm.09 1.608c.05 0 .09-.08.09-.178 0-.1-.04-.18-.09-.18-.05 0-.09.08-.09.18 0 .098.04.178.09.178z" fill="#FFE9B8"/><path d="M73.544 65.123l6.6.06-3.09-1.043h-.72l-2.79.983z" fill="#E3E4FF"/><path d="M40.904 44.333s-3.3 2.86-2.16 10.097c1.47 9.264 13.11 19.6 16.26 20.701 3.15 1.102 15.84-9.59 17.94-12.688 0 0 3.45-.983 5.28-1.132.72-.06 1.32-.655 1.29-1.37-.03-.269-.06-.537-.18-.775 0 0 .27-1.042-.39-1.668 0 0 0-1.102-.33-1.519-.33-.417-1.62.12-4.02.596-.18.03-2.7 3.127-3.3 4.02-.6.895-10.26 6.226-13.38 6.047-3.09-.178-9.63-9.501-9.63-12.003-.03-.03-6.87-10.396-7.38-10.306z" fill="#FD9B9B"/><path d="M39.555 34.652c-6.6-3.931-10.83 7.357-10.83 7.357s5.4 10.515 9.39 18.497c3.27-1.995 7.62-5.123 11.16-6.523-3.27-6.82-7.05-17.752-9.72-19.33z" fill="#DB064F"/><path d="M41.292 75.22s2.04-2.442 3.63-2.442c1.56 0 1.5.239 2.49.239.96 0 1.86 0 2.25.387.39.387 0 3.395 0 4.11 0 .715-1.83.477-2.25.477h-2.52c-.9 0-1.53.208-2.07 0-.54-.209-1.8-.03-1.8-.03l.27-2.74z" fill="#FD5E5A"/><path d="M110.024 69.025c-.93.239-7.11 3.634-6.99 4.29.12.655 3.18-.983 3.18-.983s-2.31 2.174-2.04 2.8c.27.655 2.88-2.205 2.88-2.205s-.39 1.31-.54 2.234c-.15.894-.09 2.204.51 1.043.6-1.192.75-2.681 1.38-3.009.63-.327 1.2-.06 1.2-.06s-.24.06-.75.537c-.51.506-1.71 3.515-.72 2.532.75-.745 2.55-3.545 5.07-3.753.27.03.96.089 1.83.149-.33-1.281-.9-2.532-1.53-3.813-1.17-.06-2.25-.06-3.48.238z" fill="#FD7B77"/></svg>