<svg width="1354" height="599" fill="none" xmlns="http://www.w3.org/2000/svg"><path opacity=".4" d="M1299.19 574.373c.07-13.167-271.93-25.352-607.525-27.218-335.599-1.866-607.714 7.295-607.787 20.462-.073 13.166 271.925 25.352 607.523 27.217 335.599 1.866 607.719-7.295 607.789-20.461z" fill="#ECECEC"/><path d="M559.708 153.817s-11.384 7.021-12.6 22.585c-1.217 15.512-.041 42.052-.041 42.052l11.784 5.39 10.316-.375-9.459-69.652z" fill="#B963AB"/><path d="M549.548 201.448s-22.054-7.673-40.801-19.114l-4.214 15.193c15.392 11.393 26.58 16.795 33.232 21.05 18.017 11.558 22.954-9.983 11.783-17.129z" fill="#FD9B9B"/><path d="M534.659 522.695c1.521 1.465-8.955 30.527-8.955 30.527l16.295 4.02 6.789-33.856-14.129-.691z" fill="#FC7575"/><path d="M563.705 272.219l-8.648 14.472s-8.142 116.171-10.652 129.318c-2.509 13.146-14.84 123.702-14.84 123.702l17.142 5.668s28.885-92.231 26.821-104.268c-2.062-11.984 32.228-125.7 32.228-125.7l-39.964-43.478-2.087.286z" fill="#011C2D"/><path d="M571.132 278.922s26.45 128.753 29.178 157.596c2.729 28.843-10.108 109.688-10.108 109.688l27.895.033s21.115-82.458 14.652-105.87c-5.805-21.18-2.789-108.222-2.173-124.394.042-1.731-.126-3.456-.605-5.116L619.642 274.9l-48.51 4.022z" fill="#022D48"/><path d="M612.08 545.147s.827 8.307.718 15.389c-.109 7.082 3.295 12.726-6.563 14.133-9.806 1.406-20.228-1.15-21.131-5.784-.953-4.579 8.93-15.373 8.974-19.936.095-4.565 2.91-6.45 4.537-4.989 1.628 1.514 13.465 1.187 13.465 1.187z" fill="#E30655"/><path d="M612.619 571.448c-1.721 1.688-4.124 1.933-6.795 2.03-5.707.208-18.091-.075-20.718-4.54-.164 1.264.615 2.494 1.541 3.456 6.949 6.511 25.03 4.856 25.972-.946z" fill="#022D48"/><path d="M595.652 554.763c-.049 4.406 6.851 8.14 9.169 4.123.05-.054 3.103-9.813 3.308-12.809.145-1.788 1.293-4.818-3.243-5.544-4.483-.728-7.777.965-7.825 2.539.041 1.1-1.335 5.082-1.409 11.691z" fill="#fff"/><path d="M605.908 557.116s-.155-12.893 1.872-13.386c2.079-.495 4.591.829 4.591.829s-.579 11.451-3.068 13.639c-2.437 2.186-3.395-1.082-3.395-1.082z" fill="#B80543"/><path d="M594.345 547.733a.477.477 0 00.225.412c5.805 3.93 13.949.068 14.31-.102.31-.116.403-.434.237-.69-.167-.256-.485-.35-.795-.234-.103.057-7.835 3.694-13.05.161-.267-.147-.634-.134-.836.083-.046.159-.095.266-.091.37zm-.44 5.155a.477.477 0 00.225.411c3.607 2.595 13.418-.122 13.833-.242.312-.064.51-.386.396-.644-.114-.258-.436-.456-.747-.339-2.647.725-10.194 2.259-12.778.413a.637.637 0 00-.836.083c-.048.106-.097.213-.093.318zm-.438 3.737c.006.157.062.26.171.361 2.874 2.622 13.334.458 14.531.205.312-.064.512-.333.448-.646-.062-.26-.384-.458-.696-.394-3.07.636-11.414 1.884-13.42.07-.217-.202-.584-.189-.84-.022-.151.163-.2.269-.194.426z" fill="#022D48"/><path d="M524.115 555.692c-3.943 2.608-7.385-1.199-7.386-1.251 3.76-6.167 5.813-11.695 6.708-13.038.994-1.504 2.389-3.495 6.127-1.639s6.982 5.985 5.6 6.927c-.923.558-5.163 5.064-11.049 9.001z" fill="#fff"/><path d="M549.835 566.552s-9.683.458-16.434.808c-6.751.351-17.507 1.582-20.909 1.758-3.401.177-16.014-6.39-15.313-8.722.7-2.385 11.818-2.318 17.48-5.199 5.663-2.88 12.965-11.116 15.589-11.054 2.203.025 13.437 1.818 15.437 3.475 1.996 1.553 5.769 17.302 4.15 18.934z" fill="#E30655"/><path d="M500.003 558.772c2.641.533 7.314 5.03 14.126 6.354 5.28 1.014 26.607-2.227 35.833-3.717.357 2.609.431 4.651-.125 5.195 0 0-9.684.458-16.435.809-6.751.351-17.507 1.581-20.908 1.758-3.402.176-16.015-6.39-15.314-8.723.181-.793 1.266-1.252 2.823-1.676zm21.271-.512c.048-.107.097-.213.093-.318-.876-3.9-6.275-3.861-6.537-3.851a.454.454 0 00-.407.329c-.045.211.065.365.275.357.052-.002 5.189-.032 5.998 3.452.058.155.219.254.425.142.052-.002.102-.057.153-.111zm2.514-2.975c.049-.107.097-.213.094-.318-.458-2.5-6.109-3.605-6.373-3.648-.159-.046-.415.12-.461.279-.097.213.013.367.172.413 1.532.312 5.61 1.421 5.938 3.245.058.155.219.254.427.194.104-.004.155-.058.203-.165zm1.862-2.06a.404.404 0 00.096-.266c-.137-2.302-5.806-3.93-6.493-4.063-.159-.046-.364.066-.461.279-.099.161-.039.369.12.415 1.642.465 5.997 1.984 6.108 3.605.008.21.169.309.376.249a1.13 1.13 0 00.254-.219z" fill="#022D48"/><path d="M608.194 562.276s2.393 6.677.92 7.989c-1.475 1.26-20.152.944-20.1-1.942.052-2.886 4.355-8.548 6.018-8.975 1.712-.482 13.162 2.928 13.162 2.928z" fill="#B80543"/><path d="M575.854 145.154c-12.368 3.02-22.803 11.631-27.244 23.59-1.004 2.659-1.589 5.302-1.503 7.658.341 9.373 6.158 42.403 6.769 59.158.61 16.756-2.69 77.278-2.69 77.278s24.091 2.111 54.701-5.348c16.423-4.007 25.752 3.099 25.752 3.099s-10.841-73.062-17.004-105.503c-6.163-32.44-.789-54.762-5.157-59.532-3.055-3.244-18.658-4.091-33.624-.4z" fill="#E40653"/><path opacity=".2" d="M619.578 267.353c1.078-2.084 2.634-6.86 3.336-13.492-2.857-17.985-5.885-36.331-8.278-48.775-.588-3.176-1.119-6.251-1.49-9.226l-6.634-6.522s-4.942 35.624-11.857 50.19c-5.454 11.472-31.336 33.597-41.972 42.426-.136 3.465-.328 6.828-.476 9.979 0 0 48.998 10.799 67.371-24.58z" fill="#9F043A"/><path d="M568.798 111.086l-1.363 34.55c-.089 1.89-1.529 11.276-.072 12.429 3.402 2.707 14.561 2.458 19.867-1.563 4.643-3.525-2.755-45.41-2.755-45.41s-9.17-1.292-15.677-.006z" fill="#FD9B9B"/><path d="M584.422 111.094s.261 1.406.657 3.646c-.355 3.211-1.116 8.22-2.398 11.884-1.71 4.886-8.599 12.95-15.034 13.342l1.148-28.932c6.509-1.234 15.627.06 15.627.06z" fill="#FD8481"/><path d="M586.122 122.146s.159 1.396.403 3.619c-.128 3.17-.436 8.112-1.035 11.716-.8 4.804-4.221 12.662-7.54 12.938l.094-28.601c3.343-1.108 8.078.328 8.078.328z" fill="#FD8481"/><path d="M585.051 69.335c3.046 4.45 5.422 10.656.97 13.649 5.045-2.543 3.316-9.716.722-14.707l-1.692 1.058z" fill="#EBA708"/><path d="M563.909 86.306s-7.207.787-8.135 9.84c-.927 9.104 2.983 34.391 10.151 36.856 7.168 2.465 15.77-6.08 17.633-11.076 1.909-5.156 2.397-13.353 2.397-13.353s.902-32.802-22.046-22.267z" fill="#FD9B9B"/><path d="M592.869 121.324s-1.709 2.003-3.589-.655c0 0-4.313-6.135-.441-10.68 3.871-4.546 9.676-10.734 8.845-19.146-.883-8.409-10.954-8.514-10.954-8.514s-1.414-12.9-15.633-8.868c0 0-2.62-2.84-10.896-2.592-8.277.197-6.379 4.794-11.13 3.918-4.749-.823-5.357-4.576-3.31-5.96 0 0-8.206 3.601-9.383 10.146-1.179 6.492 11.372 7.03 11.372 7.03s-10.13 1.156-2.523 5.598c7.66 4.44 11.381 4.409 16.25-.12 4.816-4.527 7.398-5.618 9.902-4.503 2.505 1.115 1.501 6.657 5.25 7.359 3.746.65 5.999 10.687 5.999 10.687s2.954-.946 2.686 6.089c-.27 6.983-1.267 11.267 2.956 12.057 4.272.683 4.599-1.846 4.599-1.846z" fill="#EBA708"/><path d="M584.798 96.975c2.246-.239 7.553 1.508 2.981 8.438-4.571 6.931-8.301-.484-7.784-3.544.568-3.114 3.131-4.728 4.803-4.894z" fill="#FD9B9B"/><path d="M563.447 106.667c.416 4.232.356 8.324 1.181 12.278.945.019 1.944.087 2.944.208-1.658.532-3.014.739-3.638.866-.06-.207-1.673-5.601-.487-13.352zm1.757-1.174c.223.09.432-.212.462-.605-.004-.098.404-3.921 2.197-5.456 1.934-1.656 5.42 1.846 6.782 2.973.227.188.436-.114.506-.607.071-.492-.079-.977-.306-1.165-.227-.187-5.254-4.022-7.392-2.278-2.178 1.843-2.651 5.78-2.644 5.976-.026.491.124.976.395 1.162z" fill="#001959"/><path d="M572.679 121.274s-7.259 2.256-11.387 1.201c0 0 .696 3.278 3.091 4.239 2.445.907 7.428-.48 8.296-5.44z" fill="#fff"/><path d="M587.633 101.433s-.501 4.947-2.915 4.878c-2.415-.07-2.971-3.824-1.254-5.617 1.611-1.842 4.432-.686 4.169.739zm-5.055 12.846s.697 6.032-2.439 6.682c-3.135.651-4.874-3.643-3.144-6.295 1.579-2.677 5.535-2.16 5.583-.387z" fill="#FD8481"/><path d="M568.43 109.102c.777-.081 1.323-.941 1.221-1.919-.103-.979-.816-1.706-1.593-1.624-.777.081-1.324.941-1.221 1.919.102.979.815 1.706 1.593 1.624zm-9.944.522c.777-.082 1.324-.941 1.221-1.92-.102-.978-.816-1.705-1.593-1.624-.777.082-1.323.941-1.221 1.92.103.978.816 1.705 1.593 1.624zm2.301-6.475c.234.118.374.4.256.634-.047.14-.188.21-.329.28-.094.047-.234-.001-.305-.024-.701-.354-2.784-1.135-3.91-.811-.258.07-.563.162-.821.232l-.442-.892 1.056-.348c1.618-.393 4.355.882 4.495.929z" fill="#001959"/><path d="M595.068 186.193s1.104 37.502-3.49 45.151c-3.312 5.465-28.197 25.699-36.649 32.464-3.165 2.298-6.307 3.793-6.307 3.793s-7.334.044-11.007 1.336c-3.675 1.247-9.127 1.179-8.264 3.285.81 2.108 5.582.776 7.136.274.569-.199.996.008 1.27.355 2.349 2.631-3.394 4.621-7.017 5.867-7.402 2.496-13.798 5.267-11.882 6.088 1.916.821 14.573-4.138 17.213-5.036 2.639-.897-9.745 5.788-14.771 8.777-5.026 2.989-1.38 3.836 1.278 2.002 2.658-1.833 14.992-8.473 15.338-7.595.346.878-13.401 8.994-12.536 11.145.866 2.195 2.595-.674 4.747-1.999 2.153-1.325 7.909-7.28 9.984-6.42 0 0-6.534 9.055-5.077 8.78.729-.116 20.792-17.5 23.995-20.199 15.592-10.677 50.119-30.954 52.047-34.142 3.162-5.236 10.823-46.665 10.823-46.665l-26.831-7.261z" fill="#FD9B9B"/><path d="M620.088 207.894l-24.624-8.121c-.013 5.401-.095 11.8-.345 17.891 5.711 1.313 14.973 3.702 22.17 6.953.994-5.804 1.985-11.713 2.799-16.723z" fill="#FD8481"/><path d="M592.153 159.259c-1.094 8.848-2.09 53.451-1.879 53.496l32.866 2.63c1.785-14.326.374-28.589-1.785-43.243-1.25-8.396-2.61-19.829-9.683-25.444-9.772-7.719-18.194 1.449-19.519 12.561z" fill="#E50653"/><path d="M590.801 160.933c-1.095 11.68-1.542 38.279-.524 51.822-.01-.262 1.45-22.074 1.345-20.655 1.735-28.638.555-33.681 3.872-40.513 3.165-6.67 9.037-9.558 16.13-4.835-10.225-8.646-19.471.919-20.823 14.181z" fill="#D6064E"/><path d="M374.965 76.288s.1-10.762-2.142-12.955c-2.193-2.192-3.588-9.566-3.588-11.61 0-1.992.698-5.032 1.744-5.032s4.584-1.694 5.331-1.694c.748 0-5.182-15.396-2.591-16.143 2.591-.748 5.182 16.143 6.577 16.143 1.396 0 1.695-18.385 3.837-18.385 2.143 0-.149 22.67 1.046 23.916 1.196 1.196-1.694 20.28-1.694 20.28l-8.52 5.48z" fill="#FD8481"/><path d="M376.31 44.15l.199.897s2.143 5.88.897 7.125c-1.295 1.246-3.687-6.278-3.687-6.278s2.741 6.677 1.545 7.524c-1.694 1.196-4.235-5.83-4.235-5.83s2.242 3.886 2.242 6.079c0 2.192-3.986-1.943-3.986-1.943s-.698-2.093 0-4.435c.697-2.342 1.843-1.694 2.441-2.292.548-.598 3.637-1.146 4.584-.847z" fill="#FD9B9B"/><path d="M383.836 50.827s-6.478-3.04-7.873-1.644c-1.395 1.395 5.68 4.783 6.727 6.676 1.046 1.894.946 2.79 1.893 3.737.997.997 1.694-8.121.897-8.869-.797-.797-1.644.1-1.644.1z" fill="#FD9B9B"/><path d="M581.046 144.201s-24.614 33.932-34.031 33.932c-9.417 0-27.255-31.64-27.255-31.64l-1.993 48.929s10.065 17.689 30.195 17.689c20.13 0 50.374-72.148 50.374-72.148l-17.29 3.238z" fill="#011C2D"/><path d="M525.488 300.356l-36.971 38.515 3.239 8.321s20.877 83.857 20.877 92.377c0 8.521 1.495 118.885 1.495 118.885l16.193-1.096 3.837-118.685-8.67-138.317z" fill="#045A95"/><path d="M456.731 290.241c.498 5.68-13.702 129.548-13.702 129.548l-18.187 134.978 10.613.199c-2.541-8.221 24.951-96.114 24.951-96.114s37.431-106.677 36.335-106.677l17.04-36.074s13.752-10.015 14.799-30.045c-21.226-2.193-71.849 4.185-71.849 4.185z" fill="#066EB8"/><path d="M449.702 324.222c-2.441-17.289-1.295-104.086-2.391-135.825-.05-.997 6.876-41.057 6.876-41.057 1.644 0 21.026-2.691 36.173-2.691 15.147 0 29.398 1.894 29.398 1.894s6.626 20.827 6.626 42.651c0 12.357 5.282 89.288 3.488 124.565-20.628 2.69-59.492 10.015-80.17 10.463z" fill="#022D48"/><path d="M519.807 146.543c4.285 13.303 6.925 27.255 7.324 41.306.847 25.511 5.481 87.494 2.79 125.86.499-40.11-4.285-106.976-4.185-125.86-.05-13.154-2.491-28.451-5.929-41.306zm-15.046-30.544s-4.932 3.339-11.709 1.943c0 0 3.737 4.286 6.577 4.286 2.84.049 5.132-6.229 5.132-6.229z" fill="#fff"/><path d="M463.445 143.955s3.147-1.856 4.887-1.581c1.74.276 5.373 3.919 5.807 8.838.463 4.961 2.301 6.643-.941 6.165-3.271-.517-3.517-7.976-3.517-7.976s2.084 9.818-.824 10.393c-2.909.574-2.086-7.786-4.104-8.105-2.018-.32 1.912 9.327-.523 8.942-2.436-.386-2.836-10.259-4.488-9.058-1.653 1.201 2.791 9.182-.23 7.99-.773-.301-6.84-9.751-6.542-11.63 0 0 2.129-3.087 4.24-3.574 0 0 1.509-1.651 2.693-1.464 1.154.147 3.542 1.06 3.542 1.06z" fill="#FD9B9B"/><path d="M470.628 96.119c-2.192-1.645-5.381-2.442-9.218-1.395l.499 1.245c3.338-1.395 6.477-1.046 8.719.15zm-10.261 6.527c.598-1.893 1.844-3.787 3.688-4.933 1.793-1.096 3.139-1.096 4.584-1.096.548 0 1.046.15 1.594.2-.149-.05-2.093-.449-3.239-.3-3.338.15-6.128 2.79-7.274 5.93l.647.199z" fill="#E30655"/><path d="M494.251 131.097s-1.694 18.087 3.587 26.956c1.694 2.84-.199 6.527-3.537 6.676-1.944.1-4.485-.249-7.873-1.146-3.288-.897-8.42-3.936-9.616-7.972-3.787-12.456 3.388-34.679 3.388-34.679l14.051 10.165z" fill="#FD9B9B"/><path d="M478.304 127.908c.996-4.186 1.893-6.976 1.893-6.976l14.051 10.165s-.498 5.182-.149 11.36c-4.535-.996-10.564-4.434-15.795-14.549z" fill="#FD8481"/><path d="M498.482 87.947s3.039-1.196 5.58 2.691c2.542 3.886 4.883 16.941 2.691 28.949-2.192 12.008-3.886 16.592-9.118 16.592s-14.898-2.192-21.973-18.436c-7.125-16.243-4.734-34.878 22.82-29.796z" fill="#FD9B9B"/><path d="M499.331 97.813c1.196 0 6.477.747 8.321-10.065 1.843-10.812-9.766-24.116-17.689-20.578-7.972 3.538 2.093 9.716 2.093 9.716s-5.73-3.239-7.424.498.847 5.431 0 6.278c-.847.847-6.278-6.776-12.357-.697s-1.993 9.816-3.537 13.204c-1.545 3.388-8.521 8.271-1.545 19.631 4.434 7.225 12.008 8.57 12.008 8.57s-1.196-3.836-1.196-8.919c0-5.082 4.036-.996 4.036-.996s-1.843-.399-1.843-5.431c0-5.381-2.193-9.766-2.193-11.161 0-1.395-.498-4.933 5.232-2.541 5.78 2.441 16.094 2.491 16.094 2.491z" fill="#B80543"/><path d="M496.992 119.736c-.449.05-.498-.648-.05-.698l4.385-.448-1.096-11.41c.498 3.238 1.445 9.267 1.843 12.008-.099.05-5.381.548-5.082.548zM486.38 106.98c3.388-5.181 8.719-1.893 8.769-1.843.399.249 0 .797-.349.548-.199-.1-4.833-2.99-7.822 1.644-.1.15-.299.2-.449.1-.199-.05-.249-.249-.149-.449zm19.98-4.832c.2 0 .349.149.349.348a.34.34 0 01-.349.349c-2.89 0-3.488 2.89-3.488 3.039-.099.449-.747.299-.647-.149-.05-.05.647-3.587 4.135-3.587z" fill="#172866"/><path d="M493.705 124.171c1.645 1.694 5.581 1.594 7.923 1.195.548-.099.697.698.149.798-6.477 1.494-10.164-.947-9.018-2.043.299-.199.697-.199.946.05z" fill="#fff"/><path d="M483.487 117.295s.348-7.624-5.581-9.118c-5.929-1.545-5.132 5.182-1.844 8.47 3.289 3.239 7.425.648 7.425.648z" fill="#FD9B9B"/><path d="M477.905 110.419c2.492-.698 3.538 2.79 3.638 3.139.348 1.146.199 2.192-1.894 2.541-2.092.399-4.235-5.032-1.744-5.68z" fill="#FD8481"/><path d="M454.237 147.34s-.548 23.318-6.876 41.056c0 0-29.347-23.966-50.424-40.658-17.539-13.901-25.909-76.831-25.909-76.831l16.94-6.627s9.268 51.52 26.059 65.671c21.774 18.385 40.21 17.389 40.21 17.389z" fill="#022D48"/><path d="M492.555 110.967a1.744 1.744 0 100-3.488 1.744 1.744 0 000 3.488zm12.194-2.641c.963 0 1.744.223 1.744.498 0 .276-.781.499-1.744.499s-1.744-.223-1.744-.499c0-.275.781-.498 1.744-.498zm61.041 3.457c-2.084-2.736-1.697-6.536.864-8.487 2.562-1.951 6.328-1.314 8.412 1.423 2.084 2.736 1.697 6.536-.864 8.487-2.562 1.951-6.328 1.314-8.412-1.423z" fill="#172866"/><path opacity=".69" d="M570.633 102.206l-2.079 11.691c.463.168.927.337 1.439.373l2.124-11.712a4.378 4.378 0 00-1.484-.352zm2.762.966l-1.974 11.092a4.17 4.17 0 00.762-.135l1.868-10.493c-.22-.117-.415-.301-.656-.464z" fill="#027CCD"/><path d="M551.367 113.607c-2.084-2.736-1.697-6.536.864-8.487 2.562-1.95 6.328-1.313 8.412 1.423 2.084 2.737 1.697 6.536-.865 8.487-2.561 1.951-6.327 1.314-8.411-1.423z" fill="#172866"/><path opacity=".69" d="M556.255 104.021l-2.079 11.691c.463.169.927.337 1.438.373l2.125-11.711c-.509-.148-1.018-.296-1.484-.353zm2.711.988l-1.974 11.092c.268-.015.515-.076.762-.136l1.868-10.493a11.98 11.98 0 00-.656-.463z" fill="#027CCD"/><path d="M561.022 108.303l4.074-.308.075.994-4.074.308-.075-.994zm19.466-10.281l.694.715-6.921 6.726-.694-.715 6.921-6.726z" fill="#172866"/><path d="M437.437 550.706c-1.681 2.553-3.362 8.798 0 12.164 3.362 3.367 12.607 4.236 12.607 4.236l6.275-.38s-7.676-4.127-10.534-8.471c-.84-1.249 0-3.584 0-4.507.056-4.128-6.443-6.028-8.348-3.042z" fill="#E6F7F1"/><path d="M423.321 553.747l-2.969 19.115 17.145 2.335 23.196-1.032.56-4.127-13.727-9.883s-4.09 4.507-12.495 2.172c-8.404-2.335-11.71-8.58-11.71-8.58z" fill="#011C2D"/><path d="M437.442 571.83c-3.306 0-12.607-4.779-16.866-6.897l-.28 7.928 17.146 2.335 24.709-1.14-.953-4.073c-5.211.543-20.058 1.847-23.756 1.847zm-11.599-22.209c-1.008-.597-4.37-.76-4.37 1.846 0 2.607 7.06 13.033 16.977 13.033 9.917 0 11.206-3.041 9.581-4.344-1.625-1.303-9.581.543-11.99-.38-2.353-.923-7.06-8.363-10.198-10.155z" fill="#027CCD"/><path d="M438.67 560.047l1.624 8.743 16.025-2.281-10.477-8.254-7.172 1.792z" fill="#fff"/><path d="M440.299 562.274c-.448 0-.84-.326-.896-.76-.056-.489.28-.978.784-1.032l6.556-1.086c.504-.109.952.271 1.064.76.056.489-.28.978-.784 1.032l-6.556 1.086h-.168zm2.302 4.452c-.448 0-.84-.326-.896-.76-.113-.489.224-.978.728-1.086l8.853-1.684c.504-.108.952.218 1.064.761.112.488-.224.977-.728 1.086l-8.853 1.683h-.168z" fill="#027CCD"/><path d="M530.157 550.128c-1.969 2.353-4.004 8.16 0 11.313 4.005 3.154 14.902 3.955 14.902 3.955l7.418-.35s-9.059-3.855-12.407-7.859c-.985-1.202 0-3.304 0-4.205-.066-3.855-7.681-5.557-9.913-2.854z" fill="#E6F7F1"/><path d="M513.425 552.981l-3.545 17.771 20.219 2.202 27.375-.951.656-3.854-16.214-9.161s-4.793 4.205-14.771 2.052c-9.912-2.202-13.72-8.059-13.72-8.059z" fill="#011C2D"/><path d="M516.441 549.127c-1.247-.55-5.186-.701-5.186 1.702s8.337 12.114 20.022 12.114c11.685 0 13.261-2.853 11.357-4.054-1.904-1.202-11.291.5-14.179-.351-2.823-.801-8.338-7.709-12.014-9.411zm13.721 20.674c-3.938 0-14.836-4.455-19.891-6.407l-.787 8.81 20.678.751 29.148-.4-1.117-4.406c-6.17.401-23.698 1.652-28.031 1.652z" fill="#027CCD"/><path d="M531.539 558.838l1.969 8.109 18.906-2.102-12.407-7.659-8.468 1.652z" fill="#fff"/><path d="M533.519 560.891c-.525 0-.985-.3-1.05-.7-.066-.451.328-.901.919-1.001l7.746-1.002c.591-.1 1.116.251 1.248.701.065.451-.329.901-.92 1.001l-7.746 1.001h-.197zm2.691 4.154c-.525 0-.984-.3-1.05-.7-.131-.451.263-.901.853-1.002l10.504-1.551c.591-.1 1.181.2 1.247.701.131.45-.263.901-.853 1.001l-10.504 1.551c-.066-.05-.131 0-.197 0z" fill="#027CCD"/><mask id="a" maskUnits="userSpaceOnUse" x="576" y="110" width="35" height="36"><path d="M588.74 110.196l21.382 6.748-5.473 22.307-6.478 1.711-8.754 1.602-12.422 2.633 11.745-35.001z" fill="#FD5E5A"/></mask><g mask="url(#a)"><path d="M566.578 171.665l25.827-21.914s5.677-10.45 8.989-13.566c3.311-3.117 6.028-9.72 4.448-10.579-1.581-.86-4.319 5.979-5.192 6.219-.874.239.274-6.825-.823-10.611-1.098-3.786-1.505-7.723-3.39-6.504-1.886 1.219.474 9.79.474 9.79s-.212 7.423-1.073 6.938c-.844-.448-.251-5.764-.251-5.764s-1.499-4.716-1.979-6.373c-.378-1.256-3.101-4.217-3.364-2.518-.18 1.029 1.442 3.755 1.61 5.696.333 3.973-.469 7.637-.469 7.637s-2.591-11.111-4.101-10.7c-1.51.41 1.024 9.436 1.024 9.436s-.068 8.567-1.267 9.906c-1.199 1.339-4.027 5.931-6.642 8.533-2.651 2.619-17.458 5.276-23.336 8.006-5.877 2.73-13.601 10.883-12.196 15.869.41 1.51 2.039 2.66 4.091 3.472 5.957 2.398 12.734 1.168 17.62-2.973z" fill="#FD9B9B"/></g><path d="M1043.93 181.966c-12.53-4.666-43.26-18.308-62.123-45.186-27.538-39.202-29.465-55.887-29.465-55.887s2.333-6.44 2.333-10.143c0-3.651 1.825-8.418-.457-8.418s-2.586 4.615-2.586 6.187c0 .558-.355.862-.761 1.014-1.116.406-2.383-.304-2.688-1.47-.304-1.167-.608-3.195-.608-6.695 0-7.353-.558-13.895-1.978-12.526-1.42 1.42-.761 14.25-.761 16.888 0 2.637-2.383-10.549-3.601-15.975-1.217-5.427-3.195-2.536-2.332.456.862 2.992 3.245 16.076 2.282 16.076-.964 0-4.26-14.859-6.593-14.859-2.384 0-.203 2.485.355 4.818.558 2.333 4.412 9.433 2.891 10.954 0 0-6.492-8.875-6.745-7.505-.102.71 4.97 11.309 7.556 15.518 6.035 9.94 25.661 71.05 37.579 82.867 11.614 11.512 33.012 40.469 35.292 53.757 12.99-7.608 25.97-16.838 32.41-29.871z" fill="#FD7B77"/><path d="M956.652 83.48s18.713 44.882 33.217 54.264c14.501 9.332 39.761 37.985 56.601 38.644 0 0-28.71 37.528-34.95 35.449-6.23-2.079-42.9-55.582-50.152-62.834-7.252-7.252-19.221-59.437-19.221-59.437l14.505-6.086z" fill="#BFBFBF"/><path d="M1107.93 508.97s10.75 11.005 11.92 18.257c1.17 7.252 1.62 17.547 1.62 17.547h-31.54s3.75-12.171 3.75-20.235c0-8.114 14.25-15.569 14.25-15.569z" fill="#1F0140"/><path d="M923.236 518.3s3.499 10.498 3.499 13.795v11.207l-52.59 1.167s-.71-8.672 4.666-11.208c5.375-2.586 20.792-5.629 25.965-12.628 5.122-6.998 18.46-2.333 18.46-2.333z" fill="#011C2D"/><path d="M988.458 300.89l-80.889 63.595-2.789 156.149h21.503l11.207-114.107 106.4-79.824-55.432-25.813z" fill="#32496C"/><path d="M1001.07 315.394s-6.54 29.009-6.54 35.044c0 6.085 20.79 102.138 27.13 108.477 6.29 6.288 68.26 66.841 68.26 66.841l27.13-9.332s-58.42-70.137-61.26-80.432c-2.79-10.295-7.96-97.726-7.96-97.726l-44.43-22.922h-2.33v.05z" fill="#446393"/><path d="M1121.48 544.724h-35.3c-1.88 0 .56-11.157 1.83-12.172 2.58-2.079 24.54-7.657 31.44 3.956.4.659 2.84 8.216 2.03 8.216z" fill="#011C2D"/><path d="M1094.14 191.957s9.83 20.488 9.83 26.118c0 5.629-56.59 112.737-50.51 130.03 0 0-60.802-21.046-74.343-41.129 0 0 31.793-123.894 56.593-130.436 24.75-6.593 52.34 9.331 58.43 15.417z" fill="#BFBFBF"/><path d="M979.123 306.976c7.81-26.118 35.347-123.539 56.597-130.436-23.84 5.984-50.816 104.927-56.597 130.436z" fill="#FDFDFD"/><path d="M1085.22 196.166s-8.17 3.043-16.84 0c-8.67-3.042-12.58-8.317-12.63-14.504-.05-6.187 7-11.917 14.71-11.917 7.71 0 20.79 7.962 20.79 14.96.05 6.999-6.03 11.461-6.03 11.461z" fill="#753A00"/><path d="M1051.03 193.885s-4.97-16.888 10.65-25.002c12.12-6.289 42.7 8.114 39.91 23.379-1.82 9.838-17.34 10.599-27.89 12.83-13.29 2.79-9.69-5.832-7.46-7.1 6.24-3.6 19.58-6.339 19.58-11.968 0-9.94-14.45-16.533-18.21-12.78-3.75 3.753-12.67 24.545-16.58 20.641z" fill="#E9084E"/><path d="M1110.32 142.816c2.84-.558 6.23.152 9.23 2.941l-1.07 1.014c-2.38-2.992-5.48-4.107-8.16-3.955zm6.24 11.258c.4-2.13.15-4.615-.97-6.593-1.11-1.927-2.33-2.536-3.65-3.246-.51-.202-1.06-.355-1.57-.557.15.05 2.13.507 3.14 1.217 2.99 1.724 4.26 5.629 3.76 9.28l-.71-.101z" fill="#EBA708"/><path d="M1063.26 176.996c4.15-6.441 5.47-11.969 5.47-11.969l20.29-2.282s-1.62 4.666-3.96 11.005c-2.68 7.252-6.39 16.685-9.84 23.988-11.41 1.471-17.29-1.876-20.28-5.071.25-.863 5.88-11.867 8.32-15.671z" fill="#FD9B9B"/><path d="M1084.4 175.526c-6.95.913-15.47.862-20.69.71 3.8-6.136 5.07-11.258 5.07-11.258l20.28-2.283s-1.62 4.666-3.95 11.005c-.26.609-.51 1.217-.71 1.826z" fill="#FD7B77"/><path d="M1088.56 121.667s-2.23-2.586-6.54.051c-4.32 2.637-12.99 14.352-16.94 27.183-3.96 12.881-4.67 18.155.2 20.59 4.87 2.485 14.91 4.817 29.62-7.81 14.7-12.628 21.75-32.052-6.34-40.014z" fill="#FD9B9B"/><path d="M1082.83 130.999c-1.12-.558-11.92-4.159-8.22-15.671 3.71-11.512 20.34-10.295 28.91 8.723.51 1.167 9.23-3.702 11.82 5.173 2.58 8.824-3.05 10.599-3.3 14.656s3.75 12.121-8.37 20.032c-7.71 5.021-15.41 2.79-15.41 2.79s3.04-3.246 5.52-8.216c2.54-5.021-3.24-2.891-3.24-2.891s1.92.507 4.41-4.463c2.69-5.325 6.9-8.57 7.61-9.94.71-1.369 2.94-4.615-3.6-4.97-6.5-.456-16.13-5.223-16.13-5.223z" fill="#EBA708"/><path d="M1074.1 153.616c.41.254.81-.355.41-.608l-3.86-2.485 6.7-10.752c-2.08 2.942-5.99 8.47-7.71 10.955.1.101 4.71 3.093 4.46 2.89zm16.18-7.505c-.56-6.695-7.15-5.985-7.2-5.934-.46.051-.41.811.05.71.25-.051 5.98-.659 6.44 5.325 0 .203.2.355.41.304.2 0 .35-.203.3-.405zm-16.08-14.149c-.15-.102-.4 0-.51.152-.1.203-.05.406.16.507 2.68 1.369 1.77 4.463 1.72 4.615-.15.457.56.659.66.203.05-.051 1.17-3.854-2.03-5.477z" fill="#172866"/><path d="M1074.91 159.55c-2.38.913-5.98-1.065-7.91-2.535-.46-.355-.56.152-.56.71.56 12.069 9.89 3.854 9.38 2.231-.15-.355-.55-.507-.91-.406z" fill="#fff"/><path d="M1087.85 157.572s3.5-7.657 9.74-6.389c6.24 1.267 2.18 7.505-2.49 9.179-4.71 1.775-7.25-2.79-7.25-2.79z" fill="#FD9B9B"/><path d="M1096.43 153.466c-1.98-1.826-4.67 1.065-4.97 1.369-.92.964-1.27 2.029.5 3.398 1.78 1.369 6.44-2.941 4.47-4.767z" fill="#FD7B77"/><path d="M1082.08 147.017c-.63-.317-.73-1.363-.24-2.337.5-.975 1.4-1.508 2.03-1.191.62.317.73 1.363.23 2.338-.49.974-1.4 1.507-2.02 1.19zm-10.32-6.214c-.45-.228-.47-1.102-.03-1.951.43-.849 1.14-1.353 1.59-1.125.45.228.46 1.102.03 1.951-.43.849-1.14 1.353-1.59 1.125z" fill="#00147D"/><path d="M1101.59 192.261c-1.83 9.838-17.34 10.599-27.89 12.83-13.29 2.79-9.69-5.832-7.46-7.1 5.58-3.195 16.74-5.73 19.12-10.244 5.27-.051 9.99-1.775 14.61-3.956 1.47 2.739 2.18 5.579 1.62 8.47z" fill="#E9084E"/><path d="M1071.07 237.295s-40.62-16.532-47.77-26.878c0 0-11.21 32.051-11.21 33.421 0 0 28.8 19.068 41.89 22.415l17.09-28.958z" fill="#fff"/><path d="M1035.67 318.183c.1 0 .25 0 .35-.101.46-.203.71-.761.51-1.217-6.54-15.062 1.27-29.161 1.37-29.313a.928.928 0 00-.35-1.268.923.923 0 00-1.27.355c-.36.609-8.32 15.062-1.47 30.986.15.355.5.558.86.558zm-39.969-15.062c11.359 0 17.039-24.799 17.289-25.864.11-.507-.2-1.014-.71-1.115-.5-.102-1.01.202-1.11.709-.05.254-5.58 24.394-15.469 24.394a.91.91 0 00-.913.913c-.05.507.406.963.913.963zm90.069-131.398c5.93 3.55 13.03 8.976 14.71 15.67 3.75 13.389-16.69 14.656-26.78 17.649 9.58-1.218 24.04-1.928 27.94-10.143 4.47-9.636-5.78-19.069-15.87-23.176z" fill="#E9084E"/><path d="M1072.99 228.927c7.35-5.021-8.32-8.368-8.32-19.018 0-2.941.56-8.976 3.05-7.404 1.01.659 2.03-.862 1.06-1.572-.56-.406-1.87-.862-3.14-.203-1.88 1.014-2.79 4.006-2.79 9.179 0 6.238 4.21 9.991 7.3 12.729 2.99 2.688 3.75 3.398 1.83 4.717-1.07.761-.05 2.282 1.01 1.572zm-34.29-12.831c7.36 0 10.96-4.97 10.96-12.78 0-9.635 1.62-10.599 1.77-10.65.46-.152 1.02 1.065 1.88.254 1.06-1.065-1.02-2.586-2.59-1.978-1.27.507-2.99 2.333-2.99 12.425 0 8.926-5.02 12.171-12.58 10.447-1.16-.355-1.72 1.471-.5 1.775.25.051 1.92.507 4.05.507z" fill="#fff"/><path d="M1214.08 189.675c6.69-4.26 11.61-8.115 13.69-10.752 1.37-1.673 4.06-19.068 8.98-17.192.76.305 1.21 1.167.81 2.232-.26.608-.76 1.166-1.52 2.789-1.27 2.637-1.32 4.919-.61 4.869 2.28-.254 14.7-18.055 17.29-16.838 2.18 1.015-4.82 8.216-6.69 10.194-3.3 3.55-4.67 6.593-3.76 5.68.87-.964 7.36-7.962 10.15-9.94 2.73-2.029 6.59-5.984 8.36-4.361 1.73 1.622-2.08 3.245-2.08 3.245-4.2 3.094-12.32 12.121-15.11 15.113 5.48-2.231 17.7-16.381 17.85-12.678.1 2.332-11.91 13.439-14.91 15.417-3.8 2.535.97.912 3.4.05 2.23-.811 8.17-5.426 7.3-1.978-.91 3.297-20.38 11.107-26.93 15.468-1.26.862-4.26 3.347-8.41 6.847-2.29-2.891-4.92-5.579-7.81-8.165z" fill="#FD9B9B"/><path d="M1097.99 200.476c12.28 3.956 18.72 10.802 36.72 12.07 23.89 1.674 60.25-16.837 79.37-28.907 2.89 2.587 10.55 13.997 12.83 16.837-13.75 11.563-45.24 30.987-63.09 37.579-17.09 6.289-51.73 11.918-73.53 10.752l7.7-48.331z" fill="#BFBFBF"/><path d="M915.291 544.507c5.654-1.699 10.765-8.724 11.694-14.514h6.893c-1.782 1.776 1.006 12.893 1.006 12.893l-1.394 6.176-18.199-4.555z" fill="#FD7B77"/><path d="M911.266 545.975c1.317-.618 2.633-1.699 4.027-1.467 18.819 2.856 19.671-1.699 19.671-1.699s1.781 4.941 1.781 6.099c0 1.158-1.162 1.081-6.737 1.081-5.576 0-14.405 1.621-19.129.232-4.801-1.313-5.034-1.776.387-4.246z" fill="#653870"/><path d="M907.86 302.019l13.32-6.717 23.156 55.045v92.332c5.885 17.293-5.189 90.711-5.189 90.711l-13.088-1.08c10.068-62.302-18.199-230.291-18.199-230.291z" fill="#022D48"/><path d="M986.696 550.452c0 3.088 1.161 6.64 2.246 9.959 1.006 2.934-.62 4.71-.62 6.64 0 4.014-10.3 2.779-10.3 2.779s-2.478-5.868-1.239-10.654c1.007-3.86 1.936-8.106 1.936-10.963 0-.54-.155-1.775-.464-3.474h8.286c-.155 3.011.155 5.019.155 5.713z" fill="#FD7B77"/><path d="M952.004 409.869l-36.011-109.162 23.853-24.705s27.028 21.539 31.984 37.288c4.956 15.75 3.407 80.212 3.407 88.705 0 8.569 9.681 31.652 13.321 39.295 3.175 6.716 3.02 81.447 2.245 103.449H978.18c-3.02-18.682-20.755-100.747-20.755-110.629 0-10.808-5.421-24.241-5.421-24.241z" fill="#022D48"/><path d="M965.63 300.475c8.906 11.735 10.997 16.907 11.462 69.327.077 10.73 0 33.119 0 33.119.155 9.882 14.482 41.071 12.933 37.597 4.259 9.881 1.703 89.167.852 104.144 0-9.11-.62-95.498-3.718-102.832-.077-.154-12.236-18.914-13.475-45.471 1.162-79.826-.697-82.991-9.293-94.88-6.97-9.496-15.566-17.757-24.395-25.554 8.597 6.716 18.897 16.135 25.634 24.55z" fill="#446393"/><path d="M976.711 559.175c0 .077.542 9.418 5.731 7.72 3.175-1.081 5.343-4.246 6.427-6.485 1.007 2.934 1.859 5.713 1.859 7.566 0 4.014-15.721 5.25-15.721 5.25s.465-9.342 1.704-14.051z" fill="#653870"/><path d="M888.964 287.505l-5.034 60.757-35.236 196.863 5.111 17.988-12.314 8.801v-29.028l-4.336-2.007s9.68-151.16 9.68-155.715c0-4.477-1.781-63.15-1.781-63.15l10.145-42.461 33.765 7.952z" fill="#446393"/><path d="M824.61 273.687l-12.003 18.605-47.24 247.97 4.181.309-1.084 4.169-25.866 14.899s19.051.464 28.654.464c9.603 0 13.475-1.853 13.475-1.853l-3.872-15.595 77.443-232.993 2.866-28.95-36.554-7.025z" fill="#446393"/><path d="M930.933 99.83s13.475-.696 18.122 11.811c4.647 12.506 4.104 38.523-2.246 45.857-6.35 7.334-5.266 26.172-10.842 31.73-5.576 5.558-19.748 8.029-19.748-5.018 0 0 6.893 1.621 8.674-6.562 0 0-9.913 6.33-14.792-3.32s5.576-10.576 5.576-10.576-5.034 6.639 1.084 5.172c6.118-1.467 9.681-6.948 9.681-13.973 0-7.026-10.378-2.548-9.294-15.44 1.007-12.816 9.216-40.145 13.785-39.682z" fill="#0E1B29"/><path d="M894.304 168.847l15.799 55.894 30.125 23.006-1.084 7.797s-25.324 6.948-39.264-7.257c-9.293-9.496-11.616-35.59-11.616-45.394 0-16.598 6.04-34.046 6.04-34.046z" fill="#011C2D"/><path d="M894.926 168.847c8.054 31.344-3.175 101.983-4.956 135.566l-82.71-2.625 10.765-44.854 7.202-91.02s1.936-5.713 22.226-11.349c11.694-3.242 21.22-4.4 28.654-1.698 12.546 4.555 17.27 10.036 18.819 15.98z" fill="#011C2D"/><path d="M958.276 174.252c-2.169 19.918-18.896 64.694-18.896 77.278 0 12.584 16.65 37.442 16.65 37.442s-21.219 19.301-54.52 21.54l4.956-74.577s-1.626-24.936-1.626-34.817c0-9.882 14.947-30.958 20.523-36.594 5.653-5.635 21.606-10.345 27.956-4.014 6.351 6.253 5.344 9.882 4.957 13.742z" fill="#E9084E"/><path d="M948.674 159.12s3.407-.155 3.407 10.036c0 10.191-25.556 68.014-45.536 66.779-19.981-1.235-41.897-51.493-41.897-51.493l6.738-3.32s25.711 41.303 36.94 33.583c11.229-7.798 21.994-55.585 40.348-55.585z" fill="#FD9B9B"/><path d="M872.084 185.985l-2.4-15.286-11.384-6.871-8.132 9.573 14.405 11.04 7.511 6.331v-4.787z" fill="#FC7575"/><path d="M937.207 241.493s3.562-1.003 4.414 2.085c2.014 7.411 2.169 9.187-2.323 10.962-3.872 1.544-7.589 1.235-7.589.386 0-1.003 4.104-2.547 5.653-3.088 1.471-.54-9.061 2.471-8.596-.386.387-2.933 7.357-2.933 8.209-3.165.852-.309-5.731 1.776-8.132-.54-1.239-1.236 8.132-2.394 8.519-3.088.387-.695-9.758 1.852-8.441-.618 1.316-2.471 8.286-2.548 8.286-2.548zm-92.16-58.21c.929-.926 10.222-20.69 10.222-20.69l8.287-.772s11.926 6.948 10.067 8.801c-1.858 1.853-10.377-5.404-10.377-5.404s10.687 7.797 8.829 9.573c-1.782 1.775-10.997-5.559-10.997-5.559s.309 6.871-.697 11.967c-1.007 5.095-14.095 15.44-14.095 15.44l-5.111-5.25 3.872-8.106z" fill="#FD7B77"/><path d="M844.279 181.199l7.047 16.908s-41.2 56.048-52.274 51.57c-11.152-4.478-1.859-33.814 4.027-49.795 5.576-15.131 14.947-31.575 21.529-36.053 6.583-4.477 7.977-2.779 8.829-1.003 1.007 2.084-.697 25.244-7.202 36.593-6.428 11.349-6.506 10.422-6.506 10.422l24.55-28.642z" fill="#011C2D"/><path d="M922.962 137.349s8.983 24.627 7.125 26.403c-1.859 1.852 13.165-.541 14.094-7.721l-8.596-26.248-12.623 7.566z" fill="#FD9B9B"/><path d="M935.583 129.783l-12.623 7.566s.465 1.544 1.316 3.783c4.415-1.236 11.462-3.706 12.933-6.254l-1.626-5.095z" fill="#FD7B77"/><path d="M932.49 108.398l-19.051 10.5s-3.949.077-3.949-4.323c0-4.401 4.879-8.724 9.758-11.195 4.956-2.47 11.152-3.628 11.152-3.628l2.09 8.646z" fill="#0E1B29"/><path d="M925.596 103.689s-7.358 1.235-9.371 4.71c-2.014 3.474-2.478 11.811-4.492 13.819-2.013 2.007-3.717 2.393-3.717 2.393s-.542.926 1.471 1.93c2.014 1.003.465 2.084-.774 2.084s-.232 2.316.774 2.625c0 0-1.239.386-1.006 1.544.232 1.158.774 1.39.774 1.39s.078 1.544-.542 2.933c-.62 1.467.929 5.713 10.532 3.783 0 0 14.327-3.397 15.179-7.411.852-4.015 7.202-18.683 1.781-24.087-5.343-5.481-10.609-5.713-10.609-5.713z" fill="#FD9B9B"/><path d="M932.566 99.674s-2.556-1.544-11.54 1.004c-8.983 2.548-11.151 11.812-11.151 11.812s5.808-3.86 9.448-3.86c3.64 0 11.849-1.39 13.243-2.702 1.316-1.39 0-6.254 0-6.254z" fill="#1B3753"/><path d="M931.247 99.288c-1.239 0-9.371 8.493-7.28 15.209 2.169 6.717 7.28 3.706 10.532 5.481 3.253 1.776-.619 10.114-.077 13.433.62 3.397 9.68 22.543 9.68 22.543s7.667-40.608 3.021-48.173c-4.569-7.412-15.876-8.493-15.876-8.493z" fill="#1B3753"/><path d="M922.49 126.849c-2.096 0-3.795-.829-3.795-1.852 0-1.024 1.699-1.853 3.795-1.853s3.795.829 3.795 1.853c0 1.023-1.699 1.852-3.795 1.852z" fill="#FD7B77"/><path d="M911.11 121.523s1.936 2.007 6.738.386l-6.738-.386zm3.562-3.243s1.859-1.081 3.33-1.081 2.788.618 2.788 1.081c0 0-1.626-.772-2.865-.541-1.239.232-1.859 1.158-2.324 1.158-.464 0-.929-.617-.929-.617z" fill="#1B3753"/><path d="M889.345 122.449l-4.724 34.2c-.233 1.853-1.394 3.474-3.021 4.4-3.872 2.085-13.475.386-17.424-6.021-3.098-4.941 9.835-35.281 9.835-35.281s9.138.309 15.334 2.702z" fill="#FD9B9B"/><path d="M873.934 119.747s-.465 1.312-1.317 3.474c-.232 3.242-.31 8.26.31 12.043.852 5.095 6.195 14.205 12.468 15.749l3.95-28.564c-6.196-2.393-15.411-2.702-15.411-2.702z" fill="#FD7B77"/><path d="M880.673 78.599c-3.795 3.86-7.203 9.495-3.33 13.201-4.492-3.397-1.549-10.113 1.858-14.59l1.472 1.389z" fill="#132759"/><path d="M898.565 98.98s6.969 2.007 6.272 11.117c-.697 9.11-8.983 33.274-16.495 34.432-7.434 1.158-14.482-8.801-15.411-13.974-1.007-5.404 0-13.51 0-13.51s4.879-32.424 25.634-18.065z" fill="#FD9B9B"/><path d="M863.868 128.239s1.394 2.239 3.639 0c0 0 5.344-5.25 2.324-10.422-3.021-5.173-7.667-12.275-5.344-20.381 2.323-8.107 12.314-6.408 12.314-6.408s3.639-12.43 16.96-5.945c0 0 3.097-2.316 11.151-.617 8.055 1.698 5.421 5.79 10.223 5.79 4.801 0 6.04-3.551 4.337-5.327 0 0 7.434 4.94 7.434 11.58 0 6.639-12.468 4.941-12.468 4.941s9.758 2.934 1.471 5.945c-8.286 3.01-12.003 2.316-15.953-2.934-3.95-5.327-6.273-6.794-8.906-6.099-2.633.695-2.633 6.253-6.505 6.253-3.795 0-7.822 9.419-7.822 9.419s-2.71-1.39-3.717 5.481c-1.007 6.948-.697 11.271-5.034 11.271-4.259.078-4.104-2.547-4.104-2.547z" fill="#011C2D"/><path d="M876.019 105.773c-2.168-.617-7.667.155-4.414 7.798 3.252 7.643 8.286 1.003 8.286-2.162 0-3.088-2.168-5.172-3.872-5.636z" fill="#FD9B9B"/><path d="M895.388 119.052c-1.162 4.091-1.781 8.106-3.33 11.811-.929-.154-1.936-.231-2.943-.308 1.549.772 2.865 1.235 3.408 1.544.154-.232 2.633-5.25 2.865-13.047zm-1.471-1.467c-.232 0-.465-.231-.465-.463 0-.077-.232-1.853-2.168-3.011-1.704-1.081-6.428-.617-8.131-.386-.31.077-.543-.154-.543-.386a.42.42 0 01.388-.54c.232 0 6.427-.927 8.751.54 2.4 1.467 2.633 3.706 2.71 3.783-.077.154-.232.386-.542.463z" fill="#132759"/><path d="M883.694 131.713s6.737 3.474 10.996 3.165c0 0-1.239 3.088-3.794 3.629-2.556.54-7.202-1.699-7.202-6.794z" fill="#fff"/><path d="M872.46 109.634s-.387 4.941 2.014 5.327c2.4.308 3.562-3.243 2.246-5.327-1.317-2.008-4.26-1.39-4.26 0z" fill="#FD7B77"/><path d="M890.101 120.536c-.739-.213-1.117-1.15-.843-2.092.274-.942 1.096-1.532 1.835-1.318.74.213 1.117 1.15.843 2.092-.274.942-1.096 1.532-1.835 1.318zm9.661 2.311c-.74-.213-1.118-1.15-.844-2.092.273-.942 1.094-1.533 1.834-1.319.74.213 1.117 1.15.844 2.092-.274.942-1.095 1.533-1.834 1.319zm-1.277-4.722c-.232.155-.232.464-.077.695.077.155.232.155.387.155.077 0 .232 0 .31-.078.619-.463 2.4-1.775 3.639-1.775.31 0 .62 0 .852.077.078-.309.155-.618.233-1.004-.388-.077-.697-.077-1.085-.077-1.858 0-4.182 1.93-4.259 2.007z" fill="#132759"/><path d="M934.886 126.772s-6.428 2.471-1.239 16.444c6.35 17.062 23.233 22.929 15.024 31.189-8.209 8.184-7.125 42.847 22.381 34.818 0 0-15.953-1.698-12.468-11.117 3.485-9.418 16.882.695 16.882-10.036s-6.273-5.636-8.673-17.834c-2.401-12.197 4.491-6.639 2.71-19.223-1.781-12.583-22.381-43.078-22.381-43.078l-12.236 18.837z" fill="#1B3753"/><path d="M933.573 120.828s2.633-5.636 3.794-4.4c1.24 1.235 1.782 9.573-2.478 10.345-4.259.772-1.316-5.945-1.316-5.945z" fill="#FC7575"/><path d="M933.723 121.522s1.317-3.088 2.091-2.316c.697.695-.077 5.559-1.006 5.559-1.007 0-1.317-1.699-1.085-3.243z" fill="#FD7B77"/><path d="M692.167 305.307l-36.514 123.59 10.548 122.778s-7.252 8.317-12.121 11.462c0 0 8.672 0 17.75.202 7.658.203 8.013-1.724 8.013-1.724l-2.84-13.338 2.84-119.431 38.543-102.949-26.219-20.59z" fill="#E9084E"/><path d="M741.1 291.665l-57.966 139.362v104.927h-20.438l-8.672-109.847 32.457-138.499 54.619 4.057z" fill="#011C2D"/><path d="M709.358 440.459l8.976-125.466 39.811-7.353-21.148 132.819 10.701 109.492 3.753 15.214s-5.832.761-7.962.761-20.59-2.283-20.59-2.283l12.729-11.106-26.27-112.078z" fill="#E9084E"/><path d="M764.02 297.7l-23.785 142.76 15.569 95.494h-28.146l-20.336-95.494-5.325-106.803 11.968-49.142L764.02 297.7z" fill="#011C2D"/><path d="M682.937 302.771l3.55-15.163 26.219 1.977 51.322 8.165-3.499 20.894c-12.932-11.004-32.71-16.076-50.308-18.865-9.027-1.471-19.373-1.42-27.284 2.992z" fill="#E9084E"/><path d="M748.71 163.004c-14.555-5.629-50.257-22.01-72.216-54.366-32.001-47.113-34.232-67.246-34.232-67.246s2.687-7.76 2.687-12.172c0-4.412 2.13-10.142-.507-10.142s-2.992 5.527-2.992 7.455c0 1.825-3.347 1.876-4.006-.558-1.37-5.122-.203-26.067-3.043-23.126-1.623 1.674-.913 17.142-.913 20.286 0 3.144-2.738-12.679-4.158-19.22-1.42-6.543-3.753-3.044-2.739.506 1.014 3.55 3.804 19.373 2.688 19.373-1.116 0-4.919-17.902-7.658-17.902-2.739 0-.254 2.992.456 5.832.66 2.79 5.123 11.36 3.348 13.186 0 0-7.557-10.7-7.81-9.027-.152.811 5.781 13.591 8.773 18.713 7.049 11.969 29.82 85.453 43.665 99.653 13.49 13.896 38.39 48.685 41.027 64.66 15.062-9.078 30.175-20.235 37.63-35.905z" fill="#FD9B9B"/><path d="M748.711 163.004c-7.455 15.671-22.568 26.828-37.681 35.906-1.978-11.867-16.279-34.232-29.059-50.613 4.513-7.201 8.013-14.909 10.396-20.843 20.539 20.133 44.933 31.138 56.344 35.55z" fill="#FD7B77"/><path d="M814.791 132.322c19.982-16.685 35.703-57.56 38.847-82.816.051-.558.304-2.485.102-2.992-1.572-4.362-8.013-14.352-5.325-17.446.558-.608 1.318-.71 1.927-.253.963.71.71 1.673 1.369 3.905.659 2.231 2.181 4.462 2.637 3.854 1.065-1.268-.608-17.649.355-22.01.507-2.18 2.232-2.739 2.587 4.108.101 2.028.101 4.21.101 6.187 0 4.716.71 7.76 1.014 6.542.913-3.651.812-21.96 3.55-22.415 1.37-.203-.152 19.575-.101 24.393 2.333-5.173 1.724-23.328 4.158-20.843 1.522 1.572.406 17.293-.405 20.843-1.015 4.31 1.268 0 2.383-2.231.913-1.826 2.282-9.535 3.804-6.188 1.318 2.992-6.999 21.452-8.672 28.704-1.471 6.441-5.173 56.039-15.62 77.39-7.709 15.772-34.232 35.652-49.953 49.243l-17.446-25.458c10.447-5.224 22.771-12.628 34.688-22.517z" fill="#FD9B9B"/><path d="M695.859 128.265s-6.188 28.755-10.498 33.217c0 0 26.929 33.725 25.915 39.811-1.015 6.035-33.472 90.372-33.472 90.372s71.862 21.3 93.263 10.65c0 0 11.665-107.412 17.497-113.447 5.832-6.035 23.987-15.62 23.987-15.62s-13.54-26.929-13.54-31.696c0 0-27.944 14.453-35.094 17.445-25.966 10.802-64.204-28.298-68.058-30.732z" fill="#027CCD"/><path d="M677.761 291.665s37.427-83.881 36.159-92.756c-1.268-8.875-28.552-37.427-28.552-37.427s26.929 33.725 25.915 39.811c-1.065 6.035-33.522 90.372-33.522 90.372z" fill="#BFBFBF"/><path d="M737.201 549.291c1.522 2.384 3.043 8.216 0 11.36-3.042 3.144-11.41 3.956-11.41 3.956l-5.68-.355s6.948-3.855 9.534-7.912c.761-1.166 0-3.347 0-4.209-.051-3.854 5.832-5.629 7.556-2.84z" fill="#E6F7F1"/><path d="M749.986 552.131l2.688 17.851-15.519 2.181-20.996-.964-.507-3.854 12.425-9.23s3.702 4.209 11.309 2.029c7.608-2.181 10.6-8.013 10.6-8.013z" fill="#011C2D"/><path d="M747.698 548.278c.913-.558 3.956-.71 3.956 1.725 0 2.434-6.39 12.171-15.366 12.171-8.977 0-10.143-2.84-8.672-4.057 1.47-1.217 8.672.507 10.852-.355 2.13-.862 6.39-7.81 9.23-9.484zM737.2 569.019c2.992 0 11.411-4.462 15.265-6.44l.254 7.404-15.519 2.181-22.365-1.065.863-3.804c4.716.507 18.155 1.724 21.502 1.724z" fill="#027CCD"/><path d="M736.086 558.015l-1.471 8.165-14.504-2.13 9.483-7.709 6.492 1.674z" fill="#fff"/><path d="M734.612 560.093a.82.82 0 00.812-.71c.05-.456-.254-.912-.71-.963l-5.934-1.014c-.456-.102-.862.253-.963.71-.051.456.253.912.71.963l5.933 1.014h.152zm-2.082 4.158a.82.82 0 00.811-.71.862.862 0 00-.659-1.014l-8.013-1.572c-.457-.102-.862.202-.964.71a.862.862 0 00.66 1.014l8.012 1.572h.153z" fill="#027CCD"/><path d="M666.657 545.793c1.521 2.384 3.093 8.267 0 11.462-3.094 3.195-11.512 4.006-11.512 4.006l-5.731-.355s6.999-3.905 9.585-7.962c.761-1.217 0-3.347 0-4.26.051-3.905 5.934-5.629 7.658-2.891z" fill="#E6F7F1"/><path d="M679.584 548.682l2.738 18.004-15.62 2.231-21.147-.963-.507-3.905 12.526-9.281s3.702 4.26 11.411 2.079c7.657-2.231 10.599-8.165 10.599-8.165z" fill="#011C2D"/><path d="M677.254 544.779c.964-.558 4.007-.71 4.007 1.724s-6.441 12.273-15.468 12.273c-9.027 0-10.244-2.891-8.773-4.108 1.47-1.217 8.722.507 10.954-.355 2.18-.812 6.44-7.81 9.28-9.534zm-10.598 20.943c3.043 0 11.461-4.513 15.366-6.491l.609 8.925-15.975.761-22.517-.406.862-4.462c4.767.405 18.308 1.673 21.655 1.673z" fill="#027CCD"/><path d="M665.592 554.617l-1.522 8.216-14.605-2.13 9.585-7.76 6.542 1.674z" fill="#fff"/><path d="M664.062 556.695a.82.82 0 00.812-.71c.05-.456-.254-.912-.711-1.014l-5.984-1.014c-.456-.102-.862.253-.963.71-.051.456.253.913.71 1.014l5.984 1.014h.152zm-2.079 4.21a.818.818 0 00.811-.71.86.86 0 00-.659-1.014l-8.114-1.572a.79.79 0 00-.964.71.862.862 0 00.66 1.014l8.114 1.572c.051-.051.101 0 .152 0z" fill="#027CCD"/><path d="M758.349 144.596c.558-.406 7.556-20.033 7.556-20.033s4.615-14.707 1.471-17.039c-3.144-2.333-10.65-10.6-17.141-10.498-6.492.101-10.802 2.333-11.36 2.738-.558.406-4.666 8.216-4.666 8.216s1.927-2.637 3.043 6.846c1.116 9.484 21.097 29.77 21.097 29.77z" fill="#381A3F"/><path d="M742.019 144.29c.812 2.435-8.875 17.649-3.702 21.909 1.674 1.369 24.343 13.084 24.546-2.891.152-15.975-1.522-34.638-1.522-34.638l-19.322 15.62z" fill="#FD9B9B"/><path d="M762.103 140.082c-2.941 11.005-15.924 23.429-24.901 18.713 1.37-5.883 5.275-12.881 4.768-14.504l19.271-15.671c.051.254.456 4.666.862 11.462z" fill="#FD7B77"/><path d="M761.848 114.015c2.485 6.288 2.738 17.953-2.84 26.98-5.579 9.027-13.338 13.895-19.018 9.635-5.68-4.26-7.607-32.102-3.652-39.404 3.956-7.354 21.757-6.796 25.51 2.789z" fill="#FD9B9B"/><path d="M762.149 140.791s1.166-9.179 4.361-11.512c3.246-2.333 4.666-3.753 5.224-6.998.558-3.246 11.36-5.832 9.534-11.056-1.826-5.223-10.346-7.404-14.808-16.431-4.412-9.078-9.18-13.997-19.17-10.245-10.042 3.753-11.36 10.397-11.36 10.397s-4.463-.66-7.1 5.173c-2.637 5.832-.659 9.027 1.116 11.613 0 0-.457-7.556 1.927-7.1 2.434.457.101 8.824.101 8.824s3.55-3.296 7.354-8.367c3.803-5.072 2.89.71 1.876 6.998-1.065 6.289 7.404.102 11.157-4.564s9.23-.659 11.309 5.68c2.08 6.339-6.339 16.735-1.521 27.588z" fill="#446393"/><path d="M760.072 124.106s3.449-6.643 5.325-3.905c1.877 2.739.457 11.31-3.448 11.512-3.855.254-1.877-7.607-1.877-7.607z" fill="#FC7575"/><path d="M762.097 124.512s-.203-3.753 1.724-2.586c1.927 1.166.102 7.353-1.673 7.252-1.775-.102-.051-4.666-.051-4.666z" fill="#FD7B77"/><path d="M741.963 123.498a25.786 25.786 0 00-1.369 5.427c-.507 4.006.101 5.731.152 5.984.456-.101 1.572-.304 3.094-.811-.964 0-1.928.05-2.942.152l.355.253c-.203-3.6.406-7.252.71-11.005z" fill="#172866"/><path d="M746.787 124.309c-.203 1.167.304 2.181 1.065 2.333.761.152 1.572-.659 1.724-1.826.203-1.166-.304-2.18-1.065-2.332-.76-.153-1.572.659-1.724 1.825zm-10.651-1.217c-.202 1.166.305 2.18 1.065 2.333.761.152 1.573-.66 1.725-1.826.203-1.167-.305-2.181-1.065-2.333-.761-.152-1.572.659-1.725 1.826z" fill="#2846A6"/><path d="M752.772 121.216s-1.674-3.043-4.412-3.499c-2.739-.507-1.876 1.927-1.217 2.079.659.152 5.731.812 5.629 1.42zm-13.036-4.615s-3.195 1.167-3.803 2.79c0 0 3.398-.457 4.006-1.319.609-.913-.203-1.471-.203-1.471z" fill="#172866"/><path d="M740.393 139.726l.964 5.63s5.274-3.652 8.469-6.898l-9.433 1.268z" fill="#fff"/><path d="M132.368 221.894c11.466-3.452 39.788-13.845 58.252-36.811 26.916-33.474 29.657-48.304 29.657-48.304s-1.7-5.909-1.459-9.199c.196-3.277-1.145-7.643.912-7.511 2.057.133 2.041 4.278 1.934 5.703-.016.486.259.798.633.941.977.417 2.133-.129 2.482-1.183.348-1.055.744-2.845.931-5.976.437-6.567 1.347-12.44 2.515-11.111 1.169 1.33-.145 12.799-.297 15.15-.151 2.351 2.754-9.296 4.14-14.091 1.431-4.807 3.012-2.093 2.062.517-.951 2.609-3.867 14.211-2.985 14.268.881.057 4.649-13.069 6.808-12.915 2.102.12.062 2.246-.602 4.299-.663 2.053-4.483 8.211-3.234 9.663 0 0 6.344-7.544 6.472-6.326.064.609-5.118 9.822-7.671 13.48-5.981 8.556-27.136 62.085-38.443 71.996-11.039 9.648-38.633 40.362-52.764 40.279-11.332-7.562-10.112-11.158-9.343-22.869z" fill="#FD8481"/><path d="M138.987 160.154s-12.877 2.668-14.16 15.718c-1.283 13.05-1.842 66.164 23.164 53.417 6.117-3.103 18.226-22.951 13.978-34.882-4.216-11.988-18.766-35.797-22.982-34.253z" fill="#001429"/><path d="M132.026 224.056s13.542 43.576 13.926 60.761c.428 17.174-.515 20.36-.515 20.36s30.91 10.593 41.456 4.013c0 0 7.094-49.875 8.325-60.745 1.231-10.87-28.626-38.497-28.626-38.497s-29.174 14.47-34.566 14.108z" fill="#066EB8"/><path d="M157.442 193.673l11.789 27.039s3.878 3.939 8.124 10.189c5.822 8.579-28.369-9.722-28.369-9.722l-4.312-29.73 12.768 2.224z" fill="#FD8481"/><path d="M123.225 457.639s-12.62 25.704 7.869 81.117l3.772 10.198 10.431-2.794s-.652-73.48 4.47-80.698c5.076-7.171-26.542-7.823-26.542-7.823z" fill="#FD9B9B"/><path d="M32.235 341.691s26.636 56.064 31.292 60.768c4.657 4.656 8.056-30.361 8.056-30.361l-13.085-14.994s-18.346-21.933-19.837-21.933c-1.443-.046-6.426 2.701-6.426 6.52z" fill="#FD8481"/><path d="M69.117 358.733s7.264 10.478 15.46 8.801c8.195-1.676 25.192-67.101 64.26-72.456 0 0 31.432 18.673 39.069 14.436 0 0-27.94 144.26-24.82 163.817 0 0-34.272 11.362-49.266-6.752s-48.01-8.801-63.097-50.477c-6.006-16.624 2.701-52.433 18.394-57.369z" fill="#022D48"/><path d="M129.009 175.108l-4.181.764s-5.836 18.438-16.842 25.284c-11.051 6.858-10.159 19.576-2.379 25.714 7.791 6.182-6.235 8.142-2.928 16.131 3.364 8.022 19.298 25.015 26.304 1.694 7.006-23.32.026-69.587.026-69.587zm11.869-7.41l21.301 5.371s3.896-.929 2.758-5.252c-1.138-4.323-6.969-7.266-12.484-8.463-5.47-1.208-11.822-.643-11.822-.643l.247 8.987z" fill="#001429"/><path d="M146.412 161.282s7.525-.681 10.362 2.231c2.837 2.913 5.523 10.921 7.925 12.36 2.446 1.426 4.218 1.393 4.218 1.393s.733.77-.954 2.225c-1.688 1.456-.889 3.027.327 2.707 1.216-.32 1.313 2.062.439 2.581 0 0 1.142.133 1.213 1.318.071 1.185-.729 2.166.223 3.408.998 1.23 1.802 5.93-8.14 6.573 0 0-14.87.4-16.769-3.338-1.854-3.749-11.895-16.466-7.98-23.179 4.061-6.703 9.136-8.279 9.136-8.279z" fill="#FD9B9B"/><path d="M138.566 159.109s2.13-2.15 11.563-1.985c9.445.21 13.945 8.704 13.945 8.704s-7.213-5.083-10.771-4.146c-3.557.936-11.397 4.445-13.047 3.483-1.683-.905-1.69-6.056-1.69-6.056z" fill="#001429"/><path d="M139.733 158.417c1.216-.32 11.38 5.912 11.006 13.089-.385 7.132-6.154 5.521-8.844 8.107-2.69 2.586 3.227 9.696 3.507 13.137.28 3.441-3.636 24.6-3.636 24.6s-17.955-37.84-15.351-46.422c2.615-8.538 13.318-12.511 13.318-12.511z" fill="#001429"/><path d="M143.087 180.118s-3.98-4.875-4.887-3.384c-.863 1.479.71 9.829 5.054 9.504 4.401-.292-.167-6.12-.167-6.12z" fill="#FD9B9B"/><path d="M143.085 180.84s-2.101-2.673-2.631-1.763c-.531.91 1.479 5.437 2.425 5.188.945-.249.834-1.953.206-3.425zm16.316 2.542c-1.94.511-3.703.199-3.939-.696-.236-.895 1.146-2.035 3.086-2.546 1.94-.511 3.703-.199 3.939.696.236.896-1.146 2.036-3.086 2.546z" fill="#FD8481"/><path d="M136.679 226.009c9.786-6.91 32.476-22.418 42.726-50.06 14.916-40.281 12.765-55.22 12.765-55.22s-3.497-5.05-4.339-8.248c-.841-3.197-3.496-6.88-1.515-7.401 1.982-.522 3.262 3.427 3.618 4.777.13.496.459.65.9.678 1.086.1 2.001-.815 1.998-1.922-.002-1.107-.195-2.934-.989-5.951-1.683-6.395-2.682-12.2-1.146-11.303 1.536.895 3.924 12.16 4.529 14.457.604 2.296-.336-9.687-.545-14.688-.152-4.968 2.211-2.941 2.122-.173-.09 2.768.838 14.707 1.693 14.481.856-.225.302-13.85 2.329-14.384 2.026-.534.749 2.114.787 4.27.038 2.157-1.67 9.204-.02 10.166 0 0 3.601-9.182 4.147-8.026.244.562-1.739 10.955-2.985 15.184-2.948 10.021-6.028 67.459-13.637 80.441-7.41 12.64-23.824 50.524-37.255 54.927-13.055-3.497-12.195-10.658-15.183-22.005z" fill="#FD9B9B"/><path d="M143.264 186.282s6.945.772 5.448 15.756c-1.816 18.343-7.859 20.993 2.278 26.943 10.183 5.939 9.166 47.618-21.762 47.381 0 0 15.142-5.768 9.289-14.098-5.852-8.33-16.348 5.026-19.11-5.466-2.763-10.492 4.666-7.151 3.866-19.701-.8-12.55-6.076-5.334-7.568-18.135-1.492-12.801 10.72-47.989 10.72-47.989l16.839 15.309zm13.031-10.316s1.895-3.773 2.796-4.01c.901-.237 1.183.652 1.183.652l-3.979 3.358zm5.593-3.639s-2.313 2.006-3.143 3.428c-.829 1.422-.609 1.894-.609 1.894s2.121-2.918 3.062-3.551c.941-.633.69-1.771.69-1.771z" fill="#001429"/><path d="M161.438 177.02c-.348.092-.79-.439-.986-1.185-.197-.746-.074-1.425.274-1.517.349-.091.79.439.987 1.185.196.746.073 1.426-.275 1.517z" fill="#001429"/><path d="M28.648 320.457s-6.193 6.659-10.524 11.362c-4.33 4.656-11.828 11.595-13.97 13.969-2.188 2.329-4.516 15.926-2.188 17.043 2.328 1.118 8.987-6.984 14.761-9.126 5.728-2.142 18.999-3.4 18.906-5.449-.093-2.048 6.007-9.22 5.914-11.781-.187-2.654-10.617-16.065-12.9-16.018z" fill="#EBA708"/><path d="M30.184 324.974c-14.342 21.373-15.087 10.803-26.915 33.76 2.328-6.1 6.613-14.342 11.921-18.161 2.887-2.095 5.355-4.75 7.823-7.404s4.843-5.401 7.171-8.195zm-6.658 17.229c-.558-.047-.977.372-1.024.931-.093 1.909-.42 5.914-1.304 9.313.698-.139 1.397-.326 2.142-.465.931-4.145 1.118-8.429 1.118-8.708.046-.605-.373-1.071-.932-1.071zm4.005 1.676c-.512.14-.791.698-.652 1.211 0 .046.838 2.654.978 5.913.652-.139 1.35-.279 1.956-.419-.186-3.306-.978-5.867-1.071-6.053-.14-.512-.699-.792-1.21-.652z" fill="#FFF7CF"/><path d="M130.626 568.884s9.126-.326 15.459-.559c6.38-.233 16.578.14 19.744.047 3.167-.14 14.435-8.056 13.597-10.477-.838-2.422-11.315-1.444-16.856-3.958-5.588-2.562-15.833-10.99-17.23-9.5-1.397 1.49-10.756 2.282-12.526 4.191-1.723 1.816-3.865 18.719-2.188 20.256z" fill="#EBA708"/><path d="M132.767 564.6c25.285-4.936 18.3 3.073 42.887-4.797-5.96 2.655-14.808 5.448-21.28 4.424-3.539-.559-7.172-.419-10.757-.326-3.632.14-7.264.419-10.85.699zm16.809-7.451c.373.419.978.419 1.397.047 1.397-1.304 4.471-3.865 7.497-5.635-.605-.372-1.21-.791-1.862-1.164-3.586 2.282-6.752 5.169-6.985 5.355-.373.373-.373.978-.047 1.397zm-1.581-4.004c.466.233 1.072.046 1.304-.419 0-.047 1.304-2.468 3.493-4.843a33.323 33.323 0 00-1.677-1.071c-2.188 2.468-3.445 4.843-3.539 5.029-.232.466-.046 1.071.419 1.304z" fill="#FFF7CF"/><path d="M1200.31 179.053l4.86-3.396s-12.67-21.643-11.4-40.346c.71-9.833-14.85-24.38-19.01-22.149-.25-.102-13.84.304-15 32.489l-2.89 37.71 14.65 13.483s8.77-10.036 20.53-2.788c11.75 7.248 14.49-6.995 14.49-6.995s-6.23-4.561-6.23-8.008z" fill="#720329"/><path d="M1176.29 522.551c-1.12 1.469 7.69 29.195 7.69 29.195l-12.34 4.46-6.13-32.49 10.78-1.165z" fill="#FD7B77"/><path d="M1185.26 554.025c3.09 2.383 5.61-1.419 5.61-1.469-3.04-5.829-4.77-11.101-5.49-12.368-.8-1.419-1.92-3.294-4.72-1.368-2.81 1.926-5.17 6.031-4.09 6.893.72.558 4.05 4.764 8.69 8.312z" fill="#86B3C6"/><path d="M1165.87 565.48s7.42.102 12.58.203c5.17.102 13.42.912 16.03.963 2.6.051 12.06-6.741 11.46-8.971-.6-2.281-9.1-1.825-13.5-4.41-4.41-2.585-10.22-10.289-12.22-10.137-1.69.101-10.22 2.23-11.7 3.903-1.48 1.571-3.89 16.929-2.65 18.449z" fill="#011C2D"/><path d="M1203.78 556.205c-2.01.608-5.45 5.119-10.62 6.64-4.01 1.165-20.39-1.217-27.48-2.332-.2 2.534-.2 4.511.24 5.018 0 0 7.41.101 12.58.203 5.16.101 13.42.912 16.02.963 2.6.05 12.06-6.741 11.46-8.972-.2-.76-1-1.216-2.2-1.52zm-16.31.203a.858.858 0 01-.08-.304c.56-3.802 4.69-3.954 4.89-3.954.16 0 .28.152.32.304.04.203-.04.355-.2.355-.04 0-3.97.152-4.49 3.548-.04.152-.16.254-.32.152-.04.051-.08 0-.12-.101zm-2.01-2.737c-.04-.102-.08-.203-.08-.305.28-2.432 4.57-3.7 4.77-3.75.12-.051.32.101.36.253.08.203 0 .355-.12.406-1.16.354-4.25 1.571-4.45 3.345-.04.152-.16.253-.32.203-.04-.051-.12-.102-.16-.152zm-1.48-1.926a.448.448 0 01-.08-.254c.04-2.23 4.33-4.004 4.85-4.156.12-.051.28.051.36.254.08.152.04.354-.08.405-1.24.507-4.53 2.129-4.57 3.7 0 .203-.12.304-.28.254-.08-.102-.16-.153-.2-.203z" fill="#027CCD"/><path d="M1127.65 511.5c-1.6-.253-13.82 25.292-13.82 25.292l-10.22-9.782 16.87-25.698 7.17 10.188z" fill="#FD7B77"/><path d="M1113.11 539.478c.36 4.562 4.29 4.816 4.29 4.765 1.88-6.589 4.16-11.506 4.52-12.976.41-1.672.93-3.953-1.96-5.626-2.88-1.672-6.93-1.622-6.81 0 .08 1.065-.56 6.995-.04 13.837z" fill="#86B3C6"/><path d="M1094.28 526.706s4.37 7.552 7.45 12.823c3.05 5.271 7.49 14.141 9.02 16.777 1.52 2.636 11.49 8.16 12.54 6.184 1.08-1.977-4.33-10.29-5.33-16.321-1-6.032.36-16.524-.92-18.45-1.09-1.622-7.54-8.971-9.5-9.529-1.92-.405-13.06 6.336-13.26 8.516z" fill="#011C2D"/><path d="M1122.88 559.449c-1.6-1.673-6.49-2.433-10.53-6.741-3.17-3.346-11.46-21.339-15.03-29.246-1.72 1.267-2.96 2.484-3.04 3.244 0 0 4.37 7.552 7.45 12.823 3.05 5.272 7.49 14.142 9.02 16.777 1.52 2.636 11.49 8.161 12.54 6.184.32-.507.08-1.622-.41-3.041zm-9.93-16.321c.04-.102.08-.203.16-.254 2.72-1.723 5.33 2.383 5.41 2.585.08.152.08.406 0 .558-.08.152-.24.152-.32 0-.04-.051-2.49-3.954-4.93-2.382-.12.101-.24 0-.28-.203-.08-.152-.08-.203-.04-.304zm.52-3.65c.04-.101.08-.203.12-.254 1.72-1.165 5.09 2.433 5.21 2.585.12.102.12.355.04.507-.08.152-.2.203-.32.102-.92-.963-3.57-3.346-4.77-2.535-.12.102-.24 0-.32-.202.04-.051.04-.152.04-.203zm.36-2.686c0-.101.04-.203.12-.253 1.44-1.318 5.13 1.977 5.53 2.382.12.101.16.355.08.507-.08.203-.2.253-.32.152-1.08-.963-4.05-3.345-5.09-2.382-.12.101-.24.05-.32-.152-.04-.051-.04-.152 0-.254z" fill="#027CCD"/><path d="M1181.9 535.789c-2.92-20.584 7.23-71.588 13.43-94.048 6.43-23.322 10.51-122.085 10.51-122.085l-7.31-10.85-29.78-2.281s12.67 49.483 12.67 66.467c0 16.985-10.07 58.102-17.31 80.917-6.67 21.041 0 67.989 2 82.489 5.44 1.166 10.55.76 15.79-.609z" fill="#022D48"/><path d="M1161.38 311.258c-1.35 1.723-9.32 13.791-9.32 22.208 0 8.417 15.02 84.17 11.43 88.785-3.62 4.614-37.49 27.786-41.47 44.113-3.82 15.566-9 40.462-12.87 47.054 3.63 7.707 11.16 7.454 17.37 10.141 1-6.896 1.32-6.744 4.94-15.871 8.01-20.129 47.21-56.13 52.75-70.429 5.53-14.299 8.56-79.606 11.35-88.277 2.79-8.671 10.28-30.727 10.28-30.727l-44.46-6.997z" fill="#03446D"/><path d="M1206.69 255.335s23.32 26.661 49.12 36.696c4.05 1.572 7.5 4.613 7.5 4.613 0 2.737-5.43-.507-5.43-.507s2.23 3.903 1.37 7.147c-.86 3.243-6.49 1.064-9.53 1.064-1.42 0-8.61-8.059-18.29-12.824-11.51-5.626-25.04-11.1-26.72-12.772-3.09-3.041 1.07-24.431 1.98-23.417z" fill="#FD7B77"/><path d="M1159.3 180.32s23.47-2.382 35.69 5.424c12.21 7.805 20.07 35.682 20.07 47.594 0 11.911-8.82 74.457-5.43 86.368 0 0-38.77-1.723-52-1.723-13.23 0-16.02-5.069-16.02-5.069s27.53-27.218 27.53-39.079c0-11.911-9.84-93.515-9.84-93.515z" fill="#011C2D"/><path d="M1240.7 301.003c-2.78-2.788-15.81-7.147-25.64-14.294-4.36-3.142-12.73-7.298-20.89-11.809-5.98 3.294-11.35 7.45-15.35 12.418 14.75 6.792 30.76 13.634 33.2 16.067 4.61 4.612 12.57 14.952 14.44 14.952 1.88 0 16.07-4.156 18.2-6.285 2.08-2.129-1.12-8.211-3.96-11.049z" fill="#FD9B9B"/><path d="M1194.12 274.9c-10.29-5.677-20.22-11.962-21.24-17.588-1.87-10.036 6.64-53.372 1.88-61.684-4.77-8.313-15.46-15.308-15.46-15.308-1.72 0-7.81 3.751-9.53 11.202-1.72 7.501 1.37 74.812 3.04 80.894.81 2.889 12.42 14.294 25.5 20.325 4.05-4.916 9.88-14.547 15.81-17.841z" fill="#022D48"/><path d="M1183.83 154.318c.61.609.61 18.349 2.99 23.265 0 0 6.24 25.343 1.98 25.85-3.7.456-17.03-20.426-17.74-23.924-.96-4.714 0-28.232 0-28.232l12.77 3.041z" fill="#FD9B9B"/><path d="M1184.54 162.884c-5.07 3.599-9.83 1.115-13.74-4.916v-.203c.11-3.244.21-6.285.21-6.488l12.77 3.092c.3.254.46 4.004.76 8.515z" fill="#FD7B77"/><path d="M1184.44 114.48s7.1 1.419 7.96 7.755c.86 6.335 2.02 11.607.86 19.007-1.17 7.4-5.42 17.233-12.37 18.804-6.94 1.571-14.24-10.39-14.24-16.878 0-6.488-2.54-17.385 2.18-24.076 4.81-6.69 15.61-4.612 15.61-4.612z" fill="#FD9B9B"/><path d="M1176.43 148.54c3.75 1.673 9.28 1.724 9.28 1.724s-.41.811-1.07 1.622c-1.62-.102-4.81-.406-7.4-1.369a10.944 10.944 0 01-.81-1.977z" fill="#fff"/><path d="M1177.24 150.568c2.64.963 5.78 1.267 7.4 1.368-2.63 3.244-5.47 2.484-7.4-1.368z" fill="#2E0028"/><path d="M1184.44 114.48s7.1 1.419 7.96 7.755c.76 5.727 1.82 10.593 1.11 16.979-1.11-.811-2.73-1.622-5.02-2.382-7.75-2.635-14.69-18.247-15-18.906l-.1-.253v-.304c-.05-.608.05-1.267.2-1.926 5.02-2.078 10.85-.963 10.85-.963z" fill="#FD5E5A"/><path d="M1184.54 144.283c-.2-2.028-.3-4.055-.3-6.083.46 2.585.56 4.461.66 6.336-1.02.304-2.28.912-3.85.304 1.21.203 2.38-.101 3.49-.557zm-3.85-6.235c-.35-1.166-1.32-2.281-2.64-2.635-2.33-.609-3.75 2.838-5.32 2.787 1.17.609 2.99-1.419 4.21-1.926.66-.304 1.27-.101 1.98.254.66.304 1.21.861 1.77 1.52z" fill="#172866"/><path d="M1177.6 138.302c.61 0 1.11-.59 1.11-1.318 0-.728-.5-1.318-1.11-1.318-.62 0-1.12.59-1.12 1.318 0 .728.5 1.318 1.12 1.318zm8.26.456c.4-1.166 1.42-2.23 2.74-2.534 2.33-.507 3.59 2.99 5.22 3.041-1.17.557-2.89-1.571-4.16-2.129-.66-.304-1.27-.152-1.98.152-.66.355-1.26.862-1.82 1.47z" fill="#172866"/><path d="M1190.07 137.947c-.05.709-.56 1.318-1.17 1.267-.61-.051-1.11-.659-1.06-1.369.05-.709.55-1.317 1.16-1.267.66 0 1.12.609 1.07 1.369zm-8.57-5.525c.25-.152-1.77-2.281-4.21-2.534-2.43-.254-5.06 2.534-5.06 2.534s3.59-2.23 5.06-1.52c1.57.709 2.79 2.432 4.21 1.52z" fill="#172866"/><path d="M1178.21 142.762c-.31.963-2.03 1.267-3.81.608-1.77-.608-2.99-1.926-2.68-2.889.3-.963 2.02-1.267 3.8-.608 1.82.659 2.99 1.926 2.69 2.889zm14.44-.456c.15.912-1.01 1.875-2.58 2.129-1.57.253-2.94-.304-3.09-1.217-.16-.912 1.01-1.875 2.58-2.129 1.57-.253 2.94.305 3.09 1.217z" fill="#FD7B77"/><path d="M1178.15 109.158c-5.17.608-13.38-.71-17.23 8.109-2.28 4.967-6.89 14.598-6.89 31.679 0 25.444-23.67 36.747-23.67 36.747l10.39 5.221 6.18-5.221-4.2 9.326 16.97 1.774.71-12.215 3.5 13.888 10.19-1.673s-5.37-41.664-5.73-57.376l.1.101c-.15-12.215-.66-18.753 6.44-22.251 3.7-1.824 17.08 3.396 17.08 3.396-.4-8.059-8.61-12.114-13.84-11.505z" fill="#B80543"/><path d="M1185.1 110.577c6.54 1.47 8.47 11.911 13.84 17.436 5.32 5.524 4 13.533 1.42 18.804-2.54 5.271-6.59 1.825-6.59 1.825s2.13 1.216 3.5-3.143c1.36-4.41-1.02-7.805-8.22-10.289-7.19-2.484-14.04-17.993-14.04-17.993-.2-3.042 3.6-8.11 10.09-6.64z" fill="#B80543"/><path d="M1193.77 148.692c2.48 1.521 5.98-4.764 3.39-8.87-1.82-3.193-5.88-4.511-9.12-5.879-5.12-3.041-10.09-11.506-13.08-16.676 2.18 6.184 6.74 14.699 12.32 18.095l1.32.608c1.36.558 5.52 1.723 7.55 4.562 1.62 2.23.86 5.626-.26 7.299-.4.659-1.26 1.216-2.12.861z" fill="#003135"/><path d="M1169.89 140.279s-1.82-8.161-4.81-6.184c-3.04 1.977.2 10.999 3.04 10.999 2.79 0 1.77-4.815 1.77-4.815z" fill="#FD9B9B"/><path d="M1166.95 135.767s4.46 7.4 1.42 6.589c-3.04-.811-4.25-7.957-1.42-6.589z" fill="#FD7B77"/><path d="M1241.97 298.063s4.86 6.995 6.33 6.995c1.47 0 9.08.456 10.29-.71 1.22-1.216-4.3-10.238-6.28-10.238-1.98 0 2.33 5.98 1.82 6.487-.5.507-4.76-9.478-6.94-8.515-2.18.912 4.26 7.907 3.55 8.617-.71.709-5.32-7.907-7.1-7.907-1.77 0 4.16 7.805 3.55 8.414-.66.608-4.41-3.954-5.22-3.143z" fill="#FC7575"/><path d="M299.421 537.522l2.77 14.425 11.398 1.417v-2.511l-7.084-19.256-7.084 5.925zm92.091-.386l3.864 16.229 10.948 1.738-3.091-18.353-11.721.386z" fill="#2B434D"/><path d="M279.136 125.044c-3.22-3.22-21.059-44.306-21.638-46.947-.58-2.64.451-13.717 1.095-16.55.708-2.963 1.738-7.406.966-7.406-.773 0-1.868 5.796-2.576 6.504-.709.708-.966.644-.065-5.152.837-5.796.258-6.89-.579-6.89-.838 0-1.546 11.012-1.997 10.625-.451-.45-.515-9.724-.515-11.463 0-1.739-.837-1.867-1.61-1.095-.258.258-.386 1.932-.451 4.058.322 3.864 0 9.981 0 9.981s-.129-5.796 0-9.981c-.129-1.804-.451-3.092-1.03-3.092-1.739 0-1.352 15.328-1.352 17.066 0 1.739-2.576 3.478-3.8 2.254-1.224-1.223-.064-4.765-1.546-6.247-1.481-1.48-3.091 3.864-1.867 7.47 1.223 3.607 7.921 7.6 9.982 16.358 2.06 8.758 11.205 38.575 20.479 55.835 8.758 16.228 36.514 28.078 47.848 37.544 1.546-6.311 2.963-12.622 4.702-18.74-29.753-10.433-43.341-31.491-46.046-34.132z" fill="#9C5222"/><path d="M333.039 158.983c-14.104-3.606-28.529 4.765-32.2 18.869-.322 1.095-.58 2.318-.966 3.542-5.474 19.835 11.399 53.323 9.402 70.324 0 0 20.093 1.352 34.519-1.417 0 0 16.808-75.991 13.91-78.181-6.183-4.83-13.524-10.304-24.665-13.137z" fill="#E40653"/><path d="M317.452 357.14l-15.906-39.606-26.791 13.331s-21.638 93.186-21.638 100.591c0 7.342 41.602 103.297 43.534 115.79l20.737-2.833c-1.159-1.674-34.84-95.826-37.159-107.161-2.254-11.398 37.223-80.112 37.223-80.112z" fill="#344B70"/><path d="M319.9 567.468s-7.728 1.739-13.137 2.898c-5.41 1.223-13.846 3.735-16.551 4.379-2.705.579-13.91-3.606-13.717-5.796.193-2.254 9.145-3.671 13.266-7.02 4.122-3.348 10.884-12.686 12.365-11.72 1.481.966 9.531-.451 11.399.772 1.932 1.095 7.47 14.812 6.375 16.487z" fill="#022D48"/><path d="M317.196 564.313c-22.282 1.417-14.683 6.569-37.029 5.409 5.602.966 13.652 1.288 18.804-.966 2.834-1.223 5.925-1.932 8.952-2.64 3.091-.708 6.182-1.288 9.273-1.803zm-15.777-2.576c-.193.451-.708.58-1.159.387-1.481-.773-4.637-2.254-7.535-3.091.451-.451.837-.902 1.288-1.417 3.478 1.095 6.826 2.833 7.02 2.962.45.258.579.773.386 1.159zm.452-3.671c-.322.322-.902.258-1.224-.064 0 0-1.61-1.803-3.992-3.349.386-.451.772-.901 1.159-1.288 2.383 1.61 3.928 3.349 4.057 3.478a.79.79 0 010 1.223z" fill="#EBA708"/><path d="M408.968 571.203s-7.921.129-13.459.193c-5.539.065-14.361.838-17.13.902-2.77.064-12.88-6.376-12.236-8.501.644-2.125 9.724-1.739 14.425-4.186 4.701-2.447 13.202-10.239 14.49-8.951 1.288 1.223 9.402 1.481 11.012 3.091 1.61 1.61 4.315 16.035 2.898 17.452z" fill="#022D48"/><path d="M406.974 567.532c-22.089-3.22-15.713 3.413-37.351-2.318 5.28 2.06 13.073 4.057 18.611 2.898 3.027-.644 6.182-.709 9.338-.773l9.402.193zm-14.938-5.667c-.322.386-.837.386-1.224.129-1.288-1.031-4.057-3.156-6.761-4.573.515-.386 1.03-.708 1.545-1.094 3.22 1.803 6.054 4.186 6.247 4.379.451.193.515.773.193 1.159zm1.226-3.541c-.386.258-.901.129-1.159-.322 0-.064-1.224-2.061-3.22-4.057.451-.322.966-.709 1.417-1.031 1.996 2.061 3.22 4.058 3.284 4.186.193.451.065.966-.322 1.224z" fill="#EBA708"/><path d="M363.372 452.708l-24.665-131.761-44.886-4.186 3.349 44.887 40.636 103.168s54.353 81.594 54.481 82.366h17.71c-3.799-3.735-46.625-94.474-46.625-94.474z" fill="#446393"/><path d="M326.599 309.291c-.387 0-.644-.258-.709-.644l-.837-5.152c-.064-.387.193-.773.644-.837.387-.065.773.193.837.644l.838 5.152c.064.386-.194.772-.644.837h-.129z" fill="#889BA3"/><path d="M402.527 545.122a.707.707 0 01-.644-.387l-5.152-9.145c-.194-.386-.065-.837.257-1.03.322-.193.837-.064 1.031.258l5.152 9.144c.193.387.064.837-.258 1.031-.129.128-.258.129-.386.129zm-10.304-18.226a.706.706 0 01-.644-.386l-5.152-9.145c-.193-.386-.065-.837.257-1.03.387-.193.838-.064 1.031.258l5.152 9.144c.193.387.064.838-.258 1.031-.129.064-.258.128-.386.128zm-10.24-18.289a.71.71 0 01-.644-.386l-5.152-9.145c-.193-.386-.064-.837.258-1.03.322-.194.837-.065 1.03.257l5.152 9.145c.193.386.065.837-.257 1.03-.194.129-.322.129-.387.129zm-10.368-18.161a.707.707 0 01-.644-.386c-1.803-3.155-3.542-6.182-5.152-9.08-.193-.387-.064-.837.258-1.031.386-.193.837-.064 1.03.258a516.66 516.66 0 015.152 9.08c.193.387.064.838-.258 1.031-.129.064-.257.128-.386.128zm-10.368-18.225a.706.706 0 01-.644-.386c-1.997-3.478-3.8-6.569-5.217-9.08-.193-.387-.064-.837.258-1.031.386-.193.837-.064 1.03.258 1.481 2.512 3.22 5.603 5.217 9.08.193.387.064.837-.258 1.031-.129.064-.258.128-.386.128zm-9.982-18.353a.756.756 0 01-.709-.58c-.45-2.061-1.094-5.538-1.996-10.304-.064-.386.193-.773.579-.837.387-.064.773.193.838.58.901 4.765 1.545 8.243 1.996 10.303.064.387-.193.773-.58.902 0-.064-.064-.064-.128-.064zm-3.864-20.608c-.387 0-.644-.258-.709-.644-.579-3.22-1.159-6.633-1.803-10.304-.064-.386.193-.773.58-.837.386-.065.773.193.837.579.644 3.671 1.224 7.084 1.803 10.304.065.387-.193.773-.579.837-.065.065-.065.065-.129.065zm-3.542-20.672c-.387 0-.644-.258-.709-.644a1709.53 1709.53 0 01-1.738-10.304c-.065-.387.193-.773.579-.837.387-.065.773.193.837.579.58 3.542 1.16 6.955 1.739 10.304.065.386-.193.773-.579.837-.065.065-.129.065-.129.065zm-3.542-20.608c-.387 0-.644-.258-.709-.644l-1.738-10.304c-.065-.386.193-.773.579-.837.387-.065.773.193.837.579l1.739 10.304c.065.387-.193.773-.579.837-.065.065-.065.065-.129.065zm-3.478-20.672c-.386 0-.644-.258-.708-.644l-1.739-10.304c-.064-.387.193-.773.644-.837.386-.065.773.193.837.644l1.739 10.303c.064.387-.193.773-.58.838h-.193zm-3.413-20.673c-.386 0-.644-.257-.708-.644l-1.739-10.303c-.065-.387.193-.773.644-.838.386-.064.773.194.837.644l1.739 10.304c.064.387-.193.773-.644.837h-.129zm-3.477-20.672c-.387 0-.644-.257-.709-.644l-1.674-10.368c-.065-.386.193-.773.644-.837.386-.065.773.193.837.644l1.674 10.368c.065.386-.193.773-.644.837h-.128z" fill="#BFBFBF"/><path d="M303.932 273.099s23.119 8.243 33.037 8.243c9.917 0 14.554 5.474 19.384-1.417 3.735-5.345-6.698-27.627-12.494-29.623-1.159-.387-53.644-7.922-53.644-7.922l13.717 30.719z" fill="#5B567F"/><path d="M264.645 211.404l-6.891-4.251 1.417 70.711 26.146 8.436-20.672-74.896z" fill="#B96E16"/><path d="M257.759 198.395s24.793-13.524 42.181-13.524c0 0 19.642 44.629 28.207 62.467 8.565 17.839 15.971 81.852 15.971 81.852l-75.862 4.508s12.429-40.185 8.5-52.357c-4.057-12.171-25.502-67.555-18.997-82.946z" fill="#EBA708"/><path opacity=".63" d="M260.395 230.595c1.416 5.667 3.091 11.463 4.829 17.066 2.898 1.803 6.634 3.348 11.399 4.379 19.127 4.121 44.887 6.44 54.997 5.538-1.159-4.121-2.383-7.663-3.606-10.175-1.353-2.834-2.963-6.375-4.766-10.239l-62.853-6.569z" fill="#DB8E16"/><path d="M261.813 267.174s-20.221-.644-15.778 11.012c4.444 11.592 72.192 57.895 74.575 63.82 2.383 5.924.966 23.699 5.924 27.691 4.959 3.993 23.442-11.398 18.934-15.069-4.508-3.671-19.771-22.089-23.699-31.749-3.864-9.66-42.954-55.705-59.956-55.705z" fill="#723C19"/><path d="M313.784 341.168l7.342 18.354c2.962 7.406 2.061 14.619 11.849 12.493 9.789-2.125 18.483-8.693 17.517-13.845-.966-5.217-14.554-12.945-16.486-17.71-1.932-4.83-5.345-5.732-6.247-3.607-.902 2.126-13.975 4.315-13.975 4.315z" fill="#FDFDFD"/><path d="M325.702 370.921c2.254 1.159 4.637.515 7.213-.386 5.41-1.868 16.937-6.762 17.581-12.43.644 1.224.451 2.898-.064 4.186-3.8 9.532-21.445 14.426-24.73 8.63zm9.142-25.373c2.382 6.117-5.281 11.269-10.111 6.761a.901.901 0 00-.258-.193c-7.599-7.341-8.887-9.66-10.497-11.398-1.803-1.868-4.25-4.508-.322-8.63 3.929-4.122 11.013-6.697 11.914-4.508.58 1.481 5.603 8.694 9.274 17.968z" fill="#011C2D"/><path d="M313.656 332.088c-3.928 4.121-1.481 6.697.322 8.629 1.61 1.675 2.898 4.058 10.497 11.399.065.064.129.129.258.193.451.387.902.709 1.352.966-.128-.129-.257-.193-.386-.322a.883.883 0 00-.258-.193c-7.599-7.341-8.887-9.66-10.497-11.399-1.803-1.867-4.25-4.508-.322-8.629 3.22-3.349 8.565-5.732 10.884-5.216-.966-2.061-7.921.45-11.85 4.572z" fill="#fff"/><path d="M326.215 353.404s-5.023-13.652-7.212-13.395c-2.19.258-5.281 1.224-5.281 1.224s6.44 13.202 9.66 14.619c3.284 1.288 2.833-2.448 2.833-2.448z" fill="#011C2D"/><path d="M333.297 339.172c.064.193.064.386-.065.515-3.864 6.247-13.073 5.216-13.459 5.152-.322-.065-.58-.322-.515-.644.064-.322.322-.58.644-.515.064 0 8.822.966 12.3-4.637.193-.258.515-.387.837-.193.129.128.193.257.258.322zm2.514 5.281c.064.193.064.322-.064.515-2.319 4.057-12.623 4.83-13.073 4.894-.322 0-.58-.193-.644-.515 0-.322.193-.644.515-.644 2.833-.193 10.432-1.352 12.107-4.25.193-.258.515-.387.837-.194.129 0 .258.129.322.194zm1.93 3.799a.554.554 0 010 .451c-1.61 3.8-12.3 5.41-13.524 5.603-.322.064-.644-.193-.644-.515-.064-.322.193-.644.515-.644 3.092-.451 11.463-2.19 12.623-4.895.128-.322.45-.45.772-.322.065.065.194.129.258.322z" fill="#fff"/><path d="M326.151 359.651s.451 7.921 2.318 8.758c1.868.838 19.256-6.44 18.096-9.466-1.223-3.027-7.534-7.406-9.273-7.213-1.739.064-11.141 7.921-11.141 7.921z" fill="#BFBFBF"/><path d="M355.385 171.154s8.436.838 6.698 15.328c-1.224 10.175-23.635 52.421-23.635 52.421l-9.402-12.558c-.065 0 12.751-56.479 26.339-55.191z" fill="#723C19"/><path d="M336.581 225.185s-50.747 6.312-58.475 2.834c-7.663-3.478-14.812-16.035-15.842-14.425-2.254 3.413 3.606 6.955 2.962 9.209-.837 2.769-17.774-6.762-21.251-6.762-3.478 0 7.406 5.989 10.11 8.758 2.705 2.705-13.008-2.447-14.94-1.674-4.895 1.867 14.167 5.409 15.649 6.89 1.481 1.482-18.225-2.962-15.392-.064 1.224 1.224 16.358 2.383 15.392 3.284-.838.838-15.005-1.094-11.85 1.997.773.772 79.598 11.141 91.254 7.148 11.592-3.928 2.383-17.195 2.383-17.195z" fill="#9C5222"/><path d="M363.37 280.698s-4.186 4.637-5.216 10.433c-1.031 5.795-15.198 7.985-15.198 7.985l2.704-15.778 14.555-9.789 3.155 7.149z" fill="#FC7575"/><path d="M299.937 184.871c3.606-2.833 79.855 21.123 86.81 40.314 6.955 19.191-22.99 65.108-22.99 65.108l-8.244-16.229 5.41-32.843c-1.095-4.38-42.182-14.104-42.182-14.104s-27.885-35.098-18.804-42.246z" fill="#EBA708"/><path d="M299.871 183.584c-12.622-.065-31.556 8.307-42.117 14.812 11.077-5.152 29.752-12.494 42.053-12.172 5.345.129 12.042 1.739 17.065 3.478 16.036 5.087 63.047 20.157 69.874 35.484-6.118-19.062-70.968-41.602-86.875-41.602z" fill="#FFF7CF"/><path d="M350.299 257.449s12.3.966 13.073 12.107c.773 11.141-31.491 62.21-34.067 73.673-2.576 11.463-4.895 22.025-6.762 30.204-1.803 8.178-21.316 4.121-20.737 1.481.58-2.576 12.622-19.191 15.392-31.427 2.704-12.236 15.391-89.966 33.101-86.038z" fill="#9C5222"/><path d="M312.689 348.896s-4.701 10.111-7.921 17.002c-3.22 6.891-8.823 10.948-.966 16.293 7.857 5.41 18.032 7.148 20.994 3.091 2.963-4.057-.515-18.482 1.546-22.926 2.061-4.444.515-7.406-1.61-6.633-2.125.773-12.043-6.827-12.043-6.827z" fill="#FDFDFD"/><path d="M299.81 376.524c.708 2.318 2.705 3.542 4.959 4.765 4.83 2.576 15.713 7.342 20.028 4.058-.451 1.288-1.675 2.189-2.963 2.704-9.015 3.478-23.892-5.538-22.024-11.527zm23.506-10.175c-2.705 5.667-11.27 3.671-11.206-2.576v-.322c.129-10.046.902-12.429 1.031-14.683.128-2.512.386-5.861 5.796-5.796 5.409.064 11.785 3.284 10.819 5.345-.58 1.288-2.383 9.531-6.44 18.032z" fill="#011C2D"/><path d="M318.936 342.907c-5.409-.064-5.667 3.349-5.796 5.796-.128 2.254-.901 4.637-1.03 14.683v.322c0 .58.064 1.095.193 1.61v-.772c.129-10.047.902-12.43 1.03-14.684.129-2.511.387-5.86 5.796-5.795 4.444.064 9.531 2.254 10.691 4.121.772-1.996-5.539-5.216-10.884-5.281z" fill="#fff"/><path d="M312.302 365.447s6.182-12.364 4.636-13.717c-1.545-1.352-4.25-2.898-4.25-2.898s-4.959 13.073-3.864 16.165c1.095 3.091 3.478.45 3.478.45z" fill="#BFBFBF"/><path d="M326.73 361.132a.656.656 0 01-.386.322c-6.826 1.417-12.107-5.667-12.365-5.989-.193-.257-.128-.579.129-.772.258-.194.58-.129.773.128.064.065 5.087 6.762 11.205 5.539.322-.065.58.128.644.45.065.129.065.258 0 .322zm-2.061 5.152a.656.656 0 01-.386.322c-4.315 1.031-11.528-5.602-11.85-5.86a.53.53 0 01-.064-.773.53.53 0 01.773-.064c1.996 1.803 7.728 6.375 10.819 5.603.322-.065.579.128.708.45.065.129.065.258 0 .322zm-1.288 3.8a.77.77 0 01-.322.322c-3.67 1.352-11.785-5.023-12.686-5.732-.258-.193-.258-.515-.065-.772a.53.53 0 01.773-.065c2.319 1.868 8.952 6.505 11.592 5.539.322-.129.644.064.708.322.065.064.065.257 0 .386z" fill="#fff"/><path d="M307.924 369.504s-5.216 5.474-4.508 7.342c.644 1.803 17.001 9.144 18.289 6.375 1.288-2.833.258-10.046-1.03-11.141-1.224-1.159-12.751-2.576-12.751-2.576z" fill="#BFBFBF"/><path d="M359.508 139.792s.064 5.345-3.285 6.118c-3.348.772-5.152-1.932-5.152-1.932s-.901 6.761-10.497 5.538c-4.894-.644-6.697-3.478-6.697-3.478s-5.86 3.156-11.399-2.704c-5.474-5.861-3.349-8.694-3.349-8.694s-4.765-2.319-4.958-7.471c-.194-5.152 2.704-9.144 2.704-9.144s-4.25-8.308-1.481-13.395c2.705-5.088 5.217-6.891 5.217-6.891s-.194-5.603 5.602-7.47c5.732-1.868 12.043 1.803 12.043 1.803s6.698-5.539 16.1-.644c9.402 4.894 9.145 9.144 9.145 9.144s9.144 3.092 9.659 7.986c.516 4.894-2.189 9.209-2.189 9.209s3.928 1.288 2.254 4.508c-1.675 3.22-4.186 3.735-4.186 3.735s4.315 3.22 2.061 5.732c-2.254 2.511-5.41 1.094-5.41 1.094s.193 5.99-1.223 6.891c-1.417.837-4.959.065-4.959.065z" fill="#001429"/><path d="M345.535 101.281s-2.125-5.796-8.887-7.47c-2.383-.58-6.891 1.352-6.891 1.352s-2.962-3.993-6.504-1.546c-3.542 2.447-1.224 5.152-1.224 5.152s-5.474.064-8.05 1.803c-2.576 1.739-1.803 6.891.064 7.342 0 0-2.769 2.125-1.416 6.633 1.352 4.508 6.246 4.894 6.246 4.894s-2.447 2.512.065 5.603c2.511 3.091 9.145 2.254 11.205-1.288 0 0 3.349 1.803 6.054-1.417 2.64-3.284 1.095-7.663 1.095-7.663s5.087-3.22 5.989-6.891c.901-3.671-4.508-6.247-4.508-6.247s9.724.451 6.762-.257z" fill="#32496C"/><path d="M344.438 135.026c1.031-1.739-2.318 19.577-3.091 27.241-.129 1.545-16.422 6.375-19.577.451 0 0 4.186-4.573 6.569-12.107 2.382-7.471 2.318-13.267 2.318-13.267s12.815-.708 13.781-2.318z" fill="#723C19"/><path d="M329.885 144.75c4.379-.386 10.433-1.61 14.168-2.898.58-4.443.837-7.599.451-6.891-.966 1.546-10.368 1.868-13.782 2.641-.064.901-.193 3.542-.837 7.148z" fill="#592C13"/><path d="M335.296 100.186c-2.77.966-8.115 4.25-8.63 7.985-.515 3.735-4.637 7.792-5.281 15.585-.644 7.792 2.254 13.395 3.993 14.618 1.739 1.224 14.49 2.383 18.869-1.996s15.327-9.016 10.562-23.957c-4.766-14.876-14.104-14.103-19.513-12.235z" fill="#7A442A"/><path d="M330.786 118.54c-1.61.837-2.962.708-3.22.708.193.902.451 2.19 1.03 3.606.065-.966 0-1.867-.064-2.769 2.125 0 3.993-1.545 4.701-3.477-1.417 1.352-1.739 1.481-2.447 1.932zm5.088-1.932c1.094-1.224 2.962-1.997 4.314-1.095 1.353 1.03 1.353 2.769 2.705 3.606-1.546 0-2.189-2.125-3.22-2.769-.966-.773-2.447-.258-3.799.258zm-5.151-.387c-.451-1.61-1.739-3.155-3.349-2.898-1.674.322-2.447 1.868-4.057 1.997 1.353.708 2.898-.902 4.122-1.095 1.159-.193 2.254.901 3.284 1.996zm11.27-6.504c1.546.193 2.77 1.545 3.478 2.962-2.254-2.383-3.735-2.318-5.538-1.61-1.803.709-2.19 1.417-2.512.773-.451-.773 2.576-2.254 4.572-2.125zm-12.816-.193c-.773-.258-1.868.129-2.898.322 2.318-2.125 4.379-1.868 5.345 1.481.129.58-.579.902-.773.386-.064.065-1.223-1.996-1.674-2.189zm2.383 18.74s-5.989-3.349-6.182-2.383c-.258.966-.194 3.542-.387 4.379-.193.837 0 2.126 2.125 2.641 2.126.515 4.122-3.414 4.444-4.637z" fill="#000"/><path d="M331.562 128.264c-.065.322-.258.773-.58 1.352-1.288-.837-4.186-2.511-5.796-2.254.064-.579.064-1.159.193-1.481.193-.966 6.183 2.383 6.183 2.383z" fill="#fff"/><path d="M341.542 99.22s8.63 6.569 5.41 7.148c-3.22.58-2.576 6.054-.773 6.505 1.803.45-.966 3.477-3.027 4.507-2.061 1.031.386 5.217 2.061 5.603 1.739.387-4.637.58-2.705 5.088 1.996 4.443 7.148 3.477 7.148 3.477s-1.545 1.353-.772 3.22c.772 1.803 8.5 6.183 9.595 1.482 1.095-4.702-1.288-5.281-1.288-5.281s4.186-.193 5.667-3.091c1.481-2.898-3.091-3.993-3.091-3.993s5.86-.58 5.281-4.701c-.58-4.122-3.607-4.573-3.607-4.573s8.372-5.28 1.932-10.948c-3.606-3.22-6.89-2.254-6.89-2.254s.386-2.576-5.539-4.765c-5.731-2.19-9.402 2.576-9.402 2.576z" fill="#32496C"/><path d="M276.497 309.355s9.209-8.243 7.47-9.273c-1.738-1.03-7.985 4.572-7.985 4.572s7.213-8.436 5.603-9.402c-1.61-.966-8.63 6.955-8.63 6.955s5.023-7.535 4.508-9.402c-.515-1.868-8.243 7.341-8.243 7.341s4.186-6.246 3.284-6.762c-.901-.515-6.504 3.929-8.887 6.376-2.382 2.447.065 5.087 3.027 6.826 2.962 1.739 1.61 1.739 4.122 3.22 2.511 1.481 5.731-.451 5.731-.451z" fill="#FD9B9B"/><path d="M275.144 173.087c.515-.451 4.443-18.805 4.443-18.805s2.319-13.653-1.416-15.263c-3.736-1.545-13.074-7.663-19.9-6.568-6.826 1.094-11.012 3.735-11.527 4.25-.516.451-3.478 7.985-3.478 7.985s1.546-2.64 4.444 5.539c2.769 8.178 27.434 22.862 27.434 22.862z" fill="#381A3F"/><path d="M257.821 175.405c1.288 1.996 4.25 17.581 5.731 21.38 1.481 3.736 22.218 6.183 19.577-7.921-2.64-14.103-7.727-30.267-7.727-30.267l-17.581 16.808z" fill="#FD9B9B"/><path d="M257.821 175.405l5.86-5.603 11.785-11.27c0 .065.064.193.129.322.129.515.451 1.481.901 2.898.065.258.194.58.258.902v.064c.322 1.031.644 2.19.966 3.413 0 .065.064.129.064.194.065.322.194.579.258.901.064.193.064.322.129.515v.065c0 .064.064.129.064.193v.064c0 .129.065.194.065.322-.902 7.986-8.759 17.903-16.873 20.351-.129-.516-.258-1.031-.451-1.546-1.159-5.088-2.447-10.626-3.155-11.785z" fill="#FD8481"/><path d="M273.469 145.588c3.736 5.152 6.054 15.391 1.739 24.214-4.25 8.823-11.656 14.297-18.354 11.463-6.697-2.833-13.717-27.048-10.819-34.131 2.898-7.084 21.767-9.403 27.434-1.546z" fill="#FD9B9B"/><path d="M278.493 169.158s-.387-8.243 2.576-10.819c2.962-2.576 4.25-4.057 4.25-7.019 0-2.963 5.217-7.986 2.383-12.301-2.834-4.314-6.504-3.864-12.751-11.141s-12.107-10.883-22.089-5.989c-9.918 4.894-10.111 10.948-10.111 10.948s-4.25.258-6.569 5.667c-4.572 10.626 19.191 12.172 26.147 2.834 3.348-4.573 9.595-1.997 12.944 3.22 3.349 5.216-3.8 15.777 3.22 24.6z" fill="#446393"/><path d="M273.404 154.733s2.512-6.44 4.959-4.251c2.447 2.125 2.512 9.853-1.61 10.691-4.122.837-3.349-6.44-3.349-6.44z" fill="#FD9B9B"/><path d="M275.597 154.797s-.837-3.284 1.353-2.576c2.254.709 1.352 6.44-.515 6.698-1.804.193-.838-4.122-.838-4.122z" fill="#FD8481"/><path d="M254.152 157.115c-.387 1.675-.515 3.349-.451 5.024.193 3.606 1.095 5.023 1.159 5.216.451-.129 1.61-.515 3.156-1.224-1.031.129-2.061.387-3.027.58l.386.193c-.901-3.155-.901-6.504-1.223-9.789z" fill="#172866"/><path d="M260.851 158.919c.854 0 1.546-.836 1.546-1.868 0-1.031-.692-1.868-1.546-1.868-.854 0-1.546.837-1.546 1.868 0 1.032.692 1.868 1.546 1.868zm-11.465.579c.853 0 1.545-.836 1.545-1.867 0-1.032-.692-1.868-1.545-1.868-.854 0-1.546.836-1.546 1.868 0 1.031.692 1.867 1.546 1.867z" fill="#2846A6"/><path d="M265.162 153.316s-2.319-2.383-5.281-2.383c-2.962 0-1.61 1.997-.966 1.997.644 0 6.247-.129 6.247.386zm-14.621-1.996s-3.155 1.545-3.541 3.026c0 0 3.542-.901 3.992-1.803.516-.837-.451-1.223-.451-1.223z" fill="#172866"/><path d="M266.837 169.223c-2.64 2.447-7.084 5.152-10.883 5.216 3.542 1.932 9.016-1.996 10.883-5.216z" fill="#fff"/><path d="M1267.86 523.71c.51 5.691.45 7.437 2.45 9.572 0 0 2.27 8.989-2.32 8.989-4.6 0-6.8 21.408-7.89 22.572-1.1 1.228-5.24 0-9.19 0-3.94 0 1.04-4.916 2.78-6.791 1.75-1.876 2.98-15.975 2.98-24.188 0-1.358-.2-4.98-.46-10.154h11.65z" fill="#FD7B77"/><path d="M1256.86 559.539c3.11-.971 5.11-9.249 7.38-16.751 1.55-5.174 4.46-8.214 6.07-9.572.46.453.97.906 1.36 1.358 2.78 2.975 1.62 6.532-2.13 9.184-3.62 2.587-8.34 19.79-9.51 21.019-1.1 1.229-7.37.97-11.32.97-2.84 0 1.1-3.557 2.98-5.691.06.065 2.07.453 5.17-.517z" fill="#022D48"/><path d="M1346.56 416.48s5.37-2.134 6.99 2.005c1.62 4.139-2.59 15.91-2.2 22.7.39 6.791.26 18.238-2.97 16.88-3.24-1.358-3.17-21.86-8.28-23.929-1.36-.582-10.22 1.293-17.53 1.681l-6.34-12.546c3.69 2.199 30.33-6.791 30.33-6.791z" fill="#FD7B77"/><path d="M1353.55 418.485c1.62 4.139-1.68 15.91-1.29 22.7.38 6.791-.59 18.238-3.82 16.88-1.49-.646-2.26-5.303-3.23-10.412 4.2-4.204 1.42-26.129.32-30.85.65-.194 6.4-2.457 8.02 1.682z" fill="#022D48"/><path d="M1253.37 392.421c1.49-29.297-4.01-78.256-2.14-98.046.65-6.532 10.48-5.109 10.48-5.109s17.53 23.671 19.79 33.242c2.27 9.572-3.75 108.006-3.75 108.006s4.2-5.368 23.93-6.92c9.25-.776 23.15-4.398 26.9-3.88l4.27 16.686c-18.11 8.666-56.78 20.178-64.48 16.88-10.6-4.463-16.94-21.925-15-60.859z" fill="#7F4932"/><path d="M1245.61 424.5c-3.37-15.005-11.84-96.947-11.84-124.369 0-27.357 21.86-8.278 21.93-8.213 9.31 8.148 17.59 19.078 19.72 31.56 1.49 8.796-1.36 17.657-2.78 26.323a434.236 434.236 0 00-3.17 24.123c-1.23 11.836-3.68 25.935-.9 37.705 3.49 14.94 7.37 31.497 7.37 46.954s-5.11 62.734-4.92 65.062l-15.19.647c-1.62-25.547-7.44-87.31-10.22-99.792z" fill="#EBA708"/><path d="M1260.1 123.765s-14.88 2.069-17.27 16.815c-2.4 14.746 3.75 43.008 12.29 49.734 8.53 6.662 11.38 27.487 18.69 32.402 7.24 4.915 23.28 4.592 20.5-9.701 0 0-7.18 3.234-10.87-5.303 0 0 12.16 4.786 15.39-6.791 3.24-11.577-8.34-10.348-8.34-10.348s6.92 6.209-.06 5.885c-6.99-.258-12.03-5.497-13.52-13.193-1.49-7.696 10.74-4.98 6.86-18.885-3.88-13.905-18.82-42.103-23.67-40.615z" fill="#0E1B29"/><path d="M1236.49 159.982s7.83 32.984 5.43 34.601c-2.39 1.617-8.47 6.791-8.47 6.791s19.66-8.731 22.18-16.428l-3.75-30.526-15.39 5.562z" fill="#FD9B9B"/><path d="M1251.88 154.42l-15.39 5.562s.39 1.682.97 4.269c5.11-.388 13-1.359 15.13-3.881l-.71-5.95z" fill="#FD7B77"/><path d="M1253.11 130.362l-23.02 7.372s-4.34-.776-3.37-5.562c.97-4.785 7.18-8.472 13.07-10.153 5.95-1.682 12.93-1.553 12.93-1.553l.39 9.896z" fill="#0E1B29"/><path d="M1246.58 123.7s-8.28-.194-11.19 3.169c-2.91 3.428-5.3 12.417-7.89 14.163-2.59 1.747-4.53 1.811-4.53 1.811s-.77.906 1.17 2.393c1.94 1.488.06 2.329-1.23 2.07-1.36-.259-.71 2.522.26 2.975 0 0-1.43.129-1.43 1.487 0 1.294.59 1.682.59 1.682s-.26 1.681-1.23 3.104-.26 6.403 10.67 6.403c0 0 16.36-.582 18.17-4.851 1.81-4.203 11.9-18.884 7.12-25.999-4.79-6.984-10.48-8.407-10.48-8.407z" fill="#FD9B9B"/><path d="M1255.05 120.79s-2.39-2.199-12.8-1.359c-10.35.906-14.68 10.542-14.68 10.542s7.17-3.039 11.12-2.263c3.94.776 13.26 1.034 15-.13 1.75-1.164 1.36-6.79 1.36-6.79z" fill="#1B3753"/><path d="M1253.76 120.143c-1.36-.259-12.1 7.308-11.19 15.134.9 7.826 7.11 5.627 10.28 8.278 3.17 2.652-2.84 10.865-2.91 14.681-.06 3.816 5.69 26.775 5.69 26.775s17.01-42.814 13.58-52.062c-3.42-9.249-15.45-12.806-15.45-12.806z" fill="#1B3753"/><path d="M1251.63 144.202s4.07-5.627 5.11-4.01c1.03 1.552-.07 10.8-4.92 10.8-4.85-.064-.19-6.79-.19-6.79z" fill="#FD9B9B"/><path d="M1238.22 148.314c-2.28-.447-3.95-1.689-3.74-2.776.21-1.087 2.23-1.605 4.51-1.159 2.28.446 3.95 1.689 3.74 2.776-.21 1.086-2.23 1.605-4.51 1.159zm13.47-3.336s2.13-3.105 2.78-2.134c.64.97-1.23 6.079-2.33 5.885-1.1-.194-1.04-2.07-.45-3.751z" fill="#FD7B77"/><path d="M1226.98 140.127s1.68 2.587 7.25 1.876l-7.25-1.876zm4.59-2.717s2.27-.84 3.88-.517c1.62.323 2.92 1.229 2.79 1.811 0 0-1.56-1.164-2.98-1.229-1.42-.065-2.26.906-2.78.776-.58-.129-.91-.841-.91-.841z" fill="#1B3753"/><path d="M1249.62 185.917c-5.95-.971-14.36 1.875-24.97 15.521-2.84 3.622-6.66 6.468-7.95 11.124-3.49 12.806 3.49 37.77 6.98 46.501 3.5 8.666-4.46 42.038-.45 42.038 3.95 0 42.82 0 42.82-7.955s-6.99-6.597-6.99-21.213 11.84-70.365 1.42-80.778c-3.42-3.363-6.27-4.527-10.86-5.238z" fill="#D6064E"/><path d="M1218.06 337.642c.9-4.592 6.66-25.934 10.99-45.725 4.4.259 8.6.906 12.35 3.04-6.2 15.263-16.49 45.078-16.49 52.645 0 9.96-2.33 20.178-5.82 20.178s-5.82-11.706-5.82-13.969c0-2.264 3.3-8.731 4.79-16.169z" fill="#FD9B9B"/><path d="M1233.97 260.938c0-39.516-6.54-62.669 4.39-68.942 4.01-2.329 10.55-3.881 14.04.258 0 0 5.95 6.985 4.72 21.537-2.2 26.193-4.01 58.595-13.9 83.041-3.76-2.134-11.52-4.591-15.91-4.85 2.71-12.676 6.66-24.576 6.66-31.044z" fill="#E40653"/><path d="M1227.24 291.918c3.5-13.647 6.21-21.343 7.12-28.651 1.68-14.746-4.34-55.167 0-65.903 2.91-7.244 13.9-9.766 18.04-5.109-1.62-2.07-4.01-2.781-6.66-2.717-20.95.712-13.19 26.711-12.48 66.356.26 14.552-2.59 17.656-6.02 36.024z" fill="#FDBCBB"/><path d="M1249.94 158.236s-2.97 51.093 15.2 53.615c18.17 2.522 14.36-17.462 10.86-20.89 0 0-1.1 6.209-4.85 4.98-3.75-1.229-2.78-.259-.32-8.214s-4.98-5.691-9.25-13.064c-4.2-7.373 6.47-12.676 6.21-19.079-.26-6.402 1.62-15.715 1.62-15.715l-19.47 18.367z" fill="#1B3753"/><path d="M837.692 546.095s.794 8.468 1.376 14.183c.529 5.768-1.534 10.531 5.663 11.06 7.197.476 14.553-2.275 14.923-6.033.37-3.81-7.462-11.907-7.832-15.611-.371-3.704-2.54-5.027-3.599-3.757-1.058 1.27-10.531.158-10.531.158z" fill="#022D48"/><path d="M839.915 569.115c1.323 1.27 3.122 1.323 5.08 1.217 4.128-.158 13.124-1.27 14.712-5.027.212 1.006-.265 2.064-.9 2.911-4.604 5.768-17.834 5.556-18.892.899z" fill="#385280"/><path d="M851.345 553.398c.423 4.71-5.98 6.721-8.361 2.646-.053-.053-.053-.106-.106-.211-3.758-6.615-4.181-8.521-4.975-10.002-.846-1.694-2.011-3.969 1.535-6.033 3.546-2.064 8.996-2.382 9.155-.688.106 1.111 2.117 7.144 2.752 14.288z" fill="#022D48"/><path d="M839.438 539.798c-3.546 2.064-2.434 4.339-1.535 6.033.794 1.481 1.218 3.387 4.975 10.002.053.052.053.158.106.211.211.371.476.688.741.953-.053-.106-.106-.212-.212-.318-.053-.053-.053-.106-.106-.211-3.757-6.615-4.181-8.521-4.974-10.002-.847-1.694-2.011-3.969 1.534-6.033 2.911-1.694 7.092-2.223 8.573-1.429-.211-1.588-5.556-1.27-9.102.794z" fill="#fff"/><path d="M843.831 557.05s-.741-10.478-2.275-10.743c-1.535-.265-3.916-.212-3.916-.212s1.799 10.478 3.704 12.066c2.011 1.588 2.487-1.111 2.487-1.111z" fill="#5491FF"/><path d="M851.61 548.688a.573.573 0 01-.159.371c-3.969 3.545-10.107.952-10.372.846-.212-.105-.317-.37-.212-.582.106-.211.371-.317.583-.211.052 0 5.926 2.487 9.472-.688a.377.377 0 01.582.053c.053.053.053.105.106.211zm.635 4.181a.983.983 0 01-.106.371c-2.434 2.328-9.737.793-10.055.741a.442.442 0 01-.318-.53.441.441 0 01.53-.317c2.011.423 7.514 1.164 9.261-.476a.415.415 0 01.582 0c.053 0 .106.105.106.211zm.583 2.963c0 .106 0 .212-.106.318-1.905 2.276-9.632 1.27-10.531 1.111a.508.508 0 01-.371-.476.508.508 0 01.477-.37c2.275.317 8.361.793 9.737-.847.159-.159.423-.212.582-.053.159.106.212.212.212.317z" fill="#fff"/><path d="M842.508 561.389s-1.323 5.61-.159 6.509c1.164.953 14.659-.529 14.447-2.91-.212-2.329-3.704-6.668-4.974-6.88-1.27-.211-9.314 3.281-9.314 3.281z" fill="#022D48"/><path d="M765.729 533s7.461 1.217 7.673 6.192c.212 4.974-5.98 11.642-5.98 11.642l-5.768-3.916s2.54-2.752 3.069-7.409c.529-4.657 1.006-6.509 1.006-6.509z" fill="#5491FF"/><path d="M783.721 560.677s-7.515.159-12.754.264c-5.239.106-13.6.953-16.246 1.006-2.646.053-12.277-5.927-11.695-7.938.582-2.011 9.208-1.746 13.653-4.128 4.445-2.381 12.119-8.096 13.706-8.679 2.488-.899 8.944 1.323 10.478 2.805 1.535 1.535 4.128 15.347 2.858 16.67z" fill="#022D48"/><path d="M781.763 557.29c-21.009-2.805-14.923 3.387-35.509-1.852 5.027 1.905 12.436 3.757 17.728 2.593 2.858-.635 5.874-.688 8.837-.794 2.964-.106 5.928-.053 8.944.053z" fill="#385280"/><path d="M767.527 551.945a.732.732 0 01-1.112.106c-1.217-1.005-3.863-2.963-6.456-4.286.476-.318.953-.688 1.482-1.059 3.069 1.694 5.821 3.916 5.98 4.075.317.318.37.847.106 1.164zm.9-3.334c-.37.212-.899.106-1.111-.264 0-.053-2.276-3.07-4.181-4.922.212-.635.424-1.164.847-1.482 1.958 1.906 4.657 5.451 4.763 5.557.158.37.053.9-.318 1.111z" fill="#fff"/></svg>