<svg width="634" height="555" fill="none" xmlns="http://www.w3.org/2000/svg"><path opacity=".3" d="M316.547 554.063c174.824 0 316.547-9.844 316.547-21.987 0-12.143-141.723-21.986-316.547-21.986S0 519.933 0 532.076s141.723 21.987 316.547 21.987z" fill="#BFBFBF"/><path d="M271.569 105.465c-4.904-4.907-25.554-8.587-28.666-6.04-3.206 2.454-9.241 21.704-9.241 34.16 0 1.227-.094 2.925-.188 5.001 4.243 3.114 9.618 3.869 15.087 2.925.566-13.682 1.226-23.213 2.169-24.156 3.583-3.586 10.938-6.039 10.938-6.039s5.374 4.623 6.883 6.039c1.415 1.415 1.698-5.756-3.206-8.304-4.903-2.548-14.144.472-11.504-2.17 2.735-2.737 12.919.188 14.993 2.17 2.075 2.076 4.809 15.003 6.978 15.003 2.169-.094.754-13.682-4.243-18.589z" fill="#FD9B9B"/><path d="M235.454 112.731c4.903-4.907 25.554-8.587 28.665-6.039 3.206 2.453 9.241 21.703 9.241 34.159 0 1.227.095 7.738.189 9.814-4.243 3.114-9.618-.944-15.087-1.982-.566-13.682-1.226-23.213-2.169-24.157-3.583-3.585-10.938-6.039-10.938-6.039s-5.375 4.624-6.884 6.039c-1.414 1.416-1.697-5.756 3.206-8.303 4.904-2.548 14.144.471 11.504-2.171-2.734-2.736-12.918.189-14.993 2.171-2.074 2.075-4.809 15.003-6.977 15.003-2.169 0-.755-13.494 4.243-18.495z" fill="#FD8481"/><path d="M402.45 525.66H245.26a8.455 8.455 0 018.487-8.493h140.122c4.715 0 8.581 3.775 8.581 8.493z" fill="#211106"/><path d="M467.984 273.618s-100.329 1.227-132.578 24.44c-32.249 23.213-104.667 201.558-120.131 208.257-15.465 6.7-47.996-5.567-52.805-5.567-4.809 0 61.291 32.177 61.291 32.177S342.29 383.362 347.004 363.923c4.809-19.439 91.843-39.632 91.843-39.632l33.475-50.673h-4.338z" fill="#011C2D"/><path d="M324.656 268.712h-10.938v248.455h10.938V268.712z" fill="#011C2D"/><path d="M430.549 258.426H204.242c-14.898-1.038-24.611-2.831-28.665-3.963l4.149 12.456c.471.094.848.094 1.32.189 7.543 1.038 18.293 1.981 31.966 2.736 27.911 1.604 64.969 2.548 104.384 2.548 39.415 0 76.473-.849 104.384-2.548 13.673-.755 24.422-1.698 31.966-2.736h.188c.849-3.775 1.509-8.87 2.264-12.645-5.187.849-14.333 3.114-25.649 3.963z" fill="#011C2D"/><path d="M315.887 263.05c77.491 0 140.311-3.845 140.311-8.587 0-4.743-62.82-8.587-140.311-8.587-77.491 0-140.31 3.844-140.31 8.587 0 4.742 62.819 8.587 140.31 8.587z" fill="#42210B"/><path d="M315.887 263.05c77.491 0 140.311-3.845 140.311-8.587 0-4.743-62.82-8.587-140.311-8.587-77.491 0-140.31 3.844-140.31 8.587 0 4.742 62.819 8.587 140.31 8.587z" fill="#BFBFBF"/><path d="M135.03 535.756l-10.938-.754c5.186-69.073.848-114.745-6.695-188.819l10.844-1.132c9.335 90.21 11.315 127.294 6.789 190.705zm30.929 2.643l10.938-.755c-5.187-69.073-.849-114.745 6.695-188.819l-10.844-1.132c-9.335 90.21-11.316 127.294-6.789 190.706z" fill="#011C2D"/><path d="M393.963 121.979c1.32-4.813 14.993-7.833 14.993-7.833l1.886-11.606s-26.497.944-29.326 6.983c-1.98 4.152-3.3 17.645-3.96 25.855 5.374.849 10.466 1.982 15.37 4.341.283-9.437.754-16.419 1.037-17.74z" fill="#FD8481"/><path d="M428.098 105.843c-22.16 12.644-17.916 92.38-23.291 91.059-3.866-.944-10.09-41.331-9.43-65.582-4.997-2.359-12.446-3.491-17.821-4.34-.283 3.774-4.998 60.203-4.998 80.396 0 16.797 2.263 42.275 21.594 41.614 6.977-.283 34.794-32.272 34.794-32.272l47.053-99.363c.095 0-36.02-18.212-47.901-11.512z" fill="url(#paint0_linear)"/><path d="M268.74 331.557s21.499 26.327 30.645 47.841c9.053 21.515 36.87 101.911 42.527 111.536 5.752 9.531 24.14 19.345 28.666 23.968 4.526 4.53-24.422 26.799-31.117 4.813-6.695-21.987-70.816-108.611-73.644-123.992-2.829-15.287-12.919-42.557-12.919-42.557l15.842-21.609z" fill="#011F32"/><path d="M370.578 514.808c-4.526-4.529-22.914-14.343-28.666-23.968-2.168-3.586-10.372-26.516-16.595-43.407-6.601 2.926-18.954 6.889-25.177 10.569 14.427 22.269 36.586 52.182 39.415 61.524 4.998 16.419 21.971 13.966 30.269 11.607 2.923-.85 4.809-3.586 4.526-6.606-.377-3.114-1.32-7.266-3.772-9.719z" fill="#B80543"/><path d="M374.255 524.622c-.282-3.303-1.225-7.36-3.677-9.814l-.566-.566c1.792 2.453 2.546 5.945 2.829 8.87.283 3.02-1.603 5.756-4.526 6.605-6.412 1.793-18.01 3.68-25.177-3.114 7.072 8.587 19.802 6.606 26.686 4.719 2.828-.944 4.714-3.681 4.431-6.7zm-91.182-226.564s19.613 13.871 22.442 30.668c2.828 16.796 28.665 165.7 26.779 175.891-1.886 10.285 0 11.512 2.829 18.589 2.829 6.983-20.745-1.604-20.745-12.644 0-11.041-18.481-37.368-15.181-40.67 3.3-3.303 9.901-10.097 9.901-14.343 0-4.341-41.207-104.648-34.418-116.066 6.79-11.418-13.295-20.288-13.295-20.288l21.688-21.137z" fill="#022D48"/><path d="M309.287 455.454c0 4.341-6.601 11.041-9.901 14.343-3.301 3.303 14.332 34.159 14.332 45.105 0 11.041 24.328 15.193 21.5 8.116-2.829-6.983-4.809-8.304-2.829-18.59 1.037-5.473 2.357-52.465-4.715-95.777-8.392.094-24.988 2.83-33.003 5.567 7.638 21.515 14.616 39.443 14.616 41.236z" fill="url(#paint1_linear)"/><path d="M303.912 473.1c.094.189 10.561 40.481 12.541 44.539 2.074 4.246 9.429 7.171 14.238 7.36 2.358.189 4.998-.755 4.715-.66.189-.095 3.772 2.076-2.074 3.585-4.244.944-11.787-.566-16.879-4.34-4.338-3.209-4.715-6.228-4.998-9.437-.943-10.662-15.37-43.689-15.275-43.406-1.509-4.152 4.903-6.322 6.223-2.076.094.283 1.603 4.624 1.509 4.435z" fill="#022D48"/><path d="M80.245 157.27l14.898 188.158 18.671-13.871V159.252l-33.57-1.982zm7.166 6.983l6.695.377 8.392 167.021-1.886 1.416-13.201-168.814zm19.802 164.001l-.943.661-4.62-163.813 5.563.283v162.869zm102.215 25.761H91.843l-.849-6.228h119.189l-.755 6.228z" fill="#011C2D"/><path d="M113.719 324.291s84.677 2.265 91.372 7.266c6.695 5.095 16.784 16.23 4.337 16.23H90.994s10.75-23.874 22.725-23.496z" fill="#BFBFBF"/><path d="M109.193 541.041l-10.938-.755c5.186-69.073.849-114.745-6.695-188.819l10.844-1.132c9.335 90.21 11.221 127.389 6.789 190.706zm82.602 2.642l10.939-.755c-5.187-69.073-.849-114.839 6.694-188.913l-10.938-1.038c-9.241 90.21-11.127 127.389-6.695 190.706zm319.093-7.927l10.939-.754c-5.187-69.073-.849-114.745 6.695-188.819l-10.844-1.132c-9.336 90.21-11.316 127.294-6.79 190.705zm-30.928 2.643l-10.938-.755c5.186-69.073.848-114.745-6.695-188.819l10.844-1.132c9.335 90.21 11.221 127.294 6.789 190.706zm52.145-379.147v172.305l18.67 13.871 14.804-188.064-33.474 1.888zm6.6 169.002V165.385l5.564-.283-4.621 163.813-.943-.661zm6.507 4.813l-1.886-1.416 8.392-167.021 6.695-.377-13.201 168.814z" fill="#011C2D"/><path d="M436.49 354.015h117.585l.849-6.228H435.736l.754 6.228z" fill="#011C2D"/><path d="M532.105 324.291s-84.677 2.265-91.372 7.266c-6.695 5.095-16.784 16.23-4.337 16.23H554.83s-10.75-23.874-22.725-23.496z" fill="#BFBFBF"/><path d="M536.725 541.041l10.938-.755c-5.186-69.073-.848-114.745 6.695-188.819l-10.844-1.132c-9.335 90.21-11.315 127.389-6.789 190.706zm-82.602 2.642l-10.938-.755c5.186-69.073.849-114.839-6.695-188.913l10.938-1.038c9.241 90.21 11.127 127.389 6.695 190.706z" fill="#011C2D"/><path d="M535.782 280.318c-6.6-24.723-20.839-38.405-20.839-38.405l-40.829 11.512c0 1.793-5.941 20.288-8.11 27.082-14.144 1.038-97.689 7.455-123.903 15.57-22.819 7.077 86.468 193.348 86.468 210.239 0 16.89-22.348 34.442-11.692 34.442 10.655 0 44.13-34.914 44.13-40.01 0-5.001-17.351-2.17-17.351-15.098 0-12.927-38.849-154.093-38.849-154.093s72.135 8.304 108.722 6.605c10.561-.472 19.33-8.209 21.216-18.589 2.169-11.89 3.96-28.12 1.037-39.255z" fill="#022D48"/><path d="M449.125 96.973c7.45.188 23.857 1.32 31.118 6.982 12.258 9.531 11.692 12.456 20.933 35.292 14.71 36.424 37.529 100.59 37.529 128.804s-30.08 15.381-30.08 15.381-43.469-10.757-43.469-14.815c0-3.963-9.241-9.436-9.241-36.895 0-27.46-30.835-103.799-27.723-119.085 3.206-15.287 12.07-15.853 20.933-15.664z" fill="url(#paint2_linear)"/><path opacity=".47" d="M501.271 139.247c-4.432-11.041-6.601-17.457-9.053-22.175l-44.884 72.658c4.809 16.891 8.581 32.461 8.581 42.086 0 6.7.566 11.984 1.414 16.419 24.517-18.872 38.944-70.583 45.922-104.081-.755-1.699-1.415-3.303-1.98-4.907z" fill="#022D48"/><path d="M418.951 102.54c-2.263-9.248-12.541-11.418-16.69-11.418-4.149 0-25.271.377-27.534 2.642-6.506 6.511 23.385 1.51 23.385 3.303 0 1.698-20.179-1.793-23.574 1.604-3.394 3.397 19.708 3.02 19.708 3.02s-17.728 2.264-12.636 3.774c5.092 1.604 21.405-3.869 21.405 8.115v28.686c8.015-2.736 10.184-5.095 18.765-5.284-1.509-15.853-1.98-30.856-2.829-34.442z" fill="#FD9B9B"/><path d="M463.835 19.218c-.283-8.681 13.39-14.815 20.651-4.152l-1.886 1.699c-6.129-8.21-16.596-5.001-18.765 2.453z" fill="#5C2C55"/><path d="M460.064 109.523l1.98-28.026-3.301-15.192-18.858 12.927-5.752 25.101-2.264 9.908c-.094-.094-6.506 38.311 28.195-4.718z" fill="#FD9B9B"/><path d="M463.553 65.644L439.79 79.138l-5.752 25.1c9.336-1.038 21.405-8.02 27.346-21.231.188-.472.471-1.038.66-1.51l1.509-15.853z" fill="#FD8481"/><path d="M434.321 17.614s-16.03 8.398-14.993 22.08c.943 13.683-3.111 48.22 3.866 54.165 6.978 5.945 28.949.283 37.718-17.363 8.675-17.646 4.621-52.182 1.226-55.013-3.394-2.831-22.159-10.474-27.817-3.869z" fill="#FD9B9B"/><path d="M446.674 21.577l.094 1.227s-2.829 17.174-18.01 21.231c-15.276 4.058-17.728-3.68-17.728-3.68s-15.558 8.115-18.01-7.737c-2.452-15.853 11.033-20.666 11.033-20.666s-3.866 11.324 1.98 9.53c5.846-1.792-.283-10.568 5.94-13.21 6.129-2.548 12.259.283 12.259.283s9.806-1.698 16.501-6.133c6.695-4.435 20.839-2.454 22.725 3.302 1.886 5.756 2.64 9.72 2.64 9.72-.188-1.133 4.244-.095 4.432 0 14.239 6.228 5.564 28.214-.094 42.746-1.697 4.246-3.489 8.492-5.658 12.644-1.037 1.982-2.546 4.058-3.866 5.662 0 0 6.224-20.382 3.301-26.61-2.924-6.322-5.375.944-7.073-5.662-1.791-6.605 3.489-7.926 3.112-13.4-.471-5.567-13.578-9.247-13.578-9.247z" fill="#1D2A58"/><path d="M458.083 50.924s5.187-10.569 9.053-7.36c3.866 3.208-1.132 24.062-4.904 22.363-3.771-1.604-4.149-15.003-4.149-15.003z" fill="#FD9B9B"/><path d="M421.78 75.93s6.884 3.869 15.842 1.226c0 0-4.621 6.134-8.393 6.511-3.771.378-7.449-7.737-7.449-7.737z" fill="#fff"/><path d="M460.346 51.773s4.055-6.417 5.375-3.208c1.415 3.114-2.64 16.419-4.62 14.815-1.886-1.699-.755-11.607-.755-11.607z" fill="#FD7572"/><path d="M426.023 60.36c-1.603 3.775-1.603 5.001-1.886 8.398.472 0 1.226.19 4.998.095-1.32-.378-2.734-.66-4.055-.944.283-2.548 3.867-13.305 5.375-14.532-1.886 1.038-3.677 5.096-4.432 6.983zm16.03-7.266c.095 1.887-.848 3.492-2.168 3.586-1.321.094-2.452-1.321-2.641-3.114-.094-1.887.849-3.491 2.169-3.586 1.32-.188 2.546 1.227 2.64 3.114zm-17.067 1.51c.094 1.887-.849 3.491-2.169 3.586-1.32.094-2.452-1.321-2.64-3.114-.094-1.888.849-3.492 2.169-3.586 1.32-.094 2.546 1.227 2.64 3.114zm12.636-11.229s6.129-1.793 9.523 1.132c3.395 2.925 2.358 5.001 1.509 5.096-.849.094-1.509-5.379-4.62-4.813-8.675 1.699-8.958-.943-6.412-1.415z" fill="#653870"/><path d="M459.309 108.957c-3.583 6.511-29.514 51.804-28.005 74.357 1.32 16.042 0 7.36 0 7.36s-1.226-12.927-2.263-28.875c-.66-8.492-1.509-17.834-2.263-26.515-8.487.188-19.048 3.868-27.063 6.605 0 22.741 3.3 53.315 3.3 73.414 0 31.894 3.206 54.258 27.44 40.859 24.234-13.4 70.91-116.821 70.91-116.821 1.603-40.481-35.927-41.614-42.056-30.384z" fill="#027CCD"/><path d="M399.715 141.795c1.792 20.948 4.337 41.708 5.186 62.845.943 24.156-3.017 54.635 14.05 55.39-15.747 2.171-17.444-23.59-18.01-39.537-.566-29.819-1.132-26.611-1.698-47.087-.282-10.569-.471-21.043.472-31.611z" fill="#0789E5"/><path d="M429.041 161.705a1092.446 1092.446 0 002.263 28.875s-.943-12.833-2.263-28.875z" fill="#FC7575"/><path d="M127.392 225.777h-2.169l-2.829.472s-26.308 70.866-22.536 95.777c3.866 24.912 107.685 14.815 122.3 14.815 14.522 0 26.026 52.182 26.026 52.182s38.943-78.037 54.408-88.511c0 0-23.763-18.684-62.989-18.684-39.227 0-78.453 15.287-78.453.944s2.357-43.03 2.357-43.03l-36.115-13.965z" fill="url(#paint3_linear)"/><path d="M248.184 94.614l-30.835 34.253s-12.918-8.87-12.918-17.08c0-8.209 29.42-41.802 29.42-41.802l14.333 24.629z" fill="#FD9B9B"/><path d="M233.851 69.985s-4.715 5.284-10.278 12.267c3.677 8.587 9.052 19.25 15.181 22.93l9.524-10.569-14.427-24.628z" fill="#FD8481"/><path d="M204.431 81.214s-8.864-2.83-15.087-2.83c-6.224 0-6.412 8.586-6.412 8.586s-24.611-19.816-31.778-12.644c-7.166 7.171 0 17.268 0 17.268s-23.668 6.983-23.668 20.854c0 13.871 21.782 16.513 21.782 16.513s0 20.571 14.333 15.57c14.333-5.001 19.142-28.025 24.14-30.384 4.997-2.36 3.583 12.644 14.332 10.568 10.75-2.17 22.065-14.532 19.802-26.799-2.263-12.456-17.444-16.702-17.444-16.702z" fill="#1D2A58"/><path d="M256.859 140.757c-1.321 18.683-13.956 67.374-15.465 68.79l-24.234-88.701s-26.119-6.794-20.179 25.006c1.886 10.191 38.284 101.439 44.413 101.439 17.916 0 32.815-62.184 34.512-101.061-5.469 1.038-14.71-2.359-19.047-5.473z" fill="#EBA708"/><path d="M218.009 119.053s11.693 45.955 8.204 62.657c-3.489 16.796-54.125 45.482-61.292 65.581l-42.526-21.042s48.561-109.932 65.251-112.197c16.785-2.359 30.363 5.001 30.363 5.001z" fill="#EBA708"/><path d="M231.588 133.774c-1.321 18.684-6.412 71.715-7.827 73.131l-24.234-93.136s-33.757-6.794-27.817 25.006c1.886 10.191 42.339 102.383 46.582 106.724 4.338 4.34 10.184 8.964 19.802 7.643 7.072-.944 10.75-75.112 12.447-113.895-5.375 1.038-14.616-2.359-18.953-5.473z" fill="#FACF6B"/><path d="M223.761 206.904c-9.146-23.873-20.556-67.374-24.233-93.135 9.429 24.534 20.65 68.129 24.233 93.135zm14.427 46.238c6.224-2.453 5.752-65.77 12.447-113.895 2.263 45.577-4.809 113.234-12.447 113.895z" fill="#FDEFCE"/><path d="M218.481 138.303s-1.132 5.473-5.469 3.586c-4.338-1.887 1.037-24.534 1.037-24.534l8.864 5.378c0-.094-5.47 8.399-4.432 15.57zm10.372-101.156s20.556-3.68 31.212 6.983c10.655 10.663 6.412 21.42 10.372 23.779 3.961 2.36 10.561.944 10.561.944s-.754 4.718-2.263 6.228c0 0 3.395 17.928-.66 21.986-4.055 4.057-25.837 2.265-35.266 2.265-9.43 0-17.35-17.363-21.688-26.61-4.243-9.248 7.732-35.575 7.732-35.575z" fill="#FD9B9B"/><path d="M257.802 42.148s-14.05 27.365-24.14 33.027c-10.184 5.662-11.692 17.929-13.295 17.929-1.603 0-20.651 3.397-23.291-12.173-2.64-15.57.849-28.875 8.581-36.612 7.732-7.738 40.924-17.458 52.145-2.17z" fill="#1D2A58"/><path d="M257.802 78.006c4.582 0 8.298-1.183 8.298-2.642 0-1.46-3.716-2.642-8.298-2.642-4.583 0-8.298 1.183-8.298 2.642 0 1.459 3.715 2.642 8.298 2.642z" fill="#FD8481"/><path d="M258.745 68.192s12.729.755 15.181-1.698l-15.181 1.698zm6.129-6.888s-2.546-2.36-7.072-2.36c-4.527 0-5.847 4.813-5.847 4.813s3.961-3.586 6.884-3.586c2.923 0 6.035 2.642 6.035 1.133z" fill="#1D2A58"/><defs><linearGradient id="paint0_linear" x1="474.142" y1="127.02" x2="364.819" y2="138.528" gradientUnits="userSpaceOnUse"><stop stop-color="#00548A"/><stop offset="1" stop-color="#0772C0"/></linearGradient><linearGradient id="paint1_linear" x1="335.323" y1="429.008" x2="291.281" y2="431.097" gradientUnits="userSpaceOnUse"><stop stop-color="#DF055A"/><stop offset="1" stop-color="#ED094A"/></linearGradient><linearGradient id="paint2_linear" x1="536.717" y1="126.618" x2="419.26" y2="136.726" gradientUnits="userSpaceOnUse"><stop stop-color="#0075BF"/><stop offset="1" stop-color="#098DED"/></linearGradient><linearGradient id="paint3_linear" x1="301.979" y1="253.973" x2="88.326" y2="290.42" gradientUnits="userSpaceOnUse"><stop stop-color="#DF055A"/><stop offset="1" stop-color="#ED094A"/></linearGradient></defs></svg>