<svg width="172" height="146" viewBox="0 0 214 146" fill="none" xmlns="http://www.w3.org/2000/svg"><path d="M88.566 77.913a.902.902 0 100-1.803.902.902 0 000 1.803zm62.63 44.904c34.686 0 62.804-3.957 62.804-8.839 0-4.881-28.118-8.839-62.804-8.839-34.686 0-62.804 3.958-62.804 8.839 0 4.882 28.118 8.839 62.804 8.839z" fill="#B1B5F5"/><path d="M151.196 122.817c34.686 0 62.804-3.957 62.804-8.839 0-4.881-28.118-8.839-62.804-8.839-34.686 0-62.804 3.958-62.804 8.839 0 4.882 28.118 8.839 62.804 8.839z" fill="#066EBA"/><path d="M189.168 92.469c-2.525-13.345-17.338-13.68-17.338-13.68s-24.474-3.04-43.513-2.112c-8.373.412-18.059 2.138-24.397 8.14-5.925 5.617-6.595 14.428-1.829 20.997 5.307 7.291 17.286 9.171 25.685 10.356 12.984 1.83 26.742 2.963 39.752-.18 12.263-2.963 24.371-9.017 21.64-23.521zm-27.875.283c-.927 1.958-3.967 2.113-6.337 2.886-8.502 2.808-19.219-.541-29.55-3.813-5.41-1.7 6.853-5.127 6.853-5.127s3.864-1.03 11.567-1.03c4.766 0 10.279.85 14.685 2.73 2.962 1.289 3.478 2.86 2.782 4.354z" fill="#022D48"/><path d="M163.198 43.88s.902 7.781 0 12.702c0 0-1.597 2.988-4.328 1.906-2.731-1.082-2.19-3.761-1.778-3.761.412 0 2.345-2.344 1.958-5.359l4.148-5.487z" fill="#FD9B9B"/><path d="M159.025 51.378c2.782-.438 3.942-1.778 4.483-4.328a69.633 69.633 0 00-.309-3.17l-4.174 5.488c.103.722.052 1.391-.051 2.01h.051z" fill="#FD7B77"/><path d="M125.329 94.53s23.727-1.314 30.168 1.262c6.44 2.577-24.604 7.961-28.004 4.56-3.401-3.4-2.164-5.822-2.164-5.822z" fill="#011C2D"/><path d="M186.128 86.26c.18.232.464.36.721.335-.051-.103-.128-.18-.18-.283a.507.507 0 01-.335-.232.65.65 0 01-.129-.412c-.077-.078-.128-.18-.206-.258-.077.283-.051.618.129.85zm-9.61-4.302a.868.868 0 00.155-1.237.869.869 0 00-1.237-.154.869.869 0 00-.154 1.236.92.92 0 001.236.155zm-.901-1.185a.64.64 0 01.876.103.64.64 0 01-.103.876.64.64 0 01-.876-.103.64.64 0 01.103-.876zm3.993 5.204a.869.869 0 00.154-1.237.868.868 0 00-1.236-.154.868.868 0 00-.155 1.236c.309.36.876.438 1.237.155zm-.902-1.185a.64.64 0 01.876.103.64.64 0 01-.103.876.64.64 0 01-.876-.103.64.64 0 01.103-.876zm4.019 5.204a.868.868 0 00.155-1.237.869.869 0 00-1.237-.154.868.868 0 00-.154 1.236c.283.36.85.438 1.236.155zm-.927-1.185a.64.64 0 01.876.103.64.64 0 01-.103.876.64.64 0 01-.876-.103.64.64 0 01.103-.876zm2.936 3.812a.868.868 0 00-.154 1.237.867.867 0 001.236.155.868.868 0 00.155-1.237c-.284-.386-.85-.438-1.237-.155zm.928 1.185a.64.64 0 01-.876-.103.64.64 0 01.103-.876.64.64 0 01.876.104.64.64 0 01-.103.875zm3.4 2.989a.869.869 0 00-1.237-.155.869.869 0 00-.154 1.237.867.867 0 001.236.155c.387-.284.438-.85.155-1.237zm-.309 1.03a.64.64 0 01-.876-.103.64.64 0 01.103-.876.64.64 0 01.876.104.64.64 0 01-.103.876zM168.79 81.494a.869.869 0 00.154-1.237.867.867 0 00-1.236-.154.868.868 0 00-.155 1.237.92.92 0 001.237.154zm-.902-1.185a.64.64 0 01.876.103.64.64 0 01-.103.876.64.64 0 01-.876-.103.596.596 0 01.103-.876zm3.993 5.204a.869.869 0 00.154-1.237.868.868 0 00-1.236-.154.868.868 0 00-.155 1.237.92.92 0 001.237.154zm-.902-1.185a.64.64 0 01.876.103.64.64 0 01-.103.876.64.64 0 01-.876-.103c-.206-.258-.18-.67.103-.876zm3.993 5.204a.869.869 0 00.155-1.237.869.869 0 00-1.237-.154.869.869 0 00-.155 1.236.92.92 0 001.237.155zm-.902-1.185a.64.64 0 01.876.103.64.64 0 01-.103.876.64.64 0 01-.876-.103.596.596 0 01.103-.876zm4.149 3.967a.869.869 0 00-1.237-.154.869.869 0 00-.155 1.236.869.869 0 001.237.155.868.868 0 00.155-1.237zm-.309 1.03a.64.64 0 01-.876-.102.639.639 0 01.103-.876.64.64 0 01.876.103c.231.283.18.67-.103.876zm3.401 2.989a.869.869 0 00-1.237-.154.868.868 0 00-.154 1.236.868.868 0 001.236.155.868.868 0 00.155-1.237zm-.309 1.03a.64.64 0 01-.876-.102.643.643 0 01.103-.876.64.64 0 01.876.103c.231.283.18.67-.103.876zm2.189 2.835a.867.867 0 00-.155 1.236.868.868 0 001.237.155.87.87 0 00.154-1.237.919.919 0 00-1.236-.154zm.901 1.185a.64.64 0 01-.876-.103.64.64 0 01.103-.876.64.64 0 01.876.103.595.595 0 01-.103.876zm2.19 2.834a.867.867 0 00-.155 1.236.923.923 0 00.464.309l.155-.231a.67.67 0 01-.413-.232.64.64 0 01.103-.876.64.64 0 01.876.103c.026.026.026.051.052.077l.154-.232a.919.919 0 00-1.236-.154zM161.036 81.03a.869.869 0 00.154-1.236.869.869 0 00-1.237-.155.869.869 0 00-.154 1.237.92.92 0 001.237.154zm-.902-1.185a.64.64 0 01.876.103.64.64 0 01-.103.876.64.64 0 01-.876-.103.64.64 0 01.103-.876zm3.993 5.205a.869.869 0 00.154-1.237.868.868 0 00-1.236-.155.868.868 0 00-.155 1.237c.309.36.876.438 1.237.154zm-.902-1.186a.64.64 0 01.876.103.64.64 0 01-.103.876.64.64 0 01-.876-.103.64.64 0 01.103-.876zm3.993 5.204a.868.868 0 00.154-1.236.867.867 0 00-1.236-.155.868.868 0 00-.155 1.237c.309.36.876.438 1.237.154zm-.902-1.185a.64.64 0 01.876.103.64.64 0 01-.103.876.64.64 0 01-.876-.103.64.64 0 01.103-.876zm2.783 5.05a.867.867 0 001.236.154.868.868 0 00.155-1.236.869.869 0 00-1.237-.155.894.894 0 00-.154 1.237zm.309-1.03a.64.64 0 01.876.102.64.64 0 01-.103.876.64.64 0 01-.876-.103.64.64 0 01.103-.876zm4.173 3.992a.869.869 0 00-1.237-.154.869.869 0 00-.154 1.236.867.867 0 001.236.155c.361-.31.438-.876.155-1.237zm-.309 1.005a.64.64 0 01-.876-.103.64.64 0 01.103-.876.64.64 0 01.876.103.64.64 0 01-.103.876zm2.164 2.834a.869.869 0 00-.154 1.237.868.868 0 001.236.154.868.868 0 00.155-1.236c-.283-.361-.85-.438-1.237-.155zm.928 1.185a.64.64 0 01-.876-.103.64.64 0 01.103-.876.64.64 0 01.876.103.64.64 0 01-.103.876zm2.189 2.834a.867.867 0 00-.154 1.236.867.867 0 001.236.155.868.868 0 00.155-1.237c-.309-.36-.876-.438-1.237-.154zm.902 1.185a.64.64 0 01-.876-.103.64.64 0 01.103-.876.64.64 0 01.876.103.64.64 0 01-.103.876zm2.19 2.86a.867.867 0 00-.154 1.236.867.867 0 001.236.155.868.868 0 00.155-1.237c-.309-.386-.85-.463-1.237-.154zm.902 1.159a.64.64 0 01-.876-.103.64.64 0 01.103-.876.64.64 0 01.876.103.64.64 0 01-.103.876zm-29.24-28.39a.869.869 0 00.154-1.237.867.867 0 00-1.236-.155.868.868 0 00-.155 1.237.92.92 0 001.237.155zm-.902-1.185a.64.64 0 01.876.102.64.64 0 01-.103.877.64.64 0 01-.876-.104.596.596 0 01.103-.876zm3.993 5.204a.868.868 0 00.154-1.237.868.868 0 00-1.236-.155.868.868 0 00-.155 1.237.92.92 0 001.237.155zm-.902-1.186a.64.64 0 01.876.104.64.64 0 01-.103.875.64.64 0 01-.876-.103.596.596 0 01.103-.876zm3.71 5.36a.611.611 0 00.283-.155.869.869 0 00.155-1.237.869.869 0 00-1.237-.154.85.85 0 00-.258 1.056c.129.051.232.103.335.154.284.103.515.206.722.335zm-.619-1.34a.64.64 0 01.876.103.64.64 0 01-.103.876.64.64 0 01-.876-.103.596.596 0 01.103-.876zm3.092 4.019a.64.64 0 01.876.103.64.64 0 01-.103.876.64.64 0 01-.876-.104.192.192 0 01-.051-.103c-.026.103-.052.207-.103.31a.876.876 0 001.185.103.869.869 0 00.154-1.237.864.864 0 00-1.211-.18c.026.103.026.206.026.309.026 0 .052-.052.103-.078zm2.783 5.049a.869.869 0 001.237.154.869.869 0 00.154-1.236.867.867 0 00-1.236-.155c-.387.31-.464.85-.155 1.237zm.309-1.03a.64.64 0 01.876.103.64.64 0 01-.103.875.64.64 0 01-.876-.103.596.596 0 01.103-.876zm4.147 3.992a.869.869 0 00-1.237-.154.869.869 0 00-.154 1.237.868.868 0 001.236.154c.387-.309.464-.85.155-1.236zm-.309 1.005a.64.64 0 01-.876-.103.64.64 0 01.103-.876.64.64 0 01.876.103c.232.284.18.67-.103.876zm2.19 2.834a.868.868 0 00-.155 1.237.868.868 0 001.237.154.868.868 0 00.154-1.236.92.92 0 00-1.236-.155zm.901 1.185a.64.64 0 01-.876-.103.64.64 0 01.104-.876.64.64 0 01.875.103.595.595 0 01-.103.876zm2.19 2.86a.868.868 0 00-.155 1.236.868.868 0 001.237.155.87.87 0 00.155-1.237c-.31-.386-.851-.463-1.237-.154zm.902 1.185a.64.64 0 01-.876-.103.64.64 0 01.103-.876.64.64 0 01.876.103c.232.258.18.644-.103.876zm3.427 2.988a.87.87 0 00-1.237-.154.868.868 0 00-.155 1.236c.078.104.181.181.31.258.128-.051.231-.103.36-.154-.18 0-.335-.104-.463-.232a.639.639 0 01.103-.876.64.64 0 01.876.103c.18.232.154.515 0 .747.128-.052.231-.103.36-.18a.956.956 0 00-.154-.748zm-32.667-31.404a.869.869 0 00.154-1.237.867.867 0 00-1.236-.154.868.868 0 00-.155 1.236.92.92 0 001.237.155zm-.902-1.185a.64.64 0 01.876.103.64.64 0 01-.103.876.64.64 0 01-.876-.103.64.64 0 01.103-.876zm3.993 5.204a.869.869 0 00.154-1.237.867.867 0 00-1.236-.154.868.868 0 00-.155 1.236.895.895 0 001.237.155zm-.902-1.185a.64.64 0 01.876.103.64.64 0 01-.103.876.64.64 0 01-.876-.103.64.64 0 01.103-.876zm10.152 12.185a.64.64 0 01-.104.876.639.639 0 01-.875-.103c-.181-.232-.155-.515 0-.747a6.872 6.872 0 01-.335.077c-.103.258-.052.567.128.825a.869.869 0 001.237.154.868.868 0 00.155-1.236.204.204 0 00-.103-.103 6.872 6.872 0 01-.335.077c.103.026.18.103.232.18zm3.297 3.865a.869.869 0 00-1.237-.155.869.869 0 00-.154 1.237.87.87 0 001.237.155.896.896 0 00.154-1.237zm-.309 1.005a.64.64 0 01-.876-.103.64.64 0 01.103-.876.64.64 0 01.876.103.64.64 0 01-.103.876zm3.4 3.014a.867.867 0 00-1.236-.155.868.868 0 00-.155 1.237.869.869 0 001.237.154.893.893 0 00.154-1.236zm-.309 1.03a.64.64 0 01-.876-.103.64.64 0 01.103-.876.64.64 0 01.876.103c.206.258.155.644-.103.876zm2.189 2.834a.87.87 0 00-.154 1.237.867.867 0 001.236.154.867.867 0 00.155-1.236c-.309-.387-.876-.464-1.237-.155zm.902 1.185a.64.64 0 01-.876-.103.64.64 0 01.103-.876.64.64 0 01.876.103.64.64 0 01-.103.876zm2.19 2.834a.87.87 0 00-.154 1.237.867.867 0 001.236.154.867.867 0 00.155-1.236c-.309-.387-.85-.464-1.237-.155zm.902 1.185a.64.64 0 01-.876-.103.64.64 0 01.103-.876.64.64 0 01.876.103.64.64 0 01-.103.876zM137.823 79.64a.868.868 0 00.154-1.237.868.868 0 00-1.236-.155.868.868 0 00-.155 1.237.92.92 0 001.237.154zm-.902-1.186a.64.64 0 01.876.103.64.64 0 01-.103.876.64.64 0 01-.876-.103.596.596 0 01.103-.876zm3.994 5.204a.868.868 0 00.154-1.237.868.868 0 00-1.236-.154.868.868 0 00-.155 1.237.895.895 0 001.237.154zm-.902-1.185a.64.64 0 01.876.103.64.64 0 01-.103.876.64.64 0 01-.876-.103.596.596 0 01.103-.876zm10.021 13.036a.64.64 0 01-.876-.103.623.623 0 01.052-.799c-.103 0-.207-.025-.31-.025-.18.309-.18.695.052.979a.869.869 0 001.237.154.854.854 0 00.283-.979c-.103 0-.206-.026-.309-.026a.574.574 0 01-.129.799zm3.401 3.014a.868.868 0 00-1.237-.154.869.869 0 00-.154 1.236.867.867 0 001.236.155c.387-.31.464-.85.155-1.237zm-.309 1.005a.64.64 0 01-.876-.103.64.64 0 01.103-.876.64.64 0 01.876.103c.232.283.18.67-.103.876zm3.426 3.014a.867.867 0 00-1.236-.154.867.867 0 00-.155 1.236.868.868 0 001.237.155.92.92 0 00.154-1.237zm-.335 1.031a.64.64 0 01-.875-.103.639.639 0 01.103-.876.64.64 0 01.876.103c.231.257.18.67-.104.876zm2.19 2.834a.867.867 0 00-.155 1.236.868.868 0 001.237.155.868.868 0 00.154-1.237c-.309-.386-.85-.464-1.236-.154zm.902 1.185a.64.64 0 01-.876-.103.64.64 0 01.103-.876.64.64 0 01.876.103c.231.283.18.67-.103.876zm2.19 2.833a.868.868 0 00-.154 1.237.868.868 0 001.236.155.868.868 0 00.155-1.237c-.309-.386-.85-.464-1.237-.155zm.902 1.185a.639.639 0 01-.876-.103.64.64 0 01.103-.876.64.64 0 01.876.104.595.595 0 01-.103.875zm2.19 2.834a.868.868 0 00-.154 1.237.867.867 0 001.236.154.867.867 0 00.155-1.236.895.895 0 00-1.237-.155zm.902 1.185a.64.64 0 01-.876-.103.64.64 0 01.103-.876.64.64 0 01.876.103c.232.284.18.67-.103.876zm-35.425-36.454a.868.868 0 00.155-1.236.869.869 0 00-1.237-.155.869.869 0 00-.154 1.237.894.894 0 001.236.154zm-.901-1.185a.64.64 0 01.876.103.64.64 0 01-.103.876.64.64 0 01-.876-.103.595.595 0 01.103-.876zm3.993 5.205a.869.869 0 00.154-1.237.867.867 0 00-1.236-.155.868.868 0 00-.155 1.237.895.895 0 001.237.154zm-.902-1.186a.64.64 0 01.876.103.64.64 0 01-.103.876.64.64 0 01-.876-.103.64.64 0 01.103-.876zm2.936 4.2c.026-.052.078-.13.155-.155a.622.622 0 01.799.052c.103 0 .206-.026.309-.026 0-.026-.026-.026-.052-.052a.868.868 0 00-1.52.258.777.777 0 01.309-.078zm7.086 8.836a.64.64 0 01-.876-.103.665.665 0 01-.026-.721h-.283a.892.892 0 00.103.876.867.867 0 001.236.154.883.883 0 00.284-1.005h-.284a.58.58 0 01-.154.8zm3.426 3.015a.867.867 0 00-1.236-.155.868.868 0 00-.155 1.236.869.869 0 001.237.155.92.92 0 00.154-1.237zm-.309 1.03a.64.64 0 01-.876-.103.64.64 0 01.103-.876.64.64 0 01.876.103.643.643 0 01-.103.876zm3.4 2.988a.868.868 0 00-1.236-.154.867.867 0 00-.155 1.236.868.868 0 001.237.155.894.894 0 00.154-1.237zm-.309 1.031a.64.64 0 01-.876-.103.64.64 0 01.103-.876.64.64 0 01.876.103.64.64 0 01-.103.876zm2.19 2.834a.867.867 0 00-.154 1.236.867.867 0 001.236.155.868.868 0 00.155-1.237c-.309-.386-.876-.463-1.237-.154zm.902 1.185a.64.64 0 01-.876-.103.64.64 0 01.103-.876.64.64 0 01.876.103.64.64 0 01-.103.876zm2.189 2.834a.868.868 0 00-.154 1.236.867.867 0 001.236.155.868.868 0 00.155-1.237c-.309-.386-.85-.463-1.237-.154zm.902 1.185a.64.64 0 01-.876-.103.64.64 0 01.103-.876.64.64 0 01.876.103.64.64 0 01-.103.876zm2.19 2.834a.868.868 0 00-.154 1.236.867.867 0 001.236.155.868.868 0 00.155-1.237.894.894 0 00-1.237-.154zm.902 1.185a.64.64 0 01-.876-.103.64.64 0 01.103-.876.643.643 0 01.876.103.64.64 0 01-.103.876zm-36.66-36.609a.869.869 0 001.237.155.869.869 0 00.154-1.237 1.342 1.342 0 00-.283-.257l-1.005.154c-.335.31-.361.825-.103 1.185zm.309-1.03a.64.64 0 01.876.103.64.64 0 01-.103.876.64.64 0 01-.876-.103.64.64 0 01.103-.876zm4.02 5.203a.869.869 0 00.154-1.236.868.868 0 00-1.236-.155.868.868 0 00-.155 1.237c.309.387.85.464 1.237.155zm-.902-1.184a.64.64 0 01.876.103.64.64 0 01-.103.876.64.64 0 01-.876-.104.596.596 0 01.103-.876zm3.993 5.204a.869.869 0 00.155-1.237c-.31-.386-.851-.464-1.237-.154a.869.869 0 00-.155 1.236c.31.386.851.464 1.237.155zm-.902-1.185a.64.64 0 01.876.103.64.64 0 01-.103.876.64.64 0 01-.876-.103.596.596 0 01.103-.876zm6.93 9.042a.64.64 0 01-.876-.103c-.051-.077-.103-.154-.103-.232h-.283a.878.878 0 00.18.387.869.869 0 001.237.154c.18-.154.309-.36.335-.566h-.258a.627.627 0 01-.232.36zm3.401 2.989a.869.869 0 00-1.237-.155.868.868 0 00-.154 1.237.867.867 0 001.236.154c.387-.309.464-.85.155-1.236zm-.309 1.03a.64.64 0 01-.876-.103.64.64 0 01.103-.876.64.64 0 01.876.103c.232.284.18.67-.103.876zm3.401 2.989a.868.868 0 00-1.237-.155.869.869 0 00-.154 1.237.868.868 0 001.236.154c.387-.309.464-.85.155-1.236zm-.309 1.03a.64.64 0 01-.876-.103.64.64 0 01.103-.876.64.64 0 01.876.103c.232.284.18.67-.103.876zm2.189 2.834a.87.87 0 00-.155 1.237c.31.386.851.463 1.237.154a.868.868 0 00.155-1.236c-.31-.387-.851-.464-1.237-.155zm.902 1.185a.643.643 0 01-.876-.103.64.64 0 01.103-.876.64.64 0 01.876.103c.232.284.18.67-.103.876zm2.189 2.834a.87.87 0 00-.155 1.237.87.87 0 001.237.154.868.868 0 00.155-1.236.895.895 0 00-1.237-.155zm.902 1.185a.64.64 0 01-.876-.103.64.64 0 01.103-.876.64.64 0 01.876.103c.232.283.18.67-.103.876zm2.19 2.834a.87.87 0 00-.155 1.237.87.87 0 001.237.154.867.867 0 00.155-1.236.895.895 0 00-1.237-.155zm.902 1.185a.64.64 0 01-.876-.103.64.64 0 01.103-.876.64.64 0 01.876.103c.232.284.18.67-.103.876zm2.189 2.834a.838.838 0 00-.283.386h.283c.026-.051.077-.129.155-.154a.64.64 0 01.876.103v.025h.283c-.026-.051-.051-.103-.103-.154a.847.847 0 00-1.211-.206zm-34.521-35.269a.869.869 0 00.154-1.237.868.868 0 00-1.236-.154.868.868 0 00-.155 1.236c.309.387.85.464 1.237.155zm-.902-1.185a.64.64 0 01.876.103.64.64 0 01-.103.876.64.64 0 01-.876-.103.64.64 0 01.103-.876zm3.994 5.204a.869.869 0 00.154-1.237.867.867 0 00-1.236-.154.868.868 0 00-.155 1.237c.309.386.85.463 1.237.154zm-.902-1.185a.64.64 0 01.876.103.644.644 0 01-.103.876.64.64 0 01-.876-.103.64.64 0 01.103-.876zm3.992 5.204a.869.869 0 00.155-1.237.869.869 0 00-1.237-.154.869.869 0 00-.155 1.236c.31.387.876.464 1.237.155zm-.902-1.185a.64.64 0 01.876.103.643.643 0 01-.103.876.64.64 0 01-.876-.103.644.644 0 01.103-.876zm2.937 3.838a.869.869 0 00-.154 1.237.867.867 0 001.236.155.868.868 0 00.155-1.237c-.309-.386-.85-.464-1.237-.155zm.902 1.185a.64.64 0 01-.876-.103.64.64 0 01.103-.876.64.64 0 01.876.103c.232.284.18.67-.103.876zm3.427 2.989a.868.868 0 00-1.237-.155.869.869 0 00-.154 1.237.868.868 0 001.236.155.92.92 0 00.155-1.237zm-.309 1.03a.64.64 0 01-.876-.103.64.64 0 01.103-.876.64.64 0 01.876.103.64.64 0 01-.103.876zm3.4 2.989a.868.868 0 00-1.236-.155.868.868 0 00-.155 1.237.87.87 0 001.237.155.92.92 0 00.154-1.237zm-.309 1.03a.639.639 0 01-.876-.103.64.64 0 01.103-.875.639.639 0 01.876.103.639.639 0 01-.103.875zm2.165 2.834a.868.868 0 00-.155 1.237.868.868 0 001.237.154.867.867 0 00.154-1.236c-.283-.387-.85-.438-1.236-.155zm.927 1.185a.64.64 0 01-.876-.103.64.64 0 01.103-.876.64.64 0 01.876.103.64.64 0 01-.103.876zm2.189 2.834a.87.87 0 00-.154 1.237.868.868 0 001.236.155.868.868 0 00.155-1.237.897.897 0 00-1.237-.155zm.902 1.185a.639.639 0 01-.876-.103.64.64 0 01.103-.876.64.64 0 01.876.103.64.64 0 01-.103.876zm2.19 2.834a.869.869 0 00-.154 1.237.868.868 0 001.236.154.867.867 0 00.155-1.236.92.92 0 00-1.237-.155zm.902 1.185a.64.64 0 01-.876-.103.64.64 0 01.103-.876.64.64 0 01.876.103.64.64 0 01-.103.876zm3.401 2.989a.868.868 0 00-1.237-.155c-.232.18-.361.464-.335.721h.258a.624.624 0 01.232-.541.64.64 0 01.876.103c.103.129.154.31.128.464h.258c.026-.154-.026-.386-.18-.592zm-35.733-35.424a.914.914 0 00.206-1.185c-.077.026-.154.078-.231.103a.64.64 0 01-.104.876.639.639 0 01-.875-.103c-.052-.051-.078-.129-.104-.18-.077.051-.154.077-.231.129.025.077.077.154.128.231a.857.857 0 001.211.13zm3.091 4.019a.868.868 0 00.155-1.236.869.869 0 00-1.237-.155.868.868 0 00-.154 1.237c.309.386.85.463 1.236.154zm-.902-1.185a.643.643 0 01.876.103.639.639 0 01-.103.876.64.64 0 01-.876-.103.599.599 0 01.103-.876zm3.994 5.204a.868.868 0 00.155-1.236.869.869 0 00-1.237-.155.868.868 0 00-.154 1.237c.309.386.85.463 1.236.154zm-.901-1.16a.639.639 0 01.875.104.639.639 0 01-.103.876.64.64 0 01-.876-.103.596.596 0 01.104-.876zm2.755 5.024a.868.868 0 001.237.155.869.869 0 00.154-1.237.868.868 0 00-1.236-.154.92.92 0 00-.155 1.236zm.335-1.004a.64.64 0 01.876.103.64.64 0 01-.103.876.64.64 0 01-.876-.103.596.596 0 01.103-.876zm4.148 3.967a.869.869 0 00-1.237-.154.869.869 0 00-.154 1.236.867.867 0 001.236.155c.387-.31.464-.85.155-1.237zm-.309 1.03a.64.64 0 01-.876-.102.64.64 0 01.103-.876.64.64 0 01.876.103c.232.283.18.67-.103.876zm3.401 2.989a.868.868 0 00-1.237-.154.868.868 0 00-.154 1.236.867.867 0 001.236.155c.387-.309.464-.85.155-1.237zm-.309 1.031a.64.64 0 01-.876-.103.64.64 0 01.103-.876.64.64 0 01.876.103c.232.283.18.67-.103.876zm2.19 2.833a.87.87 0 00-.155 1.237.87.87 0 001.237.155.87.87 0 00.155-1.237.896.896 0 00-1.237-.155zm.902 1.186a.64.64 0 01-.876-.104.639.639 0 01.103-.875.639.639 0 01.876.103.596.596 0 01-.103.876zm2.189 2.833a.868.868 0 00-.154 1.237.868.868 0 001.236.155.868.868 0 00.155-1.237.92.92 0 00-1.237-.155zm.902 1.186a.64.64 0 01-.876-.104.639.639 0 01.103-.875.639.639 0 01.876.103.596.596 0 01-.103.876zm2.189 2.833a.868.868 0 00-.154 1.237.867.867 0 001.236.155.868.868 0 00.155-1.237.92.92 0 00-1.237-.155zm.902 1.186a.64.64 0 01-.876-.103.64.64 0 01.103-.876.639.639 0 01.876.103.596.596 0 01-.103.876zm3.426 3.014a.867.867 0 00-1.236-.155.83.83 0 00-.335.593c.077 0 .18.025.258.025a.67.67 0 01.231-.412.64.64 0 01.876.103.65.65 0 01.129.412c.077 0 .18.026.258.026a1 1 0 00-.181-.592zm-32.667-31.43a.868.868 0 00.155-1.237.803.803 0 00-.412-.31c-.078.078-.181.13-.258.207a.55.55 0 01.464.232.64.64 0 01-.103.876.64.64 0 01-.876-.103.678.678 0 01-.129-.438c-.077.077-.155.128-.232.206l-.026.025a.912.912 0 00.155.361c.335.412.876.49 1.262.18zm3.092 4.044a.868.868 0 00.155-1.236.869.869 0 00-1.237-.155.869.869 0 00-.155 1.237.92.92 0 001.237.154zm-.902-1.185a.64.64 0 01.876.103.64.64 0 01-.103.876.64.64 0 01-.876-.103.64.64 0 01.103-.876zm4.174 3.968a.867.867 0 00-1.236-.155.868.868 0 00-.155 1.237.869.869 0 001.237.154.92.92 0 00.154-1.236zm-.335 1.03a.64.64 0 01-.876-.103.64.64 0 01.103-.876.64.64 0 01.876.103.595.595 0 01-.103.876zm3.426 2.988a.867.867 0 00-1.236-.154.868.868 0 00-.155 1.237.869.869 0 001.237.154.92.92 0 00.154-1.237zm-.335 1.031a.64.64 0 01-.876-.103.64.64 0 01.103-.876.64.64 0 01.876.103.595.595 0 01-.103.876zm3.427 2.989a.867.867 0 00-1.236-.155.868.868 0 00-.155 1.237.869.869 0 001.237.154.919.919 0 00.154-1.236zm-.309 1.03a.64.64 0 01-.876-.103.64.64 0 01.103-.876.64.64 0 01.876.103.64.64 0 01-.103.876zm2.165 2.834a.867.867 0 00-.155 1.236.868.868 0 001.237.155.869.869 0 00.154-1.237c-.283-.386-.85-.438-1.236-.154zm.927 1.185a.64.64 0 01-.876-.103.64.64 0 01.103-.876.64.64 0 01.876.103.64.64 0 01-.103.876zm2.189 2.834a.868.868 0 00-.154 1.236.867.867 0 001.236.155.868.868 0 00.155-1.237c-.309-.36-.876-.438-1.237-.154zm.902 1.185a.64.64 0 01-.876-.103.64.64 0 01.103-.876.64.64 0 01.876.103.64.64 0 01-.103.876zm2.189 2.834a.868.868 0 00-.154 1.236.867.867 0 001.236.155.868.868 0 00.155-1.237c-.309-.36-.876-.438-1.237-.154zm.902 1.185a.64.64 0 01-.876-.103.64.64 0 01.103-.876.64.64 0 01.876.103.64.64 0 01-.103.876zm2.191 2.834l-.155.154c.103.026.206.026.335.052a.665.665 0 01.85.103c.103.026.206.026.335.051-.026-.051-.052-.129-.103-.18-.335-.386-.876-.464-1.262-.18zm-25.093-24.423a.869.869 0 00-1.237-.155.869.869 0 00-.154 1.237.867.867 0 001.236.154c.387-.309.464-.85.155-1.236zm-.309 1.03a.64.64 0 01-.876-.103.64.64 0 01.103-.876.64.64 0 01.876.103.64.64 0 01-.103.876zm3.4 2.988a.869.869 0 00-1.237-.154.869.869 0 00-.154 1.237.867.867 0 001.236.154c.387-.309.464-.85.155-1.236zm-.309 1.031a.64.64 0 01-.876-.103.64.64 0 01.103-.876.64.64 0 01.876.103.64.64 0 01-.103.876zm2.19 2.834a.868.868 0 00-.155 1.237c.309.386.85.463 1.237.154a.867.867 0 00.154-1.236.894.894 0 00-1.236-.155zm.902 1.185a.64.64 0 01-.876-.103.64.64 0 01.103-.876.64.64 0 01.876.103c.231.284.18.67-.103.876zm2.189 2.834a.868.868 0 00-.154 1.237.868.868 0 001.236.154.867.867 0 00.155-1.236.92.92 0 00-1.237-.155zm.902 1.185a.64.64 0 01-.876-.103.64.64 0 01.103-.876.64.64 0 01.876.103c.232.284.18.67-.103.876zm2.19 2.834a.868.868 0 00-.154 1.237.868.868 0 001.236.154.867.867 0 00.155-1.236.92.92 0 00-1.237-.155zm.902 1.185a.64.64 0 01-.876-.103.64.64 0 01.103-.876.64.64 0 01.876.103c.232.283.18.67-.103.876zm2.189 2.834a.869.869 0 00-.154 1.237.868.868 0 001.236.154.867.867 0 00.155-1.236.92.92 0 00-1.237-.155zm.902 1.185a.64.64 0 01-.876-.103.64.64 0 01.103-.876.644.644 0 01.876.103c.232.284.18.67-.103.876zm-19.786-17.57a.731.731 0 00-.257-.232c0 .103-.026.206-.026.31.026.025.052.05.077.077a.612.612 0 01-.103.85v.309l.155-.077a.92.92 0 00.154-1.237zm1.855 3.864a.868.868 0 00-.155 1.237.868.868 0 001.237.155.869.869 0 00.154-1.237.919.919 0 00-1.236-.155zm.901 1.186a.641.641 0 01-.876-.103.64.64 0 01.104-.876.639.639 0 01.875.103.596.596 0 01-.103.876zm2.191 2.833a.868.868 0 00-.155 1.237.868.868 0 001.237.154.868.868 0 00.154-1.236c-.283-.361-.85-.438-1.236-.155zm.927 1.185a.64.64 0 01-.876-.103.64.64 0 01.103-.876.64.64 0 01.876.103.64.64 0 01-.103.876zm2.164 2.834a.87.87 0 00-.155 1.237.87.87 0 001.237.155.868.868 0 00.155-1.237c-.284-.361-.851-.438-1.237-.155zm.928 1.185a.639.639 0 01-.876-.103.64.64 0 01.103-.876.641.641 0 01.876.103.64.64 0 01-.103.876zm3.4 3.015a.867.867 0 00-1.236-.155.806.806 0 00-.335.644c.077.026.18.077.257.103a.569.569 0 01.232-.541.64.64 0 01.876.103.61.61 0 01-.103.85c.077.026.18.078.258.103a.857.857 0 00.051-1.107z" fill="#fff"/><path d="M127.802 116.171c10.665 1.262 21.537 2.215 32.306.85 6.544-.85 14.736-2.911 20.404-6.312 6.904-4.148 9.867-10.151 8.527-17.957-.618-3.89-2.37-6.956-4.972-9.3 5.951 4.92 7.007 14.17 4.225 19.966-5.307 11.593-25.994 14.968-38.953 14.814-7.239-.104-14.427-.928-21.537-2.061z" fill="#7C1D7C"/><path d="M143.826 41.382l.464 10.047h3.632l.799-10.047h-4.895z" fill="#E9084E"/><path d="M143.826 41.382h4.895l-.799 10.047 1.289-10.047h-5.385z" fill="#000"/><path d="M145.32 42.748a.36.36 0 100-.721.36.36 0 000 .72z" fill="#E3E4FF"/><path d="M141.25 45.272c-.335.129-1.932 3.659-2.911 6.157-.979 2.5-1.134 16.926.232 17.802 1.365.85 12.597-4.843 12.597-4.843l7.343-11.516s-4.586.026-8.219 3.633c-3.632 3.632-5.693 7.29-7.522 7.29-1.829 0-2.164-11.232-1.314-12.932.85-1.7 2.808-1.108 3.272-1.572.463-.464.386-.979.386-.979s.799.077.953-.309c.155-.386.181-.773.181-.773s1.906-.283 1.906-.695c0-.387-.67-.413-1.777-.258-1.108.18-1.958.103-2.139.103-.283 0 1.082-.773 2.035-1.005.928-.232 1.984-.876 1.984-1.365 0-.49-1.649.335-2.962.54-1.314.233-3.272.439-4.045.722z" fill="#FD9B9B"/><path d="M156.758 32.958c.876.334-1.572-1.495-3.813 0-2.216 1.494-2.576 3.993-1.984 5.307.567 1.313-.335.85-.618 2.653s-1.314 1.34-.567 2.989c.747 1.674-.257 1.494-.257 2.524s.386.232.618 1.314c.232 1.082-1.366.902-1.366.902s.516 1.417 1.598 1.7a2.622 2.622 0 001.932-.257l-.052-2.32.979 2.654s1.16-1.288 2.113-.334c.953.953 2.628.489 2.628.489s-1.881-2.576-2.164-2.86c-.284-.283-1.366-1.416-.516-3.53.851-2.112.232-2.395.232-4.379-.077-2.01 1.237-6.852 1.237-6.852z" fill="#011C2D"/><path d="M166.471 53.645s-3.375-1.804-8.45-.696c-2.293.49-4.096 2.293-4.715 4.56-.592 2.242-1.494 5.178-2.473 6.724-1.7 2.731 0 6.621 0 6.621l-.773 5.359-8.347 5.255-25.324-10.614S91.296 94.453 88.797 95.02c-2.499.567-5.127-1.803-5.694-3.478-.566-1.674-2.164 1.984 0 4.148 2.165 2.164 3.35 1.7 3.942 3.118.593 1.416 1.185 1.932 1.752 1.932s1.7-1.7 2.86-3.298c1.159-1.597 21.692-13.525 23.057-14.865 1.34-1.34 2.216-3.091 2.216-3.091s15.045 8.089 24.629 10.897c9.583 2.834 13.68.258 15.56-1.623 1.881-1.88 3.942-7.729 3.942-7.729l7.78-14.195s4.74 5.204 3.993 10.15c-.747 4.973-9.377 8.657-10.227 8.657-.851 0-2.912 1.365-3.762 2.215-.85.85-.824 3.015-.438 3.813l-.051-.103c.026.078.206.464.515.464.206 0 .335-.515.412-.876-.026.438-.026 1.108.309 1.314.31.206.464-.283.516-.67-.026.412.025.927.386.98.567.102.928-1.392 1.056-1.83.129-.438-.309 1.108 0 1.21.309.104.593-1.313 1.752-2.472 1.159-1.16 7.703-2.989 9.97-3.994 2.267-1.03 6.93-3.967 6.93-8.244.026-4.302-8.012-21.589-13.731-23.804z" fill="#FD9B9B"/><path d="M157.146 88.81c1.88-1.88 3.941-7.728 3.941-7.728l7.781-14.195s-10.563-5.565-17.313-3.968c-.232.516-.464.98-.695 1.366-1.701 2.73 0 6.62 0 6.62l-.773 5.36-8.373 5.204s1.082 7.213 1.082 9.016c0 .103 0 .18.026.284 8.682 2.241 12.52-.18 14.324-1.958z" fill="#E9084E"/><path d="M151.581 91.49c2.86-.438 4.56-1.674 5.565-2.705 1.88-1.88 3.941-7.729 3.941-7.729l7.781-14.195s-3.504-1.855-7.755-3.117c.026 2.138.129 13.32-.592 14.788-.799 1.623-6.956 1.7-6.364 2.782.567 1.082 4.071 1.262 2.628 2.73-1.468 1.47-3.581-.875-3.993 1.186-.438 2.06 1.726 4.225-1.211 6.26z" fill="#B80543"/><path d="M168.866 66.861c-4.07-1.597-11.824-4.534-16.204-4.07-.361.051-.747.077-1.134.103 3.968-1.289 9.481.206 13.294 1.88 1.391.618 2.756 1.263 4.044 2.087z" fill="#fff"/><path d="M158.974 35.56c-3.53-1.314-7.085 2.112-6.363 5.41.386 1.829 1.03 1.983.747 3.53-.284 1.545 2.061 6.569 5.358 6.053 3.298-.515 4.045-3.374 4.509-6.672.309-2.37-.747-7.007-4.251-8.321z" fill="#FD9B9B"/><path d="M153.307 37.105s.927.464 1.082.567c.515.31 1.777 1.005 3.787 1.263 2.679.334 2.473 2.421 3.091 3.014.593.592 1.984.412 1.984 2.473 0 2.035.464 3.58-.799 4.277 0 0 .103 1.262 1.829 1.262h1.701v-1.778l.747 1.778s1.391-.721 2.112 0c.722.721 2.963-1.366 2.963-1.366s-1.494 1.03-1.494-1.313c0-2.345 1.056-3.066-.232-4.354-1.288-1.288-2.061-1.005-1.597-2.448.463-1.417-1.494-1.829-2.448-3.761-.979-1.932-4.25-3.04-5.255-4.045s-4.277-1.649-5.694.335c-1.391 1.984-1.777 4.096-1.777 4.096z" fill="#011C2D"/><path d="M161.834 43.288s-.103-2.009 1.057-1.777c1.159.232 1.004 1.906.36 2.885-.618 1.005-1.417-.103-1.417-1.108z" fill="#FD9B9B"/><path d="M153.306 95.174c-5.307-1.108-15.071-1.056-21.537-.902-5.745-1.133-10.795-1.829-10.795-.515 0 2.808-11.541 24.037-11.541 25.402 0 1.365 1.185 3.504-.85 3.504-2.061 0-2.731 3.091-4.792 3.684-2.061.592-5.127-.696-2.808-1.366 2.318-.695 3.091-2.911 4.276-5.564 1.185-2.654 9.842-33.724 9.842-33.724 6.414-3.529 39.931-.824 42.353 2.5 1.417 2.009-1.133 4.972-4.148 6.981z" fill="#FD7B77"/><path d="M113.168 114.161s7.909-1.881 11.954-.361c4.044 1.52 10.511 2.731 13.01 3.118 2.499.36 15.792-3.143 20.842-1.83 5.049 1.314 13.164 3.246 16.359 2.551 3.194-.696 6.054-4.843 9.97-3.839 3.916 1.005 11.619 3.118 11.619 3.118s-48.228 6.955-55.853 5.848c-7.652-1.108-27.901-8.605-27.901-8.605z" fill="#066EBA"/><path d="M156.501 111.173s4.019-3.298 6.415-3.298 1.417 1.984 0 2.267c-1.417.283-6.415 1.031-6.415 1.031z" fill="#B1B5F5"/><path d="M188.37 106.587s1.675-5.307 6.467-5.797c4.791-.515 5.461 3.684 3.168 3.684-2.318-.025-9.635 2.113-9.635 2.113zm7.625-9.79a.98.98 0 100-1.959.98.98 0 000 1.96zm3.942-3.787a1.263 1.263 0 100-2.526 1.263 1.263 0 000 2.526z" fill="#027CCD"/><path d="M105.414 106.999s-3.993-3.117-7.42-1.803c-3.426 1.314-6.286 2.37-8.398 2.37-2.113 0-4.07 3.942-4.07 3.942l22.413-.696-2.525-3.813z" fill="#066EBA"/><path d="M162.195 43.082s.026-1.056.593-.85c.567.18.464 1.443 0 1.932-.464.438-.593-1.082-.593-1.082z" fill="#FD7B77"/><path d="M164.436 55.088c-1.726 5.796 1.159 7.6 3.813 10.717-2.757-2.138-5.075-4.251-4.715-7.729a7.901 7.901 0 01.902-2.988z" fill="#FE9E9C"/><path d="M155.136 45.761c.335-.386.309-1.34.206-1.88-.077 1.803-.387 1.777-.412 1.855.051.077.051.18.36.309.361.154.799.051 1.16-.077-.387.077-1.057.128-1.314-.207z" fill="#2846A6"/><path d="M158.613 46.663l-2.757 1.16s1.005 1.365 2.061.54c1.057-.85.696-1.7.696-1.7z" fill="#fff"/><path d="M155.729 42.85s.025-.721.772-1.262c.748-.541 2.319-.36 2.319-.36s-1.778.231-2.216.746c-.412.49-.489.8-.489.8l-.386.076z" fill="#172866"/><path d="M154.801 44.087c-.309-.541-.979-.876-1.545-.644-.516.232-.85.799-1.34.902.283.103.567-.026.799-.155.463-.258.695-.592 1.339-.412.258.051.516.154.747.309zm1.803-.103c.052-.618.541-1.21 1.186-1.237.566 0 1.133.387 1.623.258-.232.206-.567.206-.825.18-.541-.051-.901-.257-1.443.18a2.138 2.138 0 00-.541.619z" fill="#34173A"/><path d="M154.208 43.134l.438-.026s-.257-.721-1.21-1.03a1.716 1.716 0 00-.541-.078c.051.13.103.258.128.36.155.027.31.078.413.13.592.36.772.644.772.644z" fill="#172866"/><path d="M60.446 83.42l22.388-11.155a3.433 3.433 0 014.276 1.005c5.024 6.672 19.374 25.66 20.662 25.66 1.572 0 4.277-2.294 4.818-2.809.128-.128.979 1.056.644 2.37-.335 1.289-4.483 2.783-5.797 4.097-1.314 1.314-2.344-.49-2.628-1.598-.283-1.082-21.408-21.202-21.408-21.202L66.01 93.184l-8.81-2.37 3.245-7.394z" fill="#FD7B77"/><path d="M56.452 83.163L79.87 70.05 82.6 81.9 66.01 93.185l-7.446 1.495-3.787-9.275 1.675-2.241z" fill="#011C2D"/><path d="M77.887 71.157c.283 2.602 1.03 8.244 2.37 12.34l.567-.386c-1.314-4.122-2.061-9.893-2.319-12.288l-.618.334z" fill="#011C2D"/><path d="M92.083 95.94s-27.18-1.339-41.658-15.817c-14.479-14.479-6.673-49.67-6.673-49.67s.232-3.375-2.421-6.596c.566 5.977-.593 14.968-11.825 17.957-8.27 2.19-14.221 1.417-18.395-.464 10.28 55.518 42.225 63.273 42.225 63.273-4.225 12.469 6.673 26.278 24.938 22.284 18.266-4.018 13.809-30.966 13.809-30.966z" fill="#9C9C9C"/><path d="M72.786 117.813s3.092 1.933 10.846 3.427c7.78 1.494 8.682 6.672 6.44 7.188-2.266.489-1.597-2.757-3.503-4.689-1.906-1.907-13.783-5.926-13.783-5.926zm19.786 15.303s3.452 4.174 3.452 6.338c0 2.164 4.097 2.267 4.097-.593-.026-2.834-7.549-5.745-7.549-5.745zM15.335 41.273s2.68-2.01 6.905.67c4.225 2.68 4.714 15.406 5.23 20.043.566 4.895 2.215 11.928 5.667 16.256C36.59 82.596 15.31 56.5 15.31 50.831c.025-5.668.025-9.558.025-9.558z" fill="#027CCD"/><path d="M15.336 41.273c2.422-1.7 6.518-.412 8.038 1.391 3.504 3.89 3.967 15.174 4.431 19.502.593 5.359 2.216 11.697 5.359 16.102-6.493-7.806-5.952-19.915-7.291-27.411-1.546-8.708-4.02-8.76-4.457-9.172-.258-.103-1.649-.979-3.35-1.03-.927-.052-1.906.103-2.73.618z" fill="#fff"/><path d="M18.117 43.257c2.834 1.597 4.251 5.667 4.406 9.042.128 4.328-1.005 8.218.231 10.228-1.442-2.061-.386-6.209-.566-10.228-.103-3.143-1.495-7.42-4.07-9.042z" fill="#fff"/><path d="M85.255 113.975c-4.895-2.705-14.04-2.267-19.477-7.703-5.435-5.436-23.546-8.837-27.05-13.19-3.504-4.354 3.684-14.53-4.689-17.364-8.347-2.834-10.691-16.282-12.778-23.599-2.087-7.29-2.01-8.14-4.508-10.64-2.5-2.499-6.93-2.834-7.343-2.834 0 0 5.59 29.73 7.935 43.72 2.344 13.988 38.876 42.688 43.384 44.208 1.88 2.421 15.071-1.057 16.179 1.211 1.417 2.833 6.544 3.246 4.792.283-1.752-2.963-8.399-1.34-11.928-2.293-.387-.103-.696-.335-.98-.618-1.777-1.907-.386-5.05 2.216-5.23 4.844-.309 10.074 1.391 12.624.206 3.684-1.674 3.71-3.349 6.234-2.344 2.5 1.004 3.633 15.431 7.472 13.19 4.894-2.808-7.188-14.272-12.083-17.003z" fill="#027CCD"/><path d="M65.778 106.298c-5.616-5.385-23.907-8.58-27.385-13.14-2.73-3.606 1.21-10.82-1.34-14.838-1.597-2.577-4.044-1.65-7.393-5.024-7.6-7.677-8.244-26.381-12.238-30.915-1.571-1.803-3.787-3.35-8.012-3.736 4.38.232 8.27 2.19 9.841 6.157 3.504 9.017 4.998 25.145 13.19 29.833 1.753 1.057 5.694 1.314 6.107 6.338.334 4.096-1.675 9.197.309 11.825 3.169 4.302 21.357 7.858 26.921 13.5z" fill="#fff"/><path d="M19.458 35.142s6.698-4.586 7.677-.773c1.108 4.276-6.672-.232-7.677.773z" fill="#D0D3F9"/><path d="M95.714 115.263a.618.618 0 100-1.237.618.618 0 000 1.237zm5.05 5.024a.902.902 0 100-1.804.902.902 0 000 1.804z" fill="#B1B5F5"/><path d="M78.427 140.484a1.16 1.16 0 100-2.318 1.16 1.16 0 000 2.318z" fill="#027CCD"/><path d="M49.548 44.158s-2.68 7.523-1.237 13.912c1.443 6.415 5.282 2.68 5.848 1.288 0 0-.953-6.466-.386-8.527.567-2.061-2.344-8.012-4.225-6.673z" fill="#FC7575"/><path d="M7.89 19.323s8.244 68.374 45.445 85.3c0 0-6.235 25.943 26.535 21.847 0 0-19.863 12.005-39.004-.026C13.816 109.466.316 48.95.316 48.95s-2.68-24.294 7.574-29.627z" fill="#DBDBDB"/><path d="M53.335 104.623c-2.215 13.551 5.05 23.186 23.934 22.027l2.627-.18c-6.724 1.082-14.942 1.107-20.532-2.757-6.26-4.302-7.703-12.108-6.029-19.09z" fill="#206001"/><path d="M7.89 19.323C11.6 44.88 23.22 81.463 42.903 97.77a49.322 49.322 0 0010.434 6.853c-3.813-1.726-7.368-3.968-10.64-6.595C22.318 81.694 11.059 45.215 7.89 19.323z" fill="#E6F7F1"/><path d="M48.105 52.505s-12.366-9.351-12.366-17.544c0-8.192 1.674-16.307 3.117-18.755 1.443-2.447 3.297-4.019 4.354-5.075 1.056-1.056-.773-.721-1.288-.232-.49.49-1.984 1.21-1.984 1.21s1.236-4.095 3.323-5.59c1.494-1.107 1.057-1.442.516-1.442-.619 0-1.572 0-3.427 2.782-.154.206-.927 2.01-.695.799.257-1.211 1.236-3.427 3.091-4.92.206-.181 1.16-.98.026-.98-.928 0-2.602 1.417-3.478 3.504-.799 1.984-.825 2.344-.825 2.344s-.206-1.185.8-3.349c1.004-2.164 1.313-3.169.669-3.555-.721-.412-2.293 5.05-2.705 6.518 0 0 .386-2.628.386-4.097 0-1.468-.798-.412-1.056 1.495-.258 1.932-.824 7.394-.824 7.394S30.122 28.7 30.895 38.233c.773 9.532 11.284 21.924 11.284 21.924s1.804 30.168 5.9 35.243c4.096 5.101 37.33 9.352 37.33 9.352L71.806 134.07l-3.297 2.396c-.464.334-.644.979-.413 1.494.232.515.644 1.211 1.366 1.932 1.545 1.546 3.632 5.23 4.508 5.255 1.082.052-2.602-6.337-1.082-9.351 1.494-3.015 20.79-28.906 21.306-33.672.49-4.766-31.843-14.659-31.843-14.659L59.441 58.2s11.515-12.031 14.864-17.621c3.35-5.591 4.02-15.123 6.26-17.365 2.267-2.267 4.973-6.517 4.586-6.878-.386-.387-2.628 3.246-2.911 3.246-.283 0 2.602-5.59 2.37-6.338-.206-.747-.85.078-1.236 1.005-.387.928-1.623 4.122-2.061 4.56-.438.438 2.267-6.337 1.597-7.007-.67-.67-2.087 6.93-2.628 6.389-.541-.541.824-5.127.464-5.848-.387-.722-1.082.257-1.082 1.597 0 1.34-.722 4.148-1.082 4.148-.387 0-1.288-1.056-.747-2.293.54-1.262-.722-.876-.928.154-.206 1.057.876 3.22.412 4.457-.463 1.263-7.522 18.42-9.532 20.43-2.01 2.01-10.434 10.846-14.04 12.237-3.556 1.392-5.642-.567-5.642-.567z" fill="#FD9B9B"/><path d="M69.9 87.388l-5.435-8.734-2.86 1.598.412 4.096c-4.405 4.225-10.227 5.59-15.612 7.342.515 1.675 1.056 2.963 1.675 3.736 3.272 4.07 24.655 9.609 33.285 10.846.283-3.066 3.684-9.713 5.951-11.954-5.565-2.525-12.624-5.178-17.415-6.93z" fill="#011C2D"/><path d="M84.74 93.184c-.232-.103-.464-.18-.67-.283-2.344 1.752-5.513 5.539-4.792 13.036.232.051.464.077.67.129-.824-7.78 2.55-11.388 4.792-12.882z" fill="#027CCD"/><path d="M18.118 24.012c-.103 0-.18-.077-.154-.18 0-.052.283-6.055-3.555-14.479C10.596.98 2.378.336 2.3.336c-.232-.025-.206-.36.026-.335.077 0 8.502.67 12.392 9.223 3.864 8.502 3.58 14.582 3.58 14.634-.025.102-.102.154-.18.154zm9.12 20.765a.166.166 0 01-.155-.155c-.54-13.474.155-28.905-9.068-38.438-.155-.154.077-.386.232-.231 9.326 9.635 8.63 25.066 9.171 38.643 0 .103-.077.18-.18.18zM85.1 25.249c3.272-5.668 2.68-16.617 2.68-16.72-.026-.232.309-.232.335-.026 0 .103.618 11.13-2.706 16.9-.128.206-.412.052-.309-.154z" fill="#653870"/><path d="M49.136 48.177c.747 4.2 2.473 7.91 4.663 8.012-.18-1.932-.309-4.25-.026-5.358.567-2.061-2.344-8.012-4.225-6.673 0 0-.309.85-.644 2.19.052.67.13 1.288.232 1.83z" fill="#FD7B77"/><path d="M52.227 32.127s4.277-1.442 5.565 1.16c1.288 2.627.387 5.178.721 6.801.336 1.623-1.004 10.794-3.683 11.85-2.68 1.057-4.818-2.447-5.694-6.491-.876-4.02-.283-12.985 3.091-13.32z" fill="#FD9B9B"/><path d="M52.227 32.127a1.586 1.586 0 00-.67.206c1.005.284 2.165.902 2.474 2.242.386 1.674 2.86 2.73 4.457 3.246.051-1.34.077-2.911-.696-4.509-1.288-2.627-5.565-1.185-5.565-1.185z" fill="#FD7B77"/><path d="M50.372 35.683s.155-1.495 2.447-1.495c2.293 0 1.34-1.494 2.448-1.056 1.108.438-.412.644 1.494 2.55 1.932 1.933 3.555.902 3.555.902s.747.747-.232 1.726c-.979.98 2.551 2.5 4.457-.721 1.881-3.22-.798-4.534-2.06-4.534 0 0-.67-4.148-3.942-4.148-3.272 0-3.4.953-3.4.953s-.877-2.55-3.324-1.829c-2.473.722-2.267 2.061-3.066 3.504-.799 1.442-1.314-.078-3.53 1.34-2.215 1.416-.927 6.157-.386 6.672.515.515 1.056 1.803-.85 2.06-1.906.259-1.417 2.551.644 3.221 0 0-.335 2.01 1.288 2.01s1.958-.722 1.958-.722-.876 1.855.567 2.293c1.443.438.799-1.34.799-1.34s-.593-.747.231-2.138c.85-1.39.258-2.164-.128-3.632-.387-1.443 1.03-5.616 1.03-5.616z" fill="#E35C02"/><path d="M59.775 83.884c-.051-.206.258-.31.31-.103.077.232.18.49.257.618.232-.592-.052-1.288-.515-1.597-.18-.129 0-.412.18-.283 1.468 1.03.438 3.606-.232 1.365z" fill="#653870"/><path d="M49.78 39.135s-.463-.799-1.365-.49c-.927.283-.026 3.555 1.21 3.555 1.263 0 .156-3.065.156-3.065z" fill="#FD9B9B"/><path d="M49.703 39.959s-.593-.773-.953-.412c-.361.36.438 1.88.798 1.88.696 0 .155-1.468.155-1.468z" fill="#FD7B77"/><path d="M56.067 44.133c-.129-.722-.18-1.469-.335-2.216-.31 2.035.18 2.68.129 2.757.025.077-.155.128-.335.18-.335.103-.722.103-1.108.129.49.154 1.623.283 1.726-.232.052-.129-.026-.258-.077-.618z" fill="#172866"/><path d="M52.537 38.722c-.18.026-.36.155-.515.232.515-.257 1.185.18 1.494.593.051.077.154.258.283.206.31-.154-.618-1.185-1.262-1.03zm5.461.49c.128.051.257.18.386.283-.36-.283-.979-.077-1.288.206-.077.052-.18.18-.258.103-.257-.154.67-.824 1.16-.592z" fill="#653870"/><path d="M53.129 42.432c.299 0 .54-.334.54-.747s-.241-.747-.54-.747c-.299 0-.541.334-.541.747s.242.747.54.747zm4.044 0c.214 0 .387-.334.387-.747s-.173-.747-.387-.747c-.213 0-.386.334-.386.747s.173.747.386.747z" fill="#1B2B80"/><path d="M52.922 47.095s1.803.49 3.246.49c0 0-.644.798-.49 1.288 0 .026-1.648.386-2.756-1.778z" fill="#fff"/></svg>