<svg width="173" height="138" fill="none" xmlns="http://www.w3.org/2000/svg"><path d="M172.413 128.762c.018-3.286-38.356-6.164-85.712-6.427-47.355-.263-85.76 2.187-85.778 5.473-.018 3.286 38.357 6.163 85.712 6.426 47.356.264 85.76-2.187 85.778-5.472z" fill="#ECECEC"/><path d="M80 102.701H17.9V50.033c0-7.946 6.41-14.375 14.331-14.375h33.438c7.922 0 14.33 6.429 14.33 14.375v52.668z" fill="#BFBFBF"/><path d="M65.668 35.658H32.23c-3.025 0-5.852.958-8.16 2.556a14.366 14.366 0 016.647-1.638h33.438c7.922 0 14.33 6.43 14.33 14.375v51.75H80V50.033c0-7.946-6.41-14.375-14.331-14.375z" fill="#A6A6A6"/><path d="M6.872 115.559h14.33v-46.4H9.779c-3.503 0-6.29 3.035-6.01 6.59l3.104 39.81z" fill="#D9D9D9"/><path d="M21.203 63.09h-3.304L6.594 70.118l14.609-.958v-6.07z" fill="#F2F2F2"/><path d="M80.557 105.217H17.86v10.342h62.697v-10.342z" fill="#BFBFBF"/><path d="M80 115.559V79.582l-1.512-4.752-.438 40.729H80zm-58.796 0V63.09L17.9 69.4l-.04 46.159h3.344z" fill="#A6A6A6"/><path d="M21.203 86.81l-2.786 6.188 61.502-.16-1.592-6.029H21.204z" fill="#F2F2F2"/><path d="M16.386 126.5H13.6l-2.827-10.981h5.613V126.5z" fill="#011C2D"/><path d="M16.387 126.5H9.142c0-.998.796-1.797 1.79-1.797h5.455v1.797z" fill="#0B1742"/><path d="M17.9 105.257c0-8.106-.757-14.654 3.264-14.654h56.048c4.02 0 3.304 6.548 3.304 14.654H17.899z" fill="#D9D9D9"/><path d="M147.353 106.614h-.04l-13.256-1.237h-21.774v-.04l-2.229-5.072v-.039l5.931-14.575h.04l29.815 1.118v.04l3.702 14.654-2.189 5.151zm-34.99-1.317h21.694l13.216 1.238 2.11-4.992-3.662-14.574-29.696-1.118-5.852 14.454 2.19 4.992zm-15.287-.679v-.2l.279-14.934 1.433-1.517v.12l.318 13.217-2.03 3.314zm.398-15.054l-.278 14.695 1.79-2.955-.278-13.058-1.234 1.318z" fill="#757AD8"/><path d="M154.957 102.701h-62.1V50.033c0-7.946 6.41-14.375 14.331-14.375h33.438c7.922 0 14.331 6.429 14.331 14.375v52.668z" fill="#BFBFBF"/><path d="M140.626 35.658h-33.438c-3.026 0-5.852.958-8.16 2.556a14.368 14.368 0 016.647-1.638h33.438c7.922 0 14.331 6.43 14.331 14.375v51.75h1.512V50.033c0-7.946-6.409-14.375-14.33-14.375z" fill="#A6A6A6"/><path d="M166.618 115.559l2.866-39.73c.199-3.515-2.667-6.47-6.17-6.39l-11.424.28 1.114 45.84h13.614z" fill="#D9D9D9"/><path d="M151.771 63.61l3.185-.08 10.748 6.349-13.813-.16-.12-6.11z" fill="#F2F2F2"/><path d="M155.514 105.217H92.817v10.342h62.697v-10.342z" fill="#BFBFBF"/><path d="M155.593 115.559l-.637-45.84-3.185-6.11 1.235 51.95h2.587zm-59.432 0l-.12-40.809-3.224 4.991v35.818h3.344z" fill="#A6A6A6"/><path d="M96.08 86.889l-2.707 6.11 61.502-.16-2.547-6.03-56.248.08z" fill="#F2F2F2"/><path d="M156.905 126.5h2.827l2.786-10.981h-5.613V126.5z" fill="#011C2D"/><path d="M156.905 126.5h7.245c0-.998-.796-1.797-1.791-1.797h-5.454v1.797z" fill="#0B1742"/><path d="M143.45 41.967h-4.856a1.642 1.642 0 01-1.632-1.637c0-.879.716-1.637 1.632-1.637h4.856c.876 0 1.633.718 1.633 1.637 0 .918-.757 1.637-1.633 1.637z" fill="#BFBFBF"/><path d="M92.816 105.217c0-8.106-.716-14.614 3.304-14.614h56.049c4.02 0 3.304 6.548 3.304 14.654l-62.657-.04z" fill="#D9D9D9"/><path d="M78.485 74.83l17.555-.08-3.224 4.991-12.818-.16-1.513-4.751z" fill="#FF0600"/><path d="M92.817 79.582H79.999v35.977h12.818V79.582z" fill="#D9D9D9"/><path d="M88.757 115.559H84.14v9.144h4.617v-9.144z" fill="#011C2D"/><path d="M91.981 126.5H80.557v-.12c0-.918.756-1.677 1.671-1.677h8.042c.915 0 1.672.759 1.672 1.677v.12h.04z" fill="#0B1742"/><path d="M31.274 70.038L26.22 85.491l13.096 4.672 7.803-1.397 7.603 1.876 13.295-3.993-7.882-12.099-28.86-4.512z" fill="#011C2D"/><path d="M47.119 88.766s.637-12.379-10.43-14.455c-3.503-.64-6.687-.32-6.687-.32l-3.742 11.5 13.096 4.672 7.763-1.397z" fill="#011C2D"/><path d="M47.118 88.766s1.433-14.895 13.893-12.698c4.976.878 6.966 10.581 6.966 10.581l-13.296 3.993-7.563-1.876z" fill="#011C2D"/><path d="M43.415 36.577s-.319 11.74-10.549 20.085c-10.19 8.345-16.799 11.42-16.799 11.42s-3.582 2.276-5.373 2.835c-1.792.559-3.225.2-2.35-.6.877-.838 1.514-.279 2.31-1.037.796-.76.477-.64-.08-1.158-.517-.52-3.145.559-3.145 1.038s-.557 4.272-1.234 3.633c-.637-.599.16-4.312.518-4.592.318-.319 2.15-1.038 2.15-1.038l-2.509.879s-.437 3.833-.915 3.833c-.478 0-.08-3.753.239-4.392.318-.64 2.906-1.158 2.906-1.158s2.985-.32 5.613-1.797c1.91-1.078 10.548-5.95 14.649-11.5 1.552-2.116 2.826-6.19 3.343-7.467 1.871-4.672 4.937-13.856 7.603-15.373.876-.48 1.712-1.039 2.429-1.238 1.433-.36 2.348 0 2.348 0l-1.154 7.627z" fill="#FD9B9B"/><path d="M27.93 50.273l10.59 1.517 4.498-7.387L44.53 28.95s-.876-.16-2.428 0c-1.194.12-2.786.958-4.339 2.515-3.583 3.634-9.832 18.808-9.832 18.808z" fill="#066DB7"/><path d="M112.321 69.32s-7.802 12.298-8.558 14.494c-.876 2.596-.995 6.788-.995 6.788h41.439s.04-7.666-5.653-12.218c-5.692-4.552-15.923-9.943-15.923-9.943l-10.31.878z" fill="#E9084E"/><path d="M103.684 34.979s-6.767 3.194-10.031 18.408c-.478 2.196-1.633 5.43-1.633 5.43l3.583 2.237 8.081-16.172v-9.903z" fill="#FD8481"/><path d="M102.729 90.603s.438-2.915 1.115-5.471 7.802-1.158 12.101-4.792c5.773-4.911 16.441 2.556 20.899 4.233 4.459 1.677 5.892 4.472 7.245 5.83 1.354 1.357-11.942 1.757-17.595 1.038-5.692-.719-23.765-.838-23.765-.838z" fill="#780337"/><path d="M112.003 82.017c-1.871-.838-6.21-2.156-7.882 2.196-1.035 2.676 2.986 7.468 5.374 9.544 2.388 2.076 26.432 26.753 26.432 26.753s7.723 10.662 7.723 11.7c0 1.038-.359 3.075 1.472 1.437 1.871-1.637-1.472-8.864 0-11.18 1.473-2.356-.875-1.677-3.582-2.596-2.667-.918-14.729-19.645-18.431-25.515-3.662-5.87-7.125-10.542-11.106-12.339z" fill="#FD8481"/><path d="M145.163 122.467c1.314-2.076-.398-1.797-2.707-2.356 0 .639.04 1.917.398 3.714 0 0 1.075 6.508.836 8.425-.119 1.038-.358 3.075 1.473 1.437 1.831-1.677-1.513-8.904 0-11.22z" fill="#8B2D5F"/><path d="M116.46 79.9s3.981-2.994 7.683.72c3.742 3.713 21.377 43.684 22.412 45.88 1.035 2.196 2.985 4.352 2.985 4.352.159.16.12 3.115-.676 3.434-1.115.4-3.703-1.637-3.703-1.637s-.796-4.073-4.816-9.823c-4.061-5.75-20.501-29.948-22.571-34.3-2.03-4.352-3.145-7.747-1.314-8.625z" fill="#FD9B9B"/><path d="M145.163 132.609s1.592 3.355 4.06 2.396c1.712-.639.916-3.434.359-4.193 0 .04-.717 3.914-4.419 1.797z" fill="#8B2D5F"/><path d="M31.195 77.944c1.99-.08 5.015 1.118 6.926 3.794 1.672 2.316 4.498 46.319 4.498 46.319l-.676.16.04 1.198 1.034 4.352-1.632 3.993-3.264-3.354.876-5.031-12.778-43.884s1.672-7.387 4.976-7.547zm33.119.799c-2.11-.32-5.732.918-7.882 3.514-1.87 2.276-8.797 45.84-8.797 45.84l1.512.32c-.08.758-.159 1.197-.159 1.197l-1.353 4.313L48.948 138l3.503-2.316-.517-5.91.358-.719.597.08c2.827-6.149 14.132-32.463 15.127-42.486.2-2.156-1.194-7.507-3.702-7.906z" fill="#022D48"/><path d="M95.244 50.632c-.398-1.478-.995-3.155-1.472-4.432-.28-.919-.637-1.678-.956-2.396-1.672-.2-7.285 4.033-7.484 4.552-.199.519-.955 4.232-.159 4.512.2.08.358 0 .438-.12-.04-.599.08-1.318.08-1.318s.159.919-.08 1.318c.04.48.12.919.518.719.796-.36.557-3.035.955-4.073.398-1.038 2.587-1.118 2.508-.839-.12.28-1.035 1.398-1.274 2.077-.239.679.756.04 2.15-1.438.238-.28.437-.479.597-.678.08 2.475.318 8.904.955 10.262.796 1.677 3.583 2.236 3.583 2.236s.438-7.308-.359-10.382z" fill="#FD8481"/><path d="M64.592 43.444s5.573 12.3 7.444 13.257c1.87.959 11.026-6.628 12.818-5.95l4.22-.438c-2.35-3.514-9.793-4.553-14.093-.24l-8.876-19.247-1.513 12.618z" fill="#FD9B9B"/><path d="M63.12 45.002l5.334 10.102 6.967-5.79-9.355-18.448-2.946 14.136z" fill="#066DB7"/><path d="M89.79 53.986c0-.998-.438-3.873-1.035-3.833-.517-.12-1.074-.2-1.472-.28-.399-.08-1.075.2-1.195.16-.12-.04-1.234.16-1.552.32-.319.2-.279 2.595-.796 3.473-.518.839.477.68.995.36.517-.32.398-2.396.716-2.196.319.2.558 2.236.319 3.274-.239 1.038-.757 1.358-.12 1.318.637-.04 1.195-1.078 1.314-1.757.16-.68-.279-2.516 0-2.716.279-.16.358 2.556.279 2.875-.08.32-.876 1.079-.558 1.398.319.32 1.274-.998 1.632-1.917.359-.918.04-2.835.12-2.835.318 0 .318 2.316.478 2.556.159.28-1.155 1.757-.438 2.156.04-.04 1.313-1.318 1.313-2.356z" fill="#FD8481"/><path d="M57.15 28.99s-9.913-1.318-15.048 0c0 0-1.791 16.89-3.224 21.762-1.433 4.871-10.947 23.08-10.947 23.08l33.08 2.236s.278-14.216 1.512-19.806c1.234-5.59 3.503-23.998 3.503-25.396.04-.32-8.877-1.877-8.877-1.877z" fill="#027CCD"/><path d="M62.923 54.345c.557-2.994 1.194-7.427 1.751-11.66-7.922-2.715-18.232-3.074-23.844-3.034-.597 4.392-1.314 8.944-1.951 11.14-.08.28-.199.6-.319.999 11.186-1.637 19.705.719 24.363 2.555z" fill="#fff"/><path d="M58.943 16.611l-.398 13.097c-.04.719-1.234 3.474-1.831 3.873-1.354.959-4.02 1.398-5.932-.279-1.671-1.438 2.27-17.09 2.27-17.09s3.463-.24 5.89.399z" fill="#FD9B9B"/><path d="M53.052 16.212s-.12.519-.359 1.358c.04 1.237.2 3.114.598 4.552.517 1.916 2.905 5.11 5.334 5.43l.318-10.98c-2.428-.6-5.891-.36-5.891-.36z" fill="#FD8481"/><path d="M53.887.44c-1.274 1.596-2.309 3.873-.717 5.15-1.83-1.078-.995-3.753.12-5.59l.597.44z" fill="#E35C02"/><path d="M61.41 7.387s2.707.48 2.826 3.953c.12 3.474-2.03 12.938-4.777 13.656-2.746.72-5.811-2.715-6.369-4.671-.597-1.997-.557-5.112-.557-5.112s.517-12.418 8.877-7.826z" fill="#FD9B9B"/><path d="M49.588 19.885s.597.799 1.353-.16c0 0 1.791-2.196.438-4.032-1.353-1.837-3.384-4.313-2.826-7.467.557-3.155 4.339-2.915 4.339-2.915s.875-4.832 6.13-2.915c0 0 1.075-.999 4.18-.719 3.105.32 2.269 1.957 4.1 1.797 1.791-.2 2.15-1.597 1.393-2.156 0 0 3.025 1.597 3.264 4.073.279 2.515-4.498 2.395-4.498 2.395s3.782.72.796 2.197c-2.985 1.477-4.418 1.357-6.13-.48-1.712-1.836-2.627-2.316-3.623-1.956-.955.36-.756 2.476-2.189 2.635-1.433.16-2.548 3.873-2.548 3.873s-1.075-.439-1.154 2.237c-.08 2.635.199 4.312-1.433 4.472-1.553.08-1.592-.879-1.592-.879z" fill="#E35C02"/><path d="M53.25 10.861c-.836-.16-2.866.36-1.353 3.115 1.552 2.755 3.144.04 3.025-1.158-.12-1.158-1.035-1.837-1.672-1.957z" fill="#FD9B9B"/><path d="M61.051 15.094c-.279 1.597-.358 3.114-.756 4.592H59.18c.597.24 1.115.36 1.354.439.04-.04.756-2.076.517-5.031zm-.638-.479c-.08 0-.2-.04-.2-.16 0-.04-.158-.679-.955-1.078-.676-.32-2.428.04-3.065.2-.12.04-.199-.04-.239-.12-.04-.12.04-.2.12-.24.08-.04 2.388-.599 3.304-.16.995.48 1.154 1.278 1.154 1.318.08.12 0 .2-.12.24.04 0 .04 0 0 0z" fill="#132759"/><path d="M57.19 20.364s2.668 1.039 4.26.76c0 0-.358 1.237-1.274 1.517-.955.28-2.786-.36-2.985-2.276z" fill="#fff"/><path d="M52.095 12.498s.04 1.877.995 1.917c.916.04 1.195-1.358.637-2.076-.637-.759-1.711-.4-1.632.16z" fill="#FD7B77"/><path d="M59.736 15.328c.065-.37-.11-.71-.392-.76-.282-.05-.563.21-.628.579-.065.37.11.709.392.759.282.05.563-.21.628-.579zm3.742.456c.066-.37-.11-.709-.392-.759-.28-.05-.562.21-.627.579-.065.369.11.708.392.758.282.05.563-.209.627-.578zm-1.312-1.169c-.08.08-.08.2 0 .28.04.039.08.039.16.039.039 0 .079-.04.119-.04.199-.2.836-.759 1.273-.799h.319c0-.12.04-.24.04-.359h-.398c-.677.04-1.473.839-1.513.879z" fill="#132759"/><path d="M103.685 34.9l16.002-.919s2.389 10.063 3.861 11.82l-.995 22.64s-5.135 1.477-10.27.879c0 0-11.106-17.45-11.106-22.96.04-5.511 2.508-11.46 2.508-11.46zm-4.103 24.837h-24.64l2.348 17.849c0 1.038 4.498 1.917 9.992 1.917 5.493 0 9.952-.839 9.992-1.917l2.308-17.849z" fill="#E9084E"/><path d="M87.283 79.462c4.339 0 8.001-.52 9.394-1.278l1.99-18.488h-22.73l1.991 18.488c1.314.759 5.016 1.278 9.355 1.278z" fill="#FFFBF8"/><path d="M87.282 79.462c3.424 0 6.449-.32 8.24-.839l1.593-18.887H77.45l1.592 18.887c1.791.52 4.817.839 8.24.839z" fill="#E9084E"/><path d="M87.283 79.462c2.269 0 4.339-.16 6.01-.4l1.195-19.366h-14.41l1.194 19.367c1.672.28 3.742.399 6.01.399z" fill="#FFFBF8"/><path d="M87.282 79.462c1.314 0 2.588-.04 3.742-.12l.756-19.606h-8.996l.756 19.606c1.155.08 2.389.12 3.742.12z" fill="#E9084E"/><path d="M87.281 79.462h1.195l.239-19.726h-2.827l.239 19.726h1.154z" fill="#FFFBF8"/><path d="M77.29 77.585c.2 2.356 19.784 2.236 19.943 0 0 2.675-19.943 2.716-19.943 0z" fill="#822626"/><path d="M87.282 61.733c6.793 0 12.3-.894 12.3-1.997 0-1.103-5.507-1.996-12.3-1.996-6.793 0-12.3.893-12.3 1.996s5.507 1.997 12.3 1.997z" fill="#F4BB67"/><path d="M75.659 60.415c1.672.759 6.25 1.318 11.624 1.318 5.374 0 9.912-.56 11.623-1.318-1.672-.759-6.25-1.318-11.623-1.318-5.374-.04-9.952.52-11.624 1.318z" fill="#C1B68A"/><path d="M98.827 58.418c-.637-.24-1.592-.479-2.747-.678-2.349-.4-5.493-.6-8.797-.6-3.304 0-6.449.2-8.798.6-1.154.2-2.11.399-2.746.678-.319.12-1.314.52-1.314 1.318 0 .799.995 1.198 1.314 1.318.637.24 1.592.479 2.746.679 2.349.399 5.494.599 8.798.599 3.304 0 6.448-.2 8.797-.6 1.155-.199 2.11-.399 2.747-.678.318-.12 1.313-.52 1.313-1.318s-.995-1.158-1.313-1.318zm-11.544 3.315c-6.807 0-12.3-.879-12.3-1.997s5.533-1.996 12.3-1.996c6.807 0 12.3.878 12.3 1.996 0 1.118-5.533 1.997-12.3 1.997z" fill="#8D7868"/><path d="M99.583 59.736c0 1.118-5.493 1.997-12.3 1.997-6.808 0-12.3-.879-12.3-1.997h-.558c0 .799.995 1.198 1.313 1.318.637.24 1.593.479 2.747.679 2.349.399 5.493.599 8.797.599 3.305 0 6.45-.2 8.798-.6 1.154-.199 2.11-.399 2.747-.678.318-.12 1.313-.52 1.313-1.318h-.557z" fill="#8D7868"/><path d="M89.392 57.3s-.716-.04-.637.64c.12.678.518.598.796.598.319 0 0 .08 0 .08s-.557.52.279.998c.836.48 1.075-.639 1.075-.639s.318.4.836.2c.557-.2.318-1.158-.24-1.158 0 0 1.115-.719.558-1.278-.597-.599-1.433-.798-1.592-.16 0 0-.478-.598-1.075-.279-.557.4 0 .998 0 .998z" fill="#DDC368"/><path d="M89.433 57.34s-.677-.04-.598.6c.12.639.478.559.757.559.278 0 0 .08 0 .08s-.518.479.278.958c.796.44.995-.599.995-.599s.28.36.797.16c.517-.2.318-1.078-.24-1.078 0 0 1.076-.68.518-1.198-.557-.56-1.353-.759-1.512-.16 0 0-.438-.559-.995-.24-.478.32 0 .919 0 .919z" fill="#F3F0A5"/><path d="M89.99 58.02s-.24.159-.04.319c.199.2.278.08.398 0 .08-.08.04.04.04.04s-.04.28.318.24c.358-.04.2-.44.2-.44s.198.04.318-.12c.12-.2-.16-.439-.319-.32 0 0 .2-.478-.12-.518-.318-.04-.636.08-.517.32 0 0-.278-.08-.398.159-.159.24.12.32.12.32z" fill="#FFD467"/><path d="M78.963 58.818s-.716-.04-.636.639c.119.678.517.599.796.599.318 0 0 .08 0 .08s-.558.519.278.998c.836.479 1.075-.64 1.075-.64s.319.4.836.2c.557-.2.319-1.158-.239-1.158 0 0 1.115-.718.558-1.277-.598-.6-1.434-.799-1.593-.16 0 0-.477-.599-1.075-.28-.517.4 0 .999 0 .999z" fill="#DDC368"/><path d="M79.004 58.859s-.677-.04-.597.599c.12.639.477.559.756.559s0 .08 0 .08-.517.479.279.958c.796.44.995-.6.995-.6s.279.36.796.16c.517-.2.318-1.078-.239-1.078 0 0 1.075-.678.518-1.197-.558-.56-1.354-.76-1.513-.16 0 0-.438-.56-.995-.24-.478.36 0 .919 0 .919z" fill="#F3F0A5"/><path d="M79.56 59.537s-.238.16-.039.32c.2.199.279.079.398 0 .08-.08.04.039.04.039s-.04.28.318.24c.359-.04.2-.44.2-.44s.198.04.318-.12c.12-.2-.16-.439-.319-.319 0 0 .2-.479-.119-.519-.318-.04-.637.08-.517.32 0 0-.28-.08-.398.16-.16.239.119.319.119.319z" fill="#FFD467"/><path d="M94.846 58.778s-.717-.04-.637.639c.119.678.517.599.796.599.318 0 0 .08 0 .08s-.558.519.278.998c.836.479 1.075-.64 1.075-.64s.319.4.836.2c.557-.2.319-1.158-.239-1.158 0 0 1.115-.718.558-1.277-.598-.6-1.434-.799-1.593-.16 0 0-.477-.599-1.075-.28-.517.36 0 .999 0 .999z" fill="#DDC368"/><path d="M94.927 58.818s-.677-.04-.598.6c.12.638.478.558.757.558s0 .08 0 .08-.518.48.279.959c.796.439.995-.6.995-.6s.278.36.796.16c.517-.2.318-1.078-.239-1.078 0 0 1.075-.679.517-1.198-.557-.559-1.353-.758-1.512-.16 0 0-.438-.559-.995-.239-.518.32 0 .918 0 .918z" fill="#F3F0A5"/><path d="M95.483 59.497s-.24.16-.04.32c.199.199.279.079.398 0 .08-.08.04.039.04.039s-.04.28.318.24c.359-.04.2-.44.2-.44s.198.04.318-.12c.12-.2-.16-.439-.319-.319 0 0 .2-.48-.12-.519-.318-.04-.636.08-.517.32 0 0-.278-.08-.398.16-.199.239.12.319.12.319z" fill="#FFD467"/><path d="M83.34 59.576s-.716-.04-.636.64c.12.678.517.598.796.598.318 0 0 .08 0 .08s-.558.52.278.998c.836.48 1.075-.639 1.075-.639s.319.4.836.2c.558-.2.319-1.158-.239-1.158 0 0 1.115-.719.558-1.278-.597-.599-1.433-.798-1.593-.16 0 0-.477-.598-1.074-.279-.518.4 0 .998 0 .998z" fill="#DDC368"/><path d="M83.381 59.618s-.677-.04-.597.599c.12.639.478.559.756.559.28 0 0 .08 0 .08s-.517.479.28.958c.795.44.994-.599.994-.599s.279.36.796.16c.518-.2.319-1.078-.238-1.078 0 0 1.074-.68.517-1.198-.557-.56-1.353-.759-1.513-.16 0 0-.438-.559-.995-.24-.478.36 0 .919 0 .919z" fill="#F3F0A5"/><path d="M83.938 60.295s-.239.16-.04.32c.2.199.28.08.399 0 .08-.08.04.04.04.04s-.04.279.318.239c.358-.04.199-.44.199-.44s.199.04.318-.12c.12-.199-.159-.438-.318-.319 0 0 .199-.479-.12-.519-.318-.04-.636.08-.517.32 0 0-.279-.08-.398.16-.16.24.12.319.12.319z" fill="#FFD467"/><path d="M76.256 58.418s-.676-.32-.796.36c-.159.679.24.718.518.838s-.04.08-.04.08-.717.28-.12 1.038c.598.759 1.234-.16 1.234-.16s.12.48.717.48.717-.959.2-1.158c0 0 1.313-.2.994-.959-.318-.758-.995-1.277-1.393-.758 0 0-.199-.719-.876-.64-.677.08-.438.88-.438.88z" fill="#DDC368"/><path d="M76.3 58.46s-.637-.28-.756.32c-.16.638.239.678.478.798.278.12-.04.08-.04.08s-.677.24-.12.958c.558.719 1.155-.16 1.155-.16s.12.44.677.48c.557 0 .676-.879.198-1.079 0 0 1.234-.2.956-.918-.279-.719-.956-1.238-1.314-.719 0 0-.199-.679-.836-.599-.637.12-.398.839-.398.839z" fill="#F3F0A5"/><path d="M76.577 59.297s-.279.04-.16.28c.12.239.24.159.359.159.12-.04 0 .04 0 .04s-.16.24.199.36c.358.12.358-.32.358-.32s.16.12.319 0c.199-.12 0-.44-.2-.4 0 0 .359-.359.08-.519-.278-.16-.597-.16-.597.08 0 0-.239-.2-.398 0-.199.12.04.32.04.32z" fill="#FFD467"/><path d="M88.597 58.618s-.716-.04-.636.639c.119.679.517.599.796.599.318 0 0 .08 0 .08s-.558.519.278.998c.836.48 1.075-.639 1.075-.639s.319.4.836.2c.557-.2.319-1.158-.239-1.158 0 0 1.115-.719.558-1.278-.598-.599-1.433-.799-1.593-.16 0 0-.477-.599-1.075-.28-.517.4 0 1 0 1z" fill="#DDC368"/><path d="M88.676 58.658s-.677-.04-.597.6c.119.638.477.558.756.558s0 .08 0 .08-.518.48.279.959c.796.439.995-.6.995-.6s.278.36.796.16c.517-.2.318-1.078-.239-1.078 0 0 1.075-.679.517-1.198-.557-.559-1.353-.758-1.512-.16 0 0-.438-.558-.995-.239-.518.36 0 .918 0 .918z" fill="#F7E87F"/><path d="M89.234 59.337s-.238.16-.04.32c.2.199.28.08.399 0 .08-.08.04.04.04.04s-.04.279.318.239c.358-.04.199-.44.199-.44s.199.04.319-.12c.119-.199-.16-.438-.319-.319 0 0 .199-.479-.12-.519-.318-.04-.636.08-.517.32 0 0-.279-.08-.398.16-.199.24.12.319.12.319z" fill="#FFD467"/><path d="M86.566 59.337s-.358-.639-.876-.2c-.517.44-.239.719-.08.998.16.24-.079.04-.079.04s-.756-.2-.717.76c.04.957 1.075.598 1.075.598s-.159.48.279.839c.478.359 1.154-.32.836-.799 0 0 1.194.599 1.393-.2.2-.798-.08-1.637-.716-1.437 0 0 .278-.719-.319-1.038-.557-.36-.796.439-.796.439z" fill="#DDC368"/><path d="M86.567 59.379s-.319-.6-.836-.2c-.478.44-.2.679-.08.958.16.24-.08.04-.08.04s-.716-.2-.676.719c.04.918 1.035.559 1.035.559s-.16.44.278.759c.438.32 1.075-.32.796-.759 0 0 1.115.56 1.314-.2.16-.758-.04-1.557-.677-1.357 0 0 .24-.68-.318-.998-.518-.24-.756.479-.756.479z" fill="#F7E87F"/><path d="M86.287 60.215s-.24-.12-.319.12c-.04.24.08.28.2.32.119.04 0 .04 0 .04s-.28.12-.04.399c.238.28.477-.08.477-.08s.04.2.279.2c.239 0 .278-.36.08-.44 0 0 .517-.08.398-.359-.12-.28-.399-.48-.518-.28 0 0-.08-.279-.318-.239-.319.04-.24.32-.24.32z" fill="#FFD467"/><path d="M91.582 59.616s-.278-.519-.716-.16c-.438.36-.2.6-.04.84.12.199-.08.04-.08.04s-.597-.16-.597.638c.04.799.916.48.916.48s-.16.398.239.678c.398.28.955-.28.716-.679 0 0 .995.48 1.154-.16.16-.678-.04-1.357-.597-1.197 0 0 .2-.6-.278-.879-.478-.24-.717.4-.717.4z" fill="#DDC368"/><path d="M91.582 59.658s-.278-.52-.676-.16-.2.559-.04.799c.12.2-.08.04-.08.04s-.597-.16-.557.598c.04.76.836.48.836.48s-.12.359.239.639c.358.279.876-.24.677-.64 0 0 .915.48 1.074-.16.16-.638-.04-1.277-.557-1.117 0 0 .199-.56-.279-.799-.438-.28-.637.32-.637.32z" fill="#F7E87F"/><path d="M91.383 60.335s-.199-.12-.279.12c-.04.2.08.24.16.28.08.04 0 .04 0 .04s-.24.08-.04.319c.199.24.398-.04.398-.04s.04.16.239.16c.199 0 .239-.28.08-.36 0 0 .397-.08.318-.32-.08-.239-.319-.398-.438-.239 0 0-.08-.24-.279-.2-.239 0-.159.24-.159.24z" fill="#FFD467"/><path d="M82.783 57.66s-.756-.32-.915.4c-.16.758.318.798.637.917.318.12-.04.08-.04.08s-.836.32-.12 1.158c.717.839 1.394-.2 1.394-.2s.159.52.836.52c.676 0 .836-1.038.199-1.278 0 0 1.512-.28 1.114-1.078-.358-.839-1.194-1.398-1.632-.799 0 0-.239-.798-1.035-.678-.756.12-.438.958-.438.958z" fill="#DDC368"/><path d="M82.825 57.741s-.717-.319-.876.4c-.16.718.279.758.597.878.319.12-.04.08-.04.08s-.756.28-.12 1.078c.678.799 1.315-.2 1.315-.2s.159.52.796.52.756-.999.199-1.198c0 0 1.433-.24 1.075-1.038-.359-.8-1.115-1.318-1.553-.76 0 0-.239-.758-.955-.678-.717.12-.438.918-.438.918z" fill="#F7E87F"/><path d="M83.143 58.658s-.319.08-.2.32c.12.279.28.2.399.16.12-.04 0 .04 0 .04s-.2.279.239.358c.398.12.398-.359.398-.359s.159.12.398 0c.199-.16 0-.519-.239-.44 0 0 .398-.398.08-.598-.319-.16-.677-.2-.677.12 0 0-.279-.2-.478 0-.199.2.08.399.08.399z" fill="#FFD467"/><path d="M81.033 60.615s-.478.678.199.998c.677.32.836-.12 1.035-.4.199-.279.08.04.08.04s.119.879 1.074.36c.956-.52.08-1.438.08-1.438s.557-.04.677-.718c.159-.64-.876-1.039-1.194-.48 0 0 .04-1.517-.836-1.317-.876.2-1.632.878-1.115 1.437 0 0-.836.08-.876.839 0 .798.876.679.876.679z" fill="#DDC368"/><path d="M81.115 60.576s-.438.639.199.958c.637.28.796-.12.955-.4.16-.279.08.04.08.04s.119.84 1.034.32c.916-.48.08-1.358.08-1.358s.518-.04.637-.678c.12-.6-.796-.959-1.154-.44 0 0 .04-1.437-.796-1.237-.836.2-1.513.838-1.035 1.357 0 0-.797.08-.836.799 0 .758.836.639.836.639z" fill="#F7E87F"/><path d="M82.069 60.455s0 .32.278.24c.28-.08.24-.24.24-.36s.04 0 .04 0 .238.24.397-.16c.2-.4-.278-.439-.278-.439s.159-.16.08-.36c-.08-.239-.478-.12-.478.12 0 0-.319-.479-.558-.2-.239.28-.318.64-.04.68 0 0-.238.24-.08.479.16.24.399 0 .399 0z" fill="#FFD467"/><path d="M91.541 58.179s-.756-.32-.915.4c-.16.758.318.798.637.917.318.12-.04.08-.04.08s-.836.32-.12 1.158c.717.839 1.394-.2 1.394-.2s.159.52.836.52c.677 0 .836-1.038.199-1.278 0 0 1.513-.28 1.114-1.078-.358-.839-1.194-1.398-1.632-.799 0 0-.239-.798-1.035-.678-.756.08-.438.958-.438.958z" fill="#DDC368"/><path d="M91.581 58.22s-.716-.32-.876.398c-.159.72.28.76.597.879.319.12-.04.08-.04.08s-.756.28-.119 1.078c.677.799 1.314-.2 1.314-.2s.16.48.796.52c.637 0 .756-.999.2-1.199 0 0 1.432-.24 1.074-1.038-.358-.798-1.115-1.317-1.553-.758 0 0-.238-.759-.955-.68-.717.12-.438.92-.438.92z" fill="#F7E87F"/><path d="M91.9 59.137s-.319.08-.2.32c.12.279.28.2.399.16.12-.04 0 .04 0 .04s-.2.279.239.399c.398.12.398-.36.398-.36s.16.12.398 0c.199-.16 0-.519-.239-.44 0 0 .398-.398.08-.598-.319-.16-.677-.2-.677.12 0 0-.279-.2-.478 0-.199.16.08.36.08.36z" fill="#FFD467"/><path d="M96.836 59.457s-.717.439-.239.998c.518.559.836.24 1.115.04.278-.2.04.08.04.08s-.24.838.836.758c1.074-.08.676-1.238.676-1.238s.518.2.916-.359c.398-.519-.359-1.278-.916-.918 0 0 .677-1.358-.199-1.558-.876-.2-1.831.12-1.592.839 0 0-.796-.28-1.155.4-.318.678.518.958.518.958z" fill="#DDC368"/><path d="M96.918 59.458s-.676.4-.199.918c.478.52.797.24 1.035.04.279-.16.04.08.04.08s-.239.799.796.719c1.035-.08.637-1.198.637-1.198s.478.16.876-.32c.398-.519-.358-1.197-.836-.878 0 0 .637-1.278-.2-1.477-.835-.16-1.71.12-1.512.798 0 0-.756-.28-1.114.4-.319.678.477.918.477.918z" fill="#F7E87F"/><path d="M97.873 59.736s-.12.28.159.36c.279.04.318-.12.358-.24.04-.12.04 0 .04 0s.12.32.438.04-.08-.52-.08-.52.2-.08.2-.319c0-.24-.399-.32-.478-.08 0 0-.08-.559-.398-.439-.319.16-.558.44-.319.599 0 0-.318.12-.279.4 0 .319.359.199.359.199z" fill="#FFD467"/><path d="M85.451 58.498s-.716-.04-.636.64c.119.678.517.598.796.598.318 0 0 .08 0 .08s-.558.519.278.998c.836.48 1.075-.639 1.075-.639s.319.4.836.2c.557-.2.319-1.158-.239-1.158 0 0 1.115-.719.557-1.278-.597-.599-1.432-.798-1.592-.16 0 0-.477-.599-1.075-.28-.517.4 0 1 0 1z" fill="#DDC368"/><path d="M85.532 58.54s-.676-.04-.597.598c.12.639.478.56.757.56.278 0 0 .079 0 .079s-.518.48.278.958c.796.44.995-.599.995-.599s.279.36.796.16c.518-.2.319-1.078-.238-1.078 0 0 1.075-.679.517-1.198-.557-.56-1.353-.759-1.513-.16 0 0-.437-.559-.995-.24-.517.32 0 .92 0 .92z" fill="#F3F0A5"/><path d="M86.09 59.217s-.24.16-.04.32c.198.2.278.08.397 0 .08-.08.04.04.04.04s-.04.279.319.239c.358-.04.199-.44.199-.44s.199.04.318-.119c.12-.2-.159-.44-.318-.32 0 0 .199-.479-.12-.518-.318-.04-.637.08-.517.319 0 0-.279-.08-.398.16-.2.24.12.32.12.32z" fill="#FFD467"/><path d="M92.617 59.257s-.716-.04-.637.639c.12.679.518.599.796.599.319 0 0 .08 0 .08s-.557.519.28.998c.835.48 1.074-.639 1.074-.639s.318.4.836.2c.557-.2.318-1.158-.239-1.158 0 0 1.115-.719.557-1.278-.597-.599-1.433-.799-1.592-.16 0 0-.478-.599-1.075-.28-.557.4 0 .999 0 .999z" fill="#DDC368"/><path d="M92.656 59.299s-.677-.04-.597.599c.12.639.478.559.756.559.279 0 0 .08 0 .08s-.517.479.279.958c.796.44.995-.599.995-.599s.279.36.796.16c.518-.2.319-1.078-.239-1.078 0 0 1.075-.68.518-1.198-.557-.56-1.353-.759-1.513-.16 0 0-.438-.559-.995-.24-.478.32 0 .919 0 .919z" fill="#F3F0A5"/><path d="M93.215 59.976s-.24.16-.04.32c.199.199.278.079.398 0 .08-.08.04.039.04.039s-.04.28.318.24c.358-.04.199-.44.199-.44s.2.04.319-.12c.119-.2-.16-.439-.319-.319 0 0 .2-.48-.12-.519-.318-.04-.636.08-.517.32 0 0-.278-.08-.398.16-.16.239.12.319.12.319z" fill="#FFD467"/><path d="M88.994 61.573s.16.719.796.4c.598-.32.398-.64.319-.96-.08-.279.08-.039.08-.039s.676.4.875-.56c.2-.957-.915-.838-.915-.838s.278-.399-.08-.878c-.358-.48-1.194.04-1.035.559 0 0-.995-.878-1.393-.16-.398.719-.358 1.597.318 1.557 0 0-.438.64.04 1.079.557.519.995-.16.995-.16z" fill="#DDC368"/><path d="M89.035 61.493s.16.679.756.4c.597-.28.398-.64.319-.88-.08-.279.08-.039.08-.039s.636.36.835-.52c.2-.878-.836-.798-.836-.798s.279-.399-.08-.798c-.318-.44-1.114.04-.955.519 0 0-.955-.839-1.313-.16-.359.679-.359 1.517.278 1.477 0 0-.398.6.04 1.039.438.399.876-.24.876-.24z" fill="#F3F0A5"/><path d="M89.512 60.774s.2.2.319-.04c.12-.24 0-.279-.12-.359-.08-.08.04-.04.04-.04s.279-.04.16-.36c-.16-.359-.478-.04-.478-.04s0-.199-.2-.239c-.198-.08-.358.28-.198.4 0 0-.518-.04-.478.28.04.319.239.558.438.398 0 0 0 .28.278.32.24 0 .24-.32.24-.32z" fill="#FFD467"/><path d="M88.634 57.18s.637-.359.2-.878c-.439-.519-.717-.24-.996-.08-.239.16-.04-.08-.04-.08s.2-.758-.756-.718c-.956.04-.597 1.078-.597 1.078s-.478-.2-.836.28c-.358.478.318 1.157.796.838 0 0-.597 1.198.199 1.397.796.2 1.632-.04 1.433-.678 0 0 .716.28 1.035-.32.318-.599-.438-.838-.438-.838z" fill="#DDC368"/><path d="M88.557 57.182s.597-.32.199-.839c-.438-.479-.677-.24-.956-.08-.238.16-.04-.08-.04-.08s.2-.718-.716-.678c-.915.04-.557 1.038-.557 1.038s-.438-.16-.756.28c-.319.439.318 1.078.756.798 0 0-.557 1.118.16 1.318.755.2 1.552-.04 1.352-.64 0 0 .677.24.996-.319.278-.559-.438-.798-.438-.798z" fill="#F3F0A5"/><path d="M87.718 56.861s.12-.24-.12-.32c-.238-.08-.278.08-.318.2-.04.12-.04 0-.04 0s-.12-.28-.398-.04c-.279.24.04.48.04.48s-.2.04-.2.28c0 .239.36.279.439.079 0 0 .08.52.358.4.279-.12.478-.4.279-.52 0 0 .278-.08.239-.32.04-.319-.28-.239-.28-.239z" fill="#FFD467"/><path d="M61.01 76.068c-.08-3.794-.04-7.587.16-11.38.079-1.917.238-3.794.477-5.71.12-.959.279-1.917.478-2.836.199-.918.358-1.837.517-2.795.637-3.713 1.194-7.467 1.752-11.22l.836-5.63c.278-1.877.597-3.754.836-5.63-.16 3.793-.558 7.586-.956 11.34a265.832 265.832 0 01-1.552 11.3c-.16.918-.358 1.877-.557 2.795a32.67 32.67 0 00-.478 2.755c-.279 1.877-.438 3.754-.597 5.63-.359 3.834-.637 7.587-.916 11.38z" fill="#A4DAFE"/><path d="M109.652 21.443c-.239-.08-7.285 4.831-7.723 7.107-.438 2.276.756 2.955.756 2.955s-2.507.4-1.472 2.516c1.035 2.156 6.13 2.515 7.045 1.637.916-.839.438-3.953.438-3.953s8.041-7.587.956-10.262z" fill="#066DB7"/><path d="M103.761 31.265c1.553.48 3.105.12 4.419-1.437.876-1.078.915-1.238 2.587-2.037-.716-.04-1.473.08-2.149.44-1.553.878-1.354 2.396-4.857 3.034z" fill="#011C2D"/><path d="M107.741 35.658c.995-4.472.239-11.78.239-11.78l5.135-1.916s1.433 13.177 1.234 13.177c-1.712 2.915-6.847 2.675-6.608.519z" fill="#FD9B9B"/><path d="M113.115 21.922l-5.135 1.916s.159 1.558.239 3.674c1.075-.479 2.189-.998 3.025-1.956.836-.919 1.871-3.634 1.871-3.634z" fill="#FD7B77"/><path d="M110.368 41.488c3.503-.08 5.056 1.956 5.056 4.791l-1.234-.04c.04-.16.04-.758 0-1.038-.199-1.876-1.194-2.595-2.627-3.034-1.075-.28-2.588-.48-3.384.399l-.119-.08c.517-.719 1.472-.958 2.308-.998zm-8.478-27.992s3.901 4.872 5.493 5.51c1.593.6 5.175 1.558 5.175 1.558s1.075 7.188.995 8.745c0 0 6.807-1.198 4.14-12.099-.995-4.153-1.433-6.828-5.692-8.625-4.18-1.837-8.718.879-10.111 4.911z" fill="#027CCD"/><path d="M125.018 25.516c.04 0 .12-.04.12-.12-.04-5.95-5.533-8.505-5.573-8.545-.12-.04-.199.16-.08.2.04.04 5.414 2.555 5.454 8.345 0 .08.039.12.079.12z" fill="#111F59"/><path d="M107.741 42.646s-.557 2.236-.278 3.035c.278.758 3.742.399 3.463 2.315-.239 1.917-1.353.999-1.353.999s.238 1.477 1.194 1.078c.955-.4.915-1.398.915-1.398s.637.759.319 1.438c0 0 1.035-.48 1.114-1.917.04-1.437-.477-2.515-1.433-2.555-.955-.04-1.313-2.117-1.313-2.117l-2.628-.878z" fill="#027CCD"/><path d="M108.537 42.406c2.03-.28 5.016 1.118 4.14 3.035l.756.32c.876-2.716-2.508-4.153-4.936-3.554l.04.2z" fill="#027CCD"/><path d="M106.707 42.286c-.04.64.438 1.158 1.035 1.158s1.115-.479 1.115-1.118c.039-.638-.438-1.157-1.035-1.157-.558 0-1.075.519-1.115 1.117z" fill="#EA084D"/><path d="M105.075 12.139s-2.746.918-3.025 3.075c-.279 2.116.239 3.194.12 4.232-.12 1.038 0 2.955 1.234 5.87 1.234 2.955 5.413 1.278 7.802-.839 2.707-2.396 2.946-3.114 2.946-6.948 0-3.833-4.658-7.027-9.077-5.39z" fill="#FD9B9B"/><path d="M104.955 22.082c.04-.32-.398.04-1.154-.999.279-.479.478-1.038.478-1.557-.279 1.038-.797 1.438-.876 1.518.04.04.597.998 1.353 1.117.12.08.199.04.199-.08z" fill="#132759"/><path d="M106.691 19.68a.44.44 0 00-.538-.692.44.44 0 00.538.693zm-3.776-.116a.44.44 0 00.076-.616.437.437 0 00-.614-.077.44.44 0 00.538.693z" fill="#2846A6"/><path d="M105.073 18.568a4.12 4.12 0 011.553.16c.279.08.478.199.716.319.239.12.438.24.677.4-.278 0-.517-.08-.756-.16s-.478-.2-.717-.28c-.477-.16-.955-.28-1.473-.44zm-3.422-.04c.398 0 .756.04 1.154.2.199.08.359.16.558.279.159.12.358.2.517.32-.199 0-.398-.08-.597-.16-.199-.08-.358-.16-.518-.24a9.15 9.15 0 00-1.114-.4zm3.422-1.318l.2.559s1.393-.08 1.99.48c0 0-1.035-1.398-2.19-1.039zm-3.064-.2l.079.52s1.394-.08 1.991.479c0 0-.876-1.318-2.07-.999z" fill="#0F1D5B"/><path d="M103.84 23.599s1.553-.16 2.866-.679c0 0-1.194 1.917-1.95 1.837-.717-.08-.916-1.158-.916-1.158z" fill="#fff"/><path d="M102.447 10.142s-2.189.36-1.911 2.476c.279 2.116 5.533 4.672 9.116 4.233 1.354-.16 1.314.639 1.831 1.158.876.878 1.592 1.956.757 3.593-1.314 2.636-2.429 1.238-2.429 1.238s.995 1.597 4.18.759c3.185-.839 3.702-5.47 1.433-8.226-2.269-2.715-4.657-4.033-6.568-4.712-4.22-1.477-6.409-.519-6.409-.519z" fill="#066DB7"/><path d="M112.678 17.41c-.358 0-1.991 1.078-1.592 2.196.398 1.158.796 1.238 1.831.719 1.035-.48.676-2.915-.239-2.915z" fill="#FD9B9B"/><path d="M111.563 18.887s.796-.958 1.194-.479c.399.48.239 1.318-.318 1.557-.557.28-1.393-.519-.876-1.078z" fill="#FD7B77"/><path d="M104.796 31.705s-2.827-1.198-3.862.838c-1.034 2.037 1.752 4.552 2.906 4.912 0 0-1.353.798-.199 2.555 1.155 1.797 4.101 2.596 4.101 2.596s3.662-4.512 2.069-5.75c-1.592-1.198-2.069-.799-2.069-.799s2.587-1.757.915-3.434c-1.672-1.677-3.861-.918-3.861-.918z" fill="#027CCD"/><path d="M107.662 22.122c.814 0 1.473-.412 1.473-.919 0-.507-.659-.918-1.473-.918-.813 0-1.473.41-1.473.918 0 .507.66.919 1.473.919zm-4.378-.679c0-.44-.478-.799-1.115-.919.04.48.12 1.078.279 1.757.478-.12.836-.44.836-.838z" fill="#FD7B77"/><path d="M121.557 56.821c0 1.198-3.901 2.556-2.786 3.674 1.114 1.118 3.622-.24 3.025 1.278-.597 1.557-4.22 5.23-2.229 7.227 1.871 1.877 8.996 2.795 14.052 5.91-5.255-3.434-11.027-6.43-11.027-6.43h-.159c.04 0 .079-.04.079-.04l.996-22.64s-1.394 7.547-3.981 9.264c-2.548 1.677 2.03.52 2.03 1.757z" fill="#780337"/><path d="M134.455 75.469c.041.04.082.04.082.04-.041-.04-.041-.04-.082-.04z" fill="#B75A83"/><path d="M126.215 37.295c-3.782-3.514-6.489-3.314-6.489-3.314-1.393.28 2.031 10.422 4.379 12.937 1.314 1.438 5.693 13.297 7.285 17.13 1.234 2.915-12.937 8.226-13.057 8.226-.478.04-2.348.56-3.582.959-1.234.399-2.269 0-2.548.28-.239.239.398.678 1.194.478.756-.2 2.03-.519 1.951.2-.04.719-4.538 1.677-4.618 1.677-.438.08-1.234.36-.836.559.239.08 1.672-.16 2.548-.4 1.473-.399 1.95-.518 2.149-.439.04.16-.915.44-3.025 1.159-2.269.758-3.503 2.076 1.035.279 1.234-.52 2.309-.799 2.309-.679.04.36-.796.639-1.553.998-.756.32-2.348 1.118-1.512 1.278.199 0 1.154-.519 1.871-.878 1.512-.799 1.99-.999 2.189-.919.04.24-.239.64-1.354 1.198-.318.16-.835.4-1.154.6-.119.08-.04.239.12.199.597-.16 1.711-.6 2.866-1.358 1.234-.798 2.985-2.396 4.02-3.394.199-.04 16.48-3.434 16.48-7.387.04-4.313-6.289-25.316-10.668-29.389z" fill="#FD9B9B"/><path d="M27.931 31.785c-.04 0-.08 0-.12-.04-.079-.08-.119-.2-.04-.32 6.37-8.745 11.346-8.265 15.008-7.906.637.08 1.234.12 1.791.12.12 0 .24.12.24.24s-.12.239-.24.239c-.557 0-1.194-.04-1.83-.12-3.543-.32-8.4-.798-14.61 7.707-.04.04-.12.08-.199.08z" fill="#18287D"/></svg>