<svg width="195" height="163" fill="none" xmlns="http://www.w3.org/2000/svg"><path d="M194.522 156.903c.018-3.286-38.356-6.163-85.712-6.426-47.355-.263-85.759 2.187-85.777 5.473-.018 3.286 38.356 6.163 85.712 6.426 47.355.263 85.759-2.187 85.777-5.473z" fill="#ECECEC"/><path d="M61.582 51.449c3.547-1.32 12.247-5.183 17.589-12.793 7.796-11.099 8.341-15.822 8.341-15.822s-.66-1.824-.66-2.872c0-1.034-.517-2.384.13-2.384.645 0 .731 1.307.731 1.752 0 .158.101.244.216.287.316.115.675-.086.76-.416.087-.33.173-.905.173-1.895 0-2.082.158-3.934.56-3.547.402.402.216 4.035.216 4.782 0 .746.674-2.987 1.019-4.523.344-1.537.904-.718.66.129s-.918 4.551-.646 4.551c.273 0 1.206-4.206 1.867-4.206.675 0 .057.703-.1 1.364-.159.66-1.25 2.67-.82 3.1 0 0 1.839-2.512 1.91-2.124.03.2-1.407 3.202-2.139 4.393-1.708 2.815-7.265 20.116-10.64 23.461-3.287 3.26-9.346 11.458-9.992 15.22-3.676-2.154-7.352-4.767-9.175-8.457z" fill="#FD7B77"/><path d="M86.292 23.566s-5.298 12.707-9.404 15.363c-4.107 2.642-11.257 10.754-16.024 10.94 0 0 8.127 10.626 9.893 10.037 1.766-.589 12.147-15.736 14.2-17.79 2.053-2.053 5.442-16.827 5.442-16.827l-4.107-1.723z" fill="#BFBFBF"/><path d="M43.462 144.029s-3.044 3.116-3.375 5.169c-.33 2.053-.46 4.968-.46 4.968h8.932s-1.063-3.446-1.063-5.729c0-2.297-4.035-4.408-4.035-4.408z" fill="#1F0140"/><path d="M95.753 146.671s-.99 2.972-.99 3.905v3.174l14.889.33s.201-2.455-1.321-3.173c-1.522-.733-5.887-1.594-7.351-3.575-1.45-1.982-5.227-.661-5.227-.661z" fill="#011C2D"/><path d="M77.288 85.118l22.901 18.005.79 44.209h-6.088l-3.173-32.306-30.123-22.6 15.693-7.308z" fill="#066EB9"/><path d="M73.715 89.225s1.852 8.213 1.852 9.921c0 1.723-5.887 28.917-7.682 30.712-1.78 1.78-19.326 18.924-19.326 18.924l-7.681-2.642s16.54-19.857 17.344-22.772c.79-2.915 2.255-27.668 2.255-27.668l12.577-6.49h.66v.015z" fill="#027CCD"/><path d="M39.627 154.152h9.993c.531 0-.158-3.159-.517-3.446-.732-.589-6.95-2.168-8.902 1.12-.115.186-.804 2.326-.574 2.326z" fill="#011C2D"/><path d="M47.367 54.278s-2.785 5.8-2.785 7.394c0 1.594 16.023 31.918 14.3 36.814 0 0 17.216-5.959 21.05-11.645 0 0-9.003-35.076-16.024-36.928-7.007-1.867-14.818 2.642-16.54 4.365z" fill="#BFBFBF"/><path d="M79.93 86.841c-2.21-7.394-10.007-34.976-16.023-36.928 6.749 1.694 14.387 29.706 16.024 36.928z" fill="#FFF7CF"/><path d="M49.893 55.47s2.312.86 4.767 0c2.455-.862 3.56-2.355 3.575-4.107.015-1.752-1.981-3.374-4.164-3.374-2.182 0-5.886 2.254-5.886 4.235-.015 1.982 1.708 3.245 1.708 3.245z" fill="#753A00"/><path d="M59.57 54.823s1.408-4.781-3.015-7.078c-3.431-1.78-12.089 2.297-11.3 6.619.518 2.785 4.911 3 7.898 3.632 3.761.79 2.742-1.65 2.11-2.01-1.766-1.02-5.542-1.795-5.542-3.388 0-2.815 4.092-4.681 5.155-3.618 1.062 1.062 3.589 6.949 4.695 5.843z" fill="#027CCD"/><path d="M42.787 40.365c-.804-.158-1.766.043-2.613.833l.301.287c.675-.847 1.551-1.163 2.312-1.12zm-1.766 3.187c-.114-.603-.043-1.306.273-1.866.316-.546.66-.718 1.034-.92.143-.057.301-.1.445-.157-.043.014-.603.143-.89.344-.847.489-1.206 1.594-1.063 2.628l.201-.029z" fill="#1B2B80"/><path d="M56.111 50.042c-1.177-1.824-1.55-3.389-1.55-3.389l-5.744-.646s.46 1.321 1.12 3.116c.761 2.053 1.81 4.724 2.785 6.791 3.231.417 4.897-.53 5.744-1.436-.072-.244-1.666-3.36-2.355-4.436z" fill="#FD9B9B"/><path d="M50.125 49.626c1.967.258 4.38.244 5.858.2-1.077-1.737-1.436-3.187-1.436-3.187l-5.743-.646s.46 1.321 1.12 3.116c.072.172.144.344.201.517z" fill="#FD7B77"/><path d="M48.947 34.377s.632-.732 1.852.015c1.22.746 3.676 4.063 4.796 7.696 1.12 3.646 1.32 5.14-.058 5.829-1.378.703-4.22 1.364-8.385-2.211-4.163-3.575-6.16-9.074 1.795-11.329z" fill="#FD9B9B"/><path d="M50.57 37.02c.315-.159 3.373-1.178 2.325-4.437-1.048-3.26-5.757-2.915-8.184 2.47-.143.33-2.613-1.049-3.345 1.464-.733 2.498.861 3 .933 4.15.072 1.148-1.062 3.43 2.37 5.67 2.181 1.422 4.364.79 4.364.79s-.861-.919-1.565-2.326c-.718-1.421.919-.818.919-.818s-.546.144-1.25-1.264c-.76-1.507-1.952-2.426-2.153-2.814-.201-.387-.833-1.306 1.02-1.407 1.837-.129 4.565-1.479 4.565-1.479z" fill="#011C2D"/><path d="M53.04 43.423c-.115.072-.23-.1-.115-.172l1.092-.704-1.896-3.044c.589.833 1.695 2.398 2.183 3.102a45.64 45.64 0 01-1.264.818zm-4.58-2.125c.158-1.895 2.024-1.694 2.039-1.68.129.014.114.23-.015.201-.072-.014-1.694-.187-1.823 1.508 0 .057-.058.1-.115.086-.057 0-.1-.058-.086-.115zm4.551-4.006c.044-.029.115 0 .144.043.029.058.014.115-.043.144-.76.387-.503 1.263-.488 1.306.043.13-.158.187-.187.058-.014-.015-.33-1.092.575-1.55z" fill="#172866"/><path d="M52.811 45.103c.675.258 1.694-.302 2.24-.718.129-.1.158.043.158.201-.158 3.417-2.8 1.091-2.657.632a.217.217 0 01.259-.115z" fill="#fff"/><path d="M49.147 44.543s-.99-2.168-2.756-1.81c-1.767.36-.618 2.126.703 2.6 1.335.502 2.053-.79 2.053-.79z" fill="#FD9B9B"/><path d="M46.72 43.38c.56-.517 1.321.301 1.408.388.258.273.358.574-.144.962-.503.387-1.824-.833-1.264-1.35z" fill="#FD7B77"/><path d="M50.782 41.554c.176-.09.206-.386.066-.662-.14-.275-.396-.426-.573-.337-.177.09-.207.386-.067.662.14.276.397.427.574.337zm2.921-1.759c.127-.065.131-.312.01-.552-.122-.24-.325-.383-.452-.319-.127.065-.131.312-.01.553.123.24.325.383.452.318z" fill="#00147D"/><path d="M45.257 54.364c.517 2.785 4.91 3 7.897 3.632 3.762.79 2.742-1.651 2.11-2.01-1.579-.904-4.738-1.622-5.413-2.9-1.493-.015-2.828-.503-4.135-1.12-.416.775-.617 1.58-.46 2.398z" fill="#027CCD"/><path d="M53.9 67.114s11.5-4.681 13.525-7.61c0 0 3.173 9.074 3.173 9.462 0 0-8.156 5.398-11.86 6.346L53.9 67.114z" fill="#fff"/><path d="M63.921 90.014c-.029 0-.072 0-.1-.028-.13-.058-.201-.216-.144-.345 1.852-4.264-.359-8.256-.388-8.299a.26.26 0 01.101-.359.26.26 0 01.359.1c.1.173 2.355 4.265.416 8.773a.265.265 0 01-.244.159zm11.315-4.264c-3.217 0-4.825-7.02-4.897-7.322a.265.265 0 11.517-.115c.015.072 1.58 6.906 4.38 6.906.143 0 .258.115.258.258.014.144-.115.273-.258.273z" fill="#027CCD"/><path d="M49.736 48.549c-1.68 1.005-3.69 2.541-4.164 4.436-1.063 3.79 4.724 4.15 7.581 4.997-2.714-.345-6.806-.546-7.911-2.872-1.264-2.728 1.637-5.398 4.494-6.561z" fill="#066EB9"/><path d="M53.355 64.745c-2.082-1.422 2.354-2.37 2.354-5.385 0-.832-.158-2.541-.861-2.096-.287.187-.574-.244-.302-.445a.887.887 0 01.89-.058c.532.288.79 1.135.79 2.6 0 1.765-1.191 2.828-2.067 3.603-.847.761-1.063.962-.517 1.335.301.216.014.646-.287.445zm9.706-3.633c-2.081 0-3.1-1.407-3.1-3.618 0-2.728-.46-3.001-.503-3.016-.13-.043-.288.302-.532.072-.301-.301.288-.732.733-.56.358.144.847.66.847 3.518 0 2.527 1.421 3.446 3.56 2.958.33-.1.489.416.144.502-.072.015-.546.144-1.149.144z" fill="#fff"/><path d="M13.41 53.632c-1.895-1.207-3.287-2.298-3.876-3.044-.388-.474-1.149-5.399-2.541-4.868-.216.086-.345.33-.23.632.072.172.215.33.43.79.36.746.374 1.392.173 1.378-.646-.072-4.164-5.111-4.896-4.767-.618.287 1.364 2.326 1.895 2.886.933 1.005 1.32 1.867 1.063 1.608-.245-.273-2.082-2.254-2.872-2.814C1.78 44.86.689 43.74.186 44.198c-.487.46.59.92.59.92 1.191.875 3.489 3.43 4.278 4.278-1.55-.632-5.01-4.638-5.054-3.59-.029.66 3.374 3.805 4.221 4.365 1.077.718-.272.259-.962.015-.631-.23-2.311-1.537-2.067-.56.258.933 5.772 3.144 7.624 4.379.359.244 1.206.947 2.383 1.938.646-.818 1.393-1.58 2.212-2.311z" fill="#FD9B9B"/><path d="M46.276 56.69c-3.474 1.12-5.298 3.058-10.395 3.417-6.762.474-17.057-4.767-22.47-8.184-.819.732-2.987 3.963-3.633 4.767 3.891 3.273 12.808 8.772 17.862 10.639 4.838 1.78 14.645 3.374 20.819 3.044L46.276 56.69z" fill="#BFBFBF"/><path d="M98.002 154.091c-1.6-.481-3.047-2.47-3.31-4.11H92.74c.504.503-.285 3.651-.285 3.651l.395 1.748 5.152-1.289z" fill="#FC7575"/><path d="M99.141 154.506c-.373-.175-.745-.481-1.14-.415-5.328.808-5.569-.481-5.569-.481s-.504 1.399-.504 1.727c0 .327.329.306 1.907.306 1.579 0 4.078.459 5.416.065 1.359-.371 1.425-.503-.11-1.202z" fill="#653870"/><path d="M100.106 85.438l-3.771-1.902-6.556 15.584v26.141c-1.666 4.896 1.47 25.682 1.47 25.682l3.704-.306c-2.85-17.638 5.153-65.2 5.153-65.2z" fill="#022D48"/><path d="M77.786 155.774c0 .874-.33 1.879-.636 2.819-.285.831.175 1.333.175 1.88 0 1.136 2.916.787 2.916.787s.702-1.661.351-3.017c-.285-1.092-.548-2.294-.548-3.103 0-.153.044-.503.131-.984H77.83c.044.853-.043 1.421-.043 1.618z" fill="#FC7575"/><path d="M87.608 115.972l10.195-30.905-6.753-6.995s-7.652 6.098-9.055 10.557c-1.403 4.459-.965 22.71-.965 25.114 0 2.426-2.74 8.961-3.771 11.125-.899 1.902-.855 23.059-.636 29.288h3.574c.855-5.289 5.876-28.523 5.876-31.321 0-3.06 1.535-6.863 1.535-6.863z" fill="#022D48"/><path d="M83.75 85c-2.522 3.323-3.114 4.787-3.245 19.628-.022 3.038 0 9.377 0 9.377-.044 2.798-4.1 11.628-3.662 10.644-1.206 2.798-.482 25.245-.241 29.485 0-2.579.175-27.037 1.052-29.113.022-.044 3.465-5.355 3.815-12.874-.328-22.6.198-23.496 2.632-26.862 1.973-2.688 4.406-5.027 6.906-7.235-2.434 1.902-5.35 4.568-7.257 6.95z" fill="#FFF7CF"/><path d="M80.613 158.243c0 .022-.153 2.667-1.622 2.186-.9-.306-1.513-1.202-1.82-1.836-.285.831-.527 1.618-.527 2.142 0 1.137 4.451 1.486 4.451 1.486s-.131-2.644-.482-3.978z" fill="#653870"/><path d="M105.455 81.329l1.425 17.201 9.976 55.736-1.447 5.092 3.486 2.492v-8.218l1.228-.569s-2.74-42.796-2.74-44.085c0-1.268.504-17.879.504-17.879l-2.872-12.021-9.56 2.25z" fill="#446393"/><path d="M123.675 77.416l3.398 5.268 13.375 70.205-1.184.087.307 1.18 7.323 4.219s-5.394.131-8.112.131c-2.719 0-3.815-.525-3.815-.525l1.096-4.415-21.926-65.964-.811-8.197 10.349-1.989z" fill="#446393"/><path d="M93.572 28.195s-3.815-.197-5.13 3.344c-1.316 3.54-1.162 10.906.636 12.983 1.797 2.076 1.49 7.41 3.07 8.983 1.578 1.574 5.59 2.273 5.59-1.42 0 0-1.951.458-2.456-1.859 0 0 2.807 1.793 4.188-.94 1.381-2.732-1.579-2.994-1.579-2.994s1.426 1.88-.306 1.465c-1.732-.416-2.741-1.968-2.741-3.957 0-1.988 2.938-.72 2.63-4.37-.284-3.63-2.608-11.366-3.902-11.235z" fill="#0E1B29"/><path d="M103.943 47.735L99.47 63.559l-8.529 6.514.307 2.207s7.17 1.967 11.117-2.054c2.631-2.689 3.288-10.076 3.288-12.852 0-4.7-1.71-9.64-1.71-9.64z" fill="#011C2D"/><path d="M103.768 47.735c-2.281 8.874.898 28.873 1.403 38.38l23.416-.742-3.048-12.7-2.039-25.769s-.548-1.617-6.292-3.213c-3.311-.918-6.008-1.245-8.113-.48-3.552 1.289-4.889 2.84-5.327 4.524z" fill="#011C2D"/><path d="M85.831 49.265c.614 5.639 5.35 18.316 5.35 21.879 0 3.562-4.714 10.6-4.714 10.6s6.008 5.465 15.436 6.098l-1.404-21.114s.461-7.06.461-9.857c0-2.798-4.232-8.765-5.81-10.36-1.6-1.596-6.118-2.929-7.915-1.137-1.798 1.77-1.513 2.798-1.404 3.89z" fill="#E9084E"/><path d="M88.55 44.98s-.964-.043-.964 2.842c0 2.885 7.235 19.256 12.892 18.906 5.657-.35 11.862-14.578 11.862-14.578l-1.908-.94s-7.279 11.693-10.458 9.508C96.794 58.51 93.747 44.98 88.55 44.98z" fill="#FD9B9B"/><path d="M110.235 52.587l.68-4.328 3.223-1.945 2.302 2.71-4.078 3.126-2.127 1.792v-1.355z" fill="#FC7575"/><path d="M91.797 68.302s-1.008-.284-1.25.59c-.57 2.099-.614 2.601.658 3.104 1.097.437 2.149.35 2.149.11 0-.285-1.162-.722-1.6-.875-.417-.153 2.565.7 2.433-.11-.11-.83-2.083-.83-2.324-.895-.241-.088 1.623.502 2.302-.153.351-.35-2.302-.678-2.412-.875-.11-.196 2.763.525 2.39-.175-.373-.699-2.346-.72-2.346-.72zm26.09-16.48c-.263-.263-2.894-5.858-2.894-5.858l-2.346-.218s-3.376 1.967-2.85 2.491c.526.525 2.938-1.53 2.938-1.53s-3.026 2.208-2.5 2.71c.505.503 3.114-1.573 3.114-1.573s-.088 1.945.197 3.388c.285 1.442 3.991 4.371 3.991 4.371l1.447-1.486-1.097-2.295z" fill="#FD7B77"/><path d="M118.107 51.232l-1.996 4.787s11.665 15.868 14.8 14.6c3.157-1.268.526-9.573-1.14-14.098-1.579-4.284-4.232-8.94-6.095-10.207-1.864-1.268-2.259-.787-2.5-.284-.285.59.197 7.147 2.039 10.36 1.82 3.213 1.842 2.95 1.842 2.95l-6.95-8.108z" fill="#011C2D"/><path d="M95.83 38.817s-2.543 6.972-2.017 7.475c.526.525-3.728-.153-3.99-2.186l2.433-7.431 3.574 2.142z" fill="#FD9B9B"/><path d="M92.257 36.675l3.574 2.142s-.131.437-.373 1.071c-1.25-.35-3.245-1.05-3.661-1.77l.46-1.443z" fill="#FD7B77"/><path d="M93.133 30.62l5.394 2.973s1.118.022 1.118-1.224c0-1.245-1.382-2.47-2.763-3.169-1.403-.7-3.157-1.027-3.157-1.027l-.592 2.448z" fill="#0E1B29"/><path d="M95.084 29.288s2.083.35 2.653 1.333c.57.983.702 3.344 1.272 3.912.57.569 1.052.678 1.052.678s.154.262-.416.546c-.57.284-.132.59.22.59.35 0 .065.656-.22.743 0 0 .35.11.285.438-.066.328-.22.393-.22.393s-.021.437.154.83c.175.416-.263 1.618-2.982 1.072 0 0-4.056-.962-4.297-2.099-.241-1.136-2.04-5.289-.504-6.819 1.512-1.552 3.003-1.617 3.003-1.617z" fill="#FD9B9B"/><path d="M93.111 28.15s.724-.436 3.267.285 3.157 3.344 3.157 3.344-1.644-1.093-2.675-1.093c-1.03 0-3.354-.393-3.749-.765-.373-.393 0-1.77 0-1.77z" fill="#1B3753"/><path d="M93.484 28.041c.35 0 2.653 2.405 2.06 4.306-.613 1.902-2.06 1.05-2.981 1.552-.921.503.175 2.863.022 3.803-.176.962-2.741 6.383-2.741 6.383s-2.17-11.497-.855-13.64c1.293-2.098 4.495-2.404 4.495-2.404z" fill="#1B3753"/><path d="M95.963 35.844c.593 0 1.074-.234 1.074-.524 0-.29-.48-.525-1.074-.525-.593 0-1.074.235-1.074.525 0 .29.48.524 1.074.524z" fill="#FD7B77"/><path d="M99.186 34.336s-.548.569-1.908.11l1.908-.11zm-1.009-.918s-.527-.306-.943-.306c-.417 0-.79.175-.79.306 0 0 .46-.218.812-.153.35.066.526.328.657.328.132 0 .264-.175.264-.175z" fill="#1B3753"/><path d="M105.347 34.599l1.337 9.682c.066.525.395.984.855 1.246 1.097.59 3.815.11 4.934-1.705.877-1.399-2.785-9.988-2.785-9.988s-2.587.087-4.341.765z" fill="#FD9B9B"/><path d="M109.71 33.834s.132.371.373.983c.066.918.088 2.339-.088 3.41-.241 1.443-1.754 4.022-3.53 4.459l-1.118-8.087c1.754-.678 4.363-.765 4.363-.765z" fill="#FD7B77"/><path d="M107.802 22.184c1.074 1.093 2.039 2.688.943 3.738 1.271-.962.438-2.864-.526-4.131l-.417.393z" fill="#132759"/><path d="M102.737 27.954s-1.973.569-1.776 3.148c.198 2.579 2.544 9.42 4.671 9.748 2.104.328 4.1-2.492 4.363-3.956.285-1.53 0-3.825 0-3.825s-1.382-9.18-7.258-5.115z" fill="#FD9B9B"/><path d="M112.56 36.238s-.394.634-1.03 0c0 0-1.513-1.486-.658-2.95.855-1.465 2.171-3.476 1.513-5.77-.658-2.296-3.486-1.815-3.486-1.815s-1.031-3.519-4.802-1.683c0 0-.877-.656-3.157-.175-2.28.481-1.535 1.64-2.894 1.64-1.36 0-1.71-1.006-1.228-1.509 0 0-2.105 1.4-2.105 3.279 0 1.88 3.53 1.399 3.53 1.399s-2.763.83-.417 1.683c2.346.852 3.399.655 4.517-.83 1.118-1.509 1.776-1.924 2.521-1.728.746.197.746 1.77 1.842 1.77 1.074 0 2.215 2.667 2.215 2.667s.767-.393 1.052 1.552c.285 1.967.197 3.191 1.425 3.191 1.206.022 1.162-.721 1.162-.721z" fill="#011C2D"/><path d="M109.119 29.878c.614-.175 2.171.043 1.25 2.207-.921 2.164-2.346.284-2.346-.612 0-.874.614-1.464 1.096-1.595z" fill="#FD9B9B"/><path d="M103.636 33.637c.329 1.158.505 2.295.943 3.344.263-.044.548-.066.833-.087-.438.218-.811.35-.964.437-.044-.066-.746-1.487-.812-3.694zm.417-.415c.066 0 .132-.066.132-.131 0-.022.066-.525.614-.853.482-.306 1.82-.175 2.302-.11a.119.119 0 00.154-.108c.021-.088-.044-.153-.11-.153s-1.82-.263-2.478.153c-.679.415-.745 1.049-.767 1.07.022.044.066.11.153.132z" fill="#132759"/><path d="M106.948 37.221s-1.908.984-3.114.897c0 0 .351.874 1.075 1.027.723.153 2.039-.481 2.039-1.924z" fill="#fff"/><path d="M110.127 30.97s.11 1.4-.57 1.509c-.68.087-1.009-.918-.636-1.508.373-.569 1.206-.394 1.206 0z" fill="#FD7B77"/><path d="M105.132 34.057c.21-.06.316-.326.239-.592-.078-.267-.31-.434-.52-.373-.209.06-.316.325-.238.592.077.267.31.434.519.373zm-2.734.654c.209-.06.316-.325.239-.592-.077-.267-.31-.434-.519-.373-.21.06-.317.325-.239.592.077.267.31.434.519.373zm.362-1.336c.066.043.066.13.022.196-.022.044-.065.044-.109.044-.022 0-.066 0-.088-.022-.175-.13-.68-.503-1.03-.503-.088 0-.176 0-.242.022a4.838 4.838 0 01-.065-.284c.109-.022.197-.022.307-.022.526 0 1.183.547 1.205.569z" fill="#132759"/><path d="M92.454 35.823s1.82.699.35 4.655c-1.797 4.83-6.577 6.492-4.253 8.83 2.324 2.317 2.017 12.13-6.336 9.858 0 0 4.516-.481 3.53-3.148-.987-2.666-4.78.197-4.78-2.841 0-3.038 1.776-1.596 2.456-5.049.68-3.453-1.272-1.88-.768-5.442.504-3.563 6.337-12.197 6.337-12.197l3.464 5.334z" fill="#1B3753"/><path d="M92.826 34.14s-.745-1.596-1.074-1.246c-.35.35-.504 2.71.702 2.929 1.205.218.372-1.683.372-1.683z" fill="#FC7575"/><path d="M92.783 34.336s-.372-.874-.592-.655c-.197.196.022 1.573.285 1.573.285 0 .373-.48.307-.918z" fill="#FD7B77"/><path d="M161.172 86.369l10.338 34.99-2.986 34.761s2.053 2.355 3.431 3.245c0 0-2.455 0-5.025.057-2.168.058-2.269-.488-2.269-.488l.804-3.776-.804-33.813-10.912-29.147 7.423-5.83z" fill="#E9084E"/><path d="M147.318 82.507l16.411 39.455v29.707h5.786l2.456-31.099-9.189-39.212-15.464 1.148z" fill="#011C2D"/><path d="M156.306 124.633l-2.542-35.522-11.271-2.082 5.988 37.604-3.03 30.999-1.062 4.307s1.651.215 2.254.215 5.829-.646 5.829-.646l-3.604-3.144 7.438-31.731z" fill="#E9084E"/><path d="M140.829 84.215l6.734 40.418-4.408 27.036h7.969l5.757-27.036 1.508-30.238L155 80.482l-14.171 3.733z" fill="#011C2D"/><path d="M163.784 85.65l-1.005-4.292-7.423.56-14.53 2.311.99 5.916c3.662-3.116 9.261-4.551 14.244-5.341 2.555-.417 5.484-.402 7.724.847z" fill="#E9084E"/><path d="M145.163 46.08c4.121-1.593 14.229-6.23 20.446-15.391 9.06-13.339 9.692-19.039 9.692-19.039s-.761-2.197-.761-3.446c0-1.25-.603-2.872.143-2.872.747 0 .847 1.566.847 2.111 0 .517.948.531 1.135-.158.387-1.45.057-7.38.861-6.547.459.474.258 4.853.258 5.743 0 .89.776-3.59 1.178-5.442.402-1.852 1.062-.861.775.144-.287 1.005-1.077 5.485-.761 5.485.316 0 1.393-5.069 2.168-5.069.776 0 .072.848-.129 1.652-.187.79-1.45 3.216-.948 3.733 0 0 2.14-3.03 2.211-2.556.044.23-1.636 3.848-2.483 5.298-1.996 3.388-8.443 24.193-12.363 28.214-3.819 3.934-10.869 13.783-11.615 18.306-4.265-2.57-8.543-5.729-10.654-10.166z" fill="#FD9B9B"/><path d="M145.164 46.08c2.111 4.437 6.39 7.596 10.668 10.166.56-3.36 4.609-9.692 8.228-14.33-1.278-2.038-2.269-4.22-2.944-5.9-5.815 5.7-12.721 8.815-15.952 10.065z" fill="#FD7B77"/><path d="M126.455 37.394c-5.657-4.724-10.108-16.296-10.999-23.447-.014-.158-.086-.703-.028-.847.445-1.235 2.268-4.063 1.507-4.939-.158-.172-.373-.201-.545-.072-.273.201-.201.474-.388 1.106-.187.632-.617 1.263-.747 1.091-.301-.359.173-4.997-.1-6.231-.144-.618-.632-.776-.732 1.163-.029.574-.029 1.191-.029 1.751 0 1.336-.201 2.197-.287 1.853-.259-1.034-.23-6.217-1.005-6.347-.388-.057.043 5.542.028 6.906-.66-1.464-.488-6.604-1.177-5.9-.431.444-.115 4.895.115 5.9.287 1.22-.359 0-.675-.631-.258-.517-.646-2.7-1.077-1.752-.373.847 1.982 6.074 2.455 8.127.417 1.823 1.465 15.865 4.423 21.91 2.182 4.465 9.691 10.094 14.142 13.942l4.939-7.208c-2.957-1.479-6.446-3.575-9.82-6.375z" fill="#FD9B9B"/><path d="M160.126 36.245s1.752 8.141 2.972 9.405c0 0-7.624 9.548-7.337 11.27.287 1.71 9.476 25.587 9.476 25.587s-20.345 6.03-26.404 3.015c0 0-3.302-30.41-4.954-32.12-1.651-1.708-6.791-4.421-6.791-4.421s3.834-7.624 3.834-8.974c0 0 7.911 4.092 9.935 4.94 7.352 3.057 18.178-8.013 19.269-8.702z" fill="#027CCD"/><path d="M165.25 82.507s-10.596-23.749-10.237-26.261c.359-2.513 8.083-10.596 8.083-10.596s-7.624 9.548-7.337 11.27c.302 1.71 9.491 25.587 9.491 25.587z" fill="#011C2D"/><path d="M148.422 155.445c-.431.675-.862 2.326 0 3.216.861.89 3.23 1.12 3.23 1.12l1.608-.1s-1.967-1.092-2.699-2.24c-.215-.33 0-.948 0-1.192.014-1.091-1.651-1.594-2.139-.804z" fill="#E6F7F1"/><path d="M144.804 156.249l-.761 5.054 4.394.617 5.944-.272.143-1.092-3.517-2.613s-1.048 1.192-3.202.575c-2.154-.618-3.001-2.269-3.001-2.269z" fill="#011C2D"/><path d="M145.45 155.158c-.259-.158-1.12-.201-1.12.488 0 .689 1.809 3.446 4.35 3.446 2.542 0 2.872-.804 2.456-1.149-.417-.344-2.456.144-3.073-.1-.603-.244-1.809-2.211-2.613-2.685zm2.972 5.872c-.847 0-3.23-1.263-4.322-1.823l-.071 2.096 4.393.617 6.332-.301-.244-1.077c-1.335.144-5.14.488-6.088.488z" fill="#027CCD"/><path d="M148.737 157.915l.417 2.311 4.106-.603-2.685-2.182-1.838.474z" fill="#fff"/><path d="M149.154 158.503a.232.232 0 01-.23-.201c-.014-.129.072-.258.201-.272l1.68-.288c.129-.028.244.072.273.201.014.13-.072.259-.201.273l-1.68.287h-.043zm.589 1.178a.23.23 0 01-.229-.201.243.243 0 01.186-.287l2.269-.446c.129-.028.244.058.273.201a.246.246 0 01-.187.288l-2.269.445h-.043z" fill="#027CCD"/><path d="M168.395 154.455c-.431.675-.876 2.34 0 3.245.876.904 3.259 1.134 3.259 1.134l1.623-.101s-1.982-1.105-2.714-2.254c-.215-.344 0-.947 0-1.206-.014-1.105-1.68-1.594-2.168-.818z" fill="#E6F7F1"/><path d="M164.735 155.273l-.776 5.097 4.423.632 5.987-.273.143-1.106-3.546-2.627s-1.048 1.206-3.231.589c-2.168-.632-3-2.312-3-2.312z" fill="#011C2D"/><path d="M165.394 154.167c-.272-.157-1.134-.201-1.134.489 0 .689 1.824 3.474 4.379 3.474 2.556 0 2.901-.818 2.484-1.163-.416-.344-2.469.144-3.101-.1-.617-.23-1.824-2.211-2.628-2.7zm3.002 5.93c-.862 0-3.245-1.278-4.351-1.837l-.172 2.527 4.523.215 6.375-.115-.245-1.263c-1.349.114-5.183.473-6.13.473z" fill="#027CCD"/><path d="M168.697 156.953l.431 2.326 4.135-.603-2.714-2.197-1.852.474z" fill="#fff"/><path d="M169.128 157.541a.232.232 0 01-.229-.201.266.266 0 01.201-.287l1.694-.287c.129-.029.244.072.273.201a.267.267 0 01-.201.287l-1.694.287h-.044zm.589 1.192a.232.232 0 01-.229-.201.244.244 0 01.186-.287l2.298-.445a.223.223 0 01.272.201.244.244 0 01-.186.287l-2.297.445c-.015-.014-.029 0-.044 0z" fill="#027CCD"/><path d="M142.435 40.869c-.158-.115-2.139-5.672-2.139-5.672s-1.307-4.164-.416-4.824c.89-.66 3.015-3 4.853-2.972 1.837.029 3.058.66 3.216.775.158.115 1.321 2.326 1.321 2.326s-.546-.746-.862 1.939c-.316 2.684-5.973 8.428-5.973 8.428z" fill="#381A3F"/><path d="M147.058 40.782c-.23.69 2.513 4.997 1.048 6.203-.474.388-6.892 3.704-6.949-.818-.043-4.523.431-9.807.431-9.807l5.47 4.422z" fill="#FD9B9B"/><path d="M141.372 39.59c.833 3.116 4.509 6.634 7.05 5.299-.388-1.666-1.493-3.647-1.35-4.106l-5.456-4.437c-.014.072-.129 1.32-.244 3.245z" fill="#FD7B77"/><path d="M141.444 32.21c-.704 1.781-.775 5.084.804 7.64 1.579 2.555 3.776 3.933 5.384 2.727 1.608-1.206 2.154-9.088 1.034-11.156-1.12-2.082-6.16-1.924-7.222.79z" fill="#FD9B9B"/><path d="M141.359 39.792s-.33-2.599-1.235-3.26c-.919-.66-1.321-1.062-1.479-1.98-.158-.92-3.216-1.652-2.699-3.13.517-1.48 2.929-2.097 4.192-4.653 1.25-2.57 2.599-3.963 5.428-2.9 2.843 1.062 3.216 2.943 3.216 2.943s1.263-.187 2.01 1.465c.747 1.65.187 2.555-.316 3.288 0 0 .129-2.14-.545-2.01-.69.129-.029 2.498-.029 2.498s-1.005-.933-2.082-2.37c-1.077-1.435-.818.202-.531 1.982.301 1.78-2.097.029-3.159-1.292-1.063-1.321-2.613-.187-3.202 1.608-.589 1.795 1.795 4.738.431 7.81z" fill="#446393"/><path d="M141.947 35.068s-.977-1.881-1.508-1.106c-.531.776-.129 3.202.976 3.26 1.092.071.532-2.154.532-2.154z" fill="#FC7575"/><path d="M141.373 35.183s.057-1.063-.488-.732c-.546.33-.029 2.081.473 2.053.503-.029.015-1.321.015-1.321z" fill="#FD7B77"/><path d="M147.073 34.896a7.3 7.3 0 01.388 1.536c.143 1.134-.029 1.622-.043 1.694-.13-.028-.446-.086-.876-.23a8.3 8.3 0 01.832.044l-.1.071c.057-1.019-.115-2.053-.201-3.115z" fill="#172866"/><path d="M145.707 35.125c.058.33-.086.618-.301.66-.216.044-.445-.186-.488-.516-.058-.33.086-.617.301-.66.215-.044.445.186.488.516zm3.016-.345c.058.331-.086.618-.301.661-.216.043-.445-.186-.489-.517-.057-.33.087-.617.302-.66.215-.043.445.187.488.517z" fill="#2846A6"/><path d="M144.014 34.25s.474-.862 1.249-.991c.776-.144.532.545.345.589-.187.043-1.623.23-1.594.402zm3.691-1.307s.904.33 1.076.79c0 0-.962-.13-1.134-.373-.172-.259.058-.417.058-.417z" fill="#172866"/><path d="M147.517 39.49l-.272 1.594s-1.494-1.034-2.398-1.953l2.67.36z" fill="#fff"/></svg>