<svg width="271" height="49" fill="none" xmlns="http://www.w3.org/2000/svg"><mask id="a" maskUnits="userSpaceOnUse" x="0" y="2" width="94" height="40"><path fill="#C4C4C4" d="M0 2h94v40H0z"/></mask><g mask="url(#a)"><path fill-rule="evenodd" clip-rule="evenodd" d="M79.826 18.861c-1.859-3.6-6.368-4.931-9.886-2.918l-10.754 6.154 10.315 6.14a7.348 7.348 0 008.31-.537l.132-.105a7.016 7.016 0 001.883-8.734zm-24.692 5.555l12.274 7.306c4.083 2.43 9.246 2.097 12.958-.837l.132-.105a11.055 11.055 0 002.968-13.763c-2.93-5.674-10.035-7.771-15.58-4.598L55.162 19.7 30.114 4.793l-.978-.475C20.076-.086 9.156 3.063 3.918 11.59-6.609 28.732 12.89 48.592 30.404 38.57l24.73-14.153zm-4.025-2.396L28.17 8.367l-.822-.399c-7.163-3.481-15.795-.992-19.935 5.749-8.322 13.55 7.091 29.251 20.938 21.327l22.757-13.023z" fill="url(#paint0_linear)"/><path fill-rule="evenodd" clip-rule="evenodd" d="M14.174 25.139c1.859 3.6 6.368 4.931 9.886 2.918l10.754-6.154-10.315-6.14a7.349 7.349 0 00-8.31.537l-.132.105a7.016 7.016 0 00-1.883 8.734zm24.692-5.555l-12.274-7.306c-4.083-2.43-9.246-2.097-12.958.837l-.132.105a11.055 11.055 0 00-2.968 13.763c2.93 5.674 10.035 7.771 15.58 4.598L38.838 24.3l25.047 14.908.978.475c9.06 4.404 19.98 1.255 25.218-7.272C100.609 15.268 81.11-4.592 63.596 5.43l-24.73 14.153zm4.025 2.396L65.83 35.633l.822.399c7.163 3.482 15.795.992 19.935-5.749 8.322-13.55-7.091-29.251-20.938-21.327L42.891 21.98z" fill="url(#paint1_linear)"/><path transform="rotate(60 51.33 21.894)" fill="url(#paint2_linear)" d="M51.331 21.894h4.03v12h-4.03z"/></g><path d="M125.318 11.785l-.745-.745C121.808 8.594 120 6.946 120 4.925 120 3.276 121.276 2 122.925 2c.904 0 1.808.425 2.393 1.117A3.196 3.196 0 01127.711 2c1.648 0 2.925 1.276 2.925 2.925 0 2.02-1.808 3.67-4.574 6.115l-.744.745z" fill="url(#paint3_linear)"/><path d="M115.791 36.84c0 .211-.041.464-.122.757-.065.293-.236.57-.513.83-.26.26-.651.48-1.172.659-.504.195-1.188.293-2.05.293-.863 0-1.538-.106-2.027-.317-.488-.196-.854-.432-1.098-.709a2.045 2.045 0 01-.44-.854 4.492 4.492 0 01-.073-.708V5.297c0-.472-.114-.879-.342-1.22-.211-.359-.578-.538-1.099-.538-.276 0-.52.049-.732.147a2.807 2.807 0 00-.635.39L105 3.49c.374-.309.789-.61 1.245-.903.456-.31.952-.578 1.489-.806a11.72 11.72 0 011.758-.561 8.456 8.456 0 011.953-.22c1.058 0 1.88.146 2.466.44.586.276 1.017.626 1.294 1.05.277.406.44.846.488 1.318.065.455.098.862.098 1.22V36.84zm13.965-.049c0 .212-.041.472-.122.781-.065.293-.236.578-.513.855-.26.26-.643.48-1.147.659-.505.195-1.189.293-2.051.293-.863 0-1.538-.106-2.027-.317-.488-.196-.854-.432-1.098-.709-.244-.276-.399-.561-.464-.854a4.492 4.492 0 01-.073-.708V17.943c0-.472-.114-.879-.342-1.22-.212-.358-.578-.537-1.099-.537-.276 0-.512.048-.708.146a3.776 3.776 0 00-.634.415l-.513-.61c.374-.31.789-.61 1.245-.904a9.624 9.624 0 011.514-.805 10.827 10.827 0 011.733-.562 8.455 8.455 0 011.953-.22c1.058 0 1.88.147 2.466.44.586.277 1.017.627 1.294 1.05.277.407.439.846.488 1.318.065.472.098.887.098 1.245v19.092zm13.721-16.504a53.576 53.576 0 011.831-2.32 16.452 16.452 0 012.099-2.148 10.744 10.744 0 012.442-1.562c.879-.407 1.839-.61 2.88-.61.928 0 1.701.187 2.32.561.618.358 1.115.797 1.489 1.318.391.505.659 1.034.806 1.587.163.554.244 1.026.244 1.416 0 .716-.098 1.465-.293 2.246a8.082 8.082 0 01-.952 2.295c-.44.749-1.034 1.481-1.782 2.198-.749.7-1.693 1.342-2.832 1.928 1.529 3.24 3.019 6.03 4.467 8.374 1.449 2.328 2.84 4.24 4.175 5.738 1.351 1.513 2.645 2.628 3.882 3.344 1.237.716 2.417 1.075 3.54 1.075.195 0 .391-.025.586-.074.195-.048.374-.105.537-.17a5.43 5.43 0 00.562-.245l.463.855a20.88 20.88 0 01-1.342.683 8.724 8.724 0 01-1.563.586c-.586.163-1.261.293-2.026.39-.765.099-1.677.147-2.735.147-.96 0-1.912-.114-2.856-.341-.928-.228-1.864-.635-2.808-1.221-.944-.586-1.904-1.367-2.881-2.344-.96-.976-1.953-2.213-2.978-3.71-1.009-1.498-2.051-3.28-3.125-5.348-1.074-2.067-2.189-4.484-3.345-7.25 1.563-1.156 2.792-2.222 3.687-3.199.895-.992 1.57-1.888 2.026-2.685.456-.798.741-1.506.855-2.124a8.965 8.965 0 00.171-1.587 3.4 3.4 0 00-.025-.317 1.002 1.002 0 00-.171-.464 1.112 1.112 0 00-.39-.391c-.163-.114-.399-.17-.708-.17-.603 0-1.213.26-1.831.78-.619.505-1.213 1.14-1.783 1.905a18.129 18.129 0 00-1.513 2.441 27.02 27.02 0 00-1.123 2.368V36.84c0 .211-.041.464-.123.757-.065.293-.236.57-.512.83-.261.26-.651.48-1.172.659-.505.195-1.188.293-2.051.293-.862 0-1.538-.106-2.026-.317-.489-.196-.855-.432-1.099-.709a2.042 2.042 0 01-.439-.854 4.513 4.513 0 01-.074-.708V5.297c0-.472-.113-.879-.341-1.22-.212-.359-.578-.538-1.099-.538a1.72 1.72 0 00-.732.147 2.785 2.785 0 00-.635.39l-.488-.586c.374-.309.789-.61 1.245-.903.455-.31.952-.578 1.489-.806a11.647 11.647 0 011.758-.561 8.443 8.443 0 011.953-.22c1.058 0 1.88.146 2.466.44.586.276 1.017.626 1.294 1.05.276.406.439.846.488 1.318.065.455.098.862.098 1.22v15.26z" fill="#022D48"/><path d="M168.306 27.782c0 .521.073 1.09.219 1.71a10.988 10.988 0 001.758 3.613c.44.553.936 1.05 1.489 1.489.57.44 1.197.79 1.88 1.05.684.26 1.433.39 2.246.39a6.141 6.141 0 002.955-.732c.423-.228.83-.489 1.22-.782.391-.309.781-.634 1.172-.976l.61.586a16.677 16.677 0 01-1.44 1.66 12.176 12.176 0 01-2.124 1.709c-.83.52-1.798.96-2.905 1.318-1.107.342-2.368.513-3.784.513s-2.8-.252-4.151-.757a10.452 10.452 0 01-3.564-2.32c-1.042-1.025-1.88-2.302-2.515-3.832-.618-1.53-.928-3.32-.928-5.371 0-1.481.188-2.84.562-4.077a13.333 13.333 0 011.514-3.345 12.91 12.91 0 012.246-2.612 13.806 13.806 0 012.71-1.856 12.569 12.569 0 012.88-1.123c.993-.26 1.945-.39 2.857-.39 1.204 0 2.254.13 3.149.39s1.636.61 2.222 1.05c.602.44 1.05.952 1.343 1.538.293.57.439 1.172.439 1.807 0 .765-.22 1.456-.659 2.075-.439.602-1.025 1.131-1.758 1.587l-9.643 5.688zm4.907-4.956c.211-.13.382-.252.513-.366.146-.13.26-.277.341-.44a2.2 2.2 0 00.171-.634 5.24 5.24 0 00.074-.952c0-.407-.049-.855-.147-1.343a5.134 5.134 0 00-.439-1.416 3.512 3.512 0 00-.806-1.099 1.692 1.692 0 00-1.172-.44c-.586 0-1.09.18-1.514.538-.407.342-.748.79-1.025 1.343a9.368 9.368 0 00-.635 1.904 23.472 23.472 0 00-.488 4.2 69.206 69.206 0 00-.024 1.66l5.151-2.955zm22.925 3.516c0-.407-.131-.716-.391-.928-.26-.212-.594-.317-1.001-.317-.57 0-1.115.13-1.636.39a4.04 4.04 0 00-1.342 1.148c-.391.504-.7 1.131-.928 1.88-.228.732-.342 1.587-.342 2.563 0 .944.065 1.725.195 2.344.147.618.334 1.115.562 1.49.244.357.521.61.83.756.309.147.635.22.977.22a2.39 2.39 0 001.196-.318c.374-.228.7-.512.976-.854a4.21 4.21 0 00.66-1.148 3.53 3.53 0 00.244-1.27v-5.956zm-3.882-10.694a5.76 5.76 0 00-1.538.196c-.472.13-.879.293-1.221.488a2.79 2.79 0 00-.806.66c-.195.227-.293.447-.293.658 0 .245.123.424.367.538.26.097.545.22.854.366.309.13.586.325.83.586.261.244.391.626.391 1.147 0 .342-.073.66-.22.952a2.46 2.46 0 01-.561.757 2.659 2.659 0 01-.83.513c-.31.114-.635.17-.977.17-.912 0-1.652-.309-2.222-.927-.553-.618-.83-1.44-.83-2.466 0-.993.261-1.84.781-2.539a6.083 6.083 0 012.027-1.758c.846-.456 1.798-.79 2.856-1a15.576 15.576 0 016.812.073c1.155.276 2.173.716 3.052 1.318a6.67 6.67 0 012.124 2.295c.537.927.805 2.05.805 3.369v13.794c0 .146.008.31.025.488.016.18.057.342.122.489a.91.91 0 00.293.366c.13.097.317.146.561.146.293 0 .562-.106.806-.317a6.78 6.78 0 00.683-.684l.611.513c-.244.342-.537.716-.879 1.123a7.067 7.067 0 01-2.954 2.05c-.651.245-1.392.367-2.222.367-1.025 0-1.937-.301-2.734-.903-.798-.619-1.319-1.563-1.563-2.832a10.1 10.1 0 01-1.635 1.757 8.535 8.535 0 01-1.709 1.148 7.534 7.534 0 01-1.783.635c-.586.13-1.18.195-1.782.195a7.13 7.13 0 01-2.27-.366 5.624 5.624 0 01-1.978-1.148c-.57-.537-1.034-1.229-1.392-2.075-.341-.846-.512-1.88-.512-3.1 0-1.482.293-2.694.879-3.638a7.763 7.763 0 012.295-2.368 15.58 15.58 0 013.247-1.66c1.22-.456 2.465-.936 3.735-1.441.944-.374 1.628-.928 2.051-1.66.439-.749.659-1.514.659-2.295 0-1.204-.358-2.165-1.074-2.88-.7-.733-1.66-1.1-2.881-1.1zm31.543 11.182c0-1.416-.073-2.742-.22-3.98-.146-1.253-.382-2.343-.708-3.27-.325-.945-.74-1.685-1.245-2.223-.505-.553-1.115-.83-1.831-.83-.553 0-1.025.139-1.416.415a3.894 3.894 0 00-1.465 1.929c-.114.326-.171.545-.171.66v7.3c0 3.547.293 6.127.879 7.738.602 1.612 1.481 2.417 2.637 2.417 1.22 0 2.116-.822 2.685-2.465.57-1.644.855-4.208.855-7.69zM209.248 5.297c0-.472-.114-.879-.342-1.22-.211-.359-.578-.538-1.098-.538-.277 0-.521.049-.733.147a2.807 2.807 0 00-.635.39l-.488-.586c.374-.309.79-.61 1.245-.903.472-.31.977-.578 1.514-.806a10.819 10.819 0 011.733-.561 8.456 8.456 0 011.953-.22c.944 0 1.701.146 2.271.44.586.276 1.025.626 1.318 1.05.31.406.513.854.611 1.342.097.472.146.911.146 1.318v10.89c.195-.18.448-.4.757-.66.309-.277.7-.545 1.172-.806a7.736 7.736 0 011.684-.659c.668-.179 1.449-.268 2.344-.268 1.042 0 2.084.244 3.125.732 1.042.472 1.978 1.22 2.808 2.246.83 1.025 1.505 2.344 2.026 3.955.521 1.611.781 3.548.781 5.81 0 1.775-.244 3.451-.732 5.03-.472 1.579-1.18 2.962-2.124 4.15-.944 1.172-2.124 2.1-3.54 2.783-1.416.684-3.06 1.026-4.932 1.026-2.034 0-3.751-.326-5.151-.977-1.384-.667-2.498-1.554-3.345-2.66-.846-1.124-1.456-2.426-1.831-3.907a19.894 19.894 0 01-.537-4.688V5.297zm34.473 31.543c0 .211-.041.464-.122.757-.065.293-.236.57-.513.83-.26.26-.651.48-1.172.659-.504.195-1.188.293-2.051.293-.862 0-1.538-.106-2.026-.317-.488-.196-.855-.432-1.099-.709a2.042 2.042 0 01-.439-.854 4.492 4.492 0 01-.073-.708V5.297c0-.472-.114-.879-.342-1.22-.212-.359-.578-.538-1.099-.538a1.72 1.72 0 00-.732.147 2.785 2.785 0 00-.635.39l-.488-.586c.374-.309.789-.61 1.245-.903.456-.31.952-.578 1.489-.806a11.647 11.647 0 011.758-.561 8.443 8.443 0 011.953-.22c1.058 0 1.88.146 2.466.44.586.276 1.017.626 1.294 1.05.276.406.439.846.488 1.318.065.455.098.862.098 1.22V36.84zm12.475-9.058c0 .521.074 1.09.22 1.71a10.988 10.988 0 001.758 3.613c.439.553.936 1.05 1.489 1.489.57.44 1.196.79 1.88 1.05a6.26 6.26 0 002.246.39 6.141 6.141 0 002.954-.732 9.73 9.73 0 001.221-.782c.39-.309.781-.634 1.172-.976l.61.586a16.677 16.677 0 01-1.44 1.66 12.176 12.176 0 01-2.124 1.709c-.83.52-1.799.96-2.906 1.318-1.106.342-2.368.513-3.784.513a11.77 11.77 0 01-4.15-.757 10.456 10.456 0 01-3.565-2.32c-1.041-1.025-1.88-2.302-2.514-3.832-.619-1.53-.928-3.32-.928-5.371 0-1.481.187-2.84.561-4.077a13.369 13.369 0 011.514-3.345c.651-.993 1.4-1.864 2.246-2.612a13.836 13.836 0 012.71-1.856 12.576 12.576 0 012.881-1.123c.993-.26 1.945-.39 2.857-.39 1.204 0 2.254.13 3.149.39s1.636.61 2.222 1.05c.602.44 1.049.952 1.342 1.538.293.57.44 1.172.44 1.807 0 .765-.22 1.456-.659 2.075-.44.602-1.026 1.131-1.758 1.587l-9.644 5.688zm4.908-4.956c.211-.13.382-.252.512-.366.147-.13.261-.277.342-.44a2.28 2.28 0 00.171-.634 5.25 5.25 0 00.073-.952c0-.407-.049-.855-.146-1.343a5.136 5.136 0 00-.44-1.416 3.494 3.494 0 00-.805-1.099 1.694 1.694 0 00-1.172-.44c-.586 0-1.091.18-1.514.538-.407.342-.749.79-1.025 1.343a9.307 9.307 0 00-.635 1.904 23.495 23.495 0 00-.488 4.2 64.864 64.864 0 00-.025 1.66l5.152-2.955z" fill="#022D48"/><defs><linearGradient id="paint0_linear" x1="85" y1="21.5" x2="-1" y2="20.5" gradientUnits="userSpaceOnUse"><stop stop-color="#DF055A"/><stop offset="1" stop-color="#ED094A"/></linearGradient><linearGradient id="paint1_linear" x1="10" y1="23.5" x2="94.5" y2="23" gradientUnits="userSpaceOnUse"><stop stop-color="#0075BF"/><stop offset="1" stop-color="#098DED"/></linearGradient><linearGradient id="paint2_linear" x1="67.373" y1="-3.68" x2="19.579" y2="4.442" gradientUnits="userSpaceOnUse"><stop stop-color="#DF055A"/><stop offset="1" stop-color="#ED094A"/></linearGradient><linearGradient id="paint3_linear" x1="130.604" y1="3.69" x2="119.34" y2="5.369" gradientUnits="userSpaceOnUse"><stop stop-color="#DF055A"/><stop offset="1" stop-color="#ED094A"/></linearGradient></defs></svg>