<svg width="131" height="57" fill="none" xmlns="http://www.w3.org/2000/svg"><mask id="a" maskUnits="userSpaceOnUse" x="0" y="0" width="131" height="57"><path fill="#C4C4C4" d="M0 .914h131v55.745H0z"/></mask><g mask="url(#a)"><path fill-rule="evenodd" clip-rule="evenodd" d="M111.247 24.412c-2.59-5.018-8.875-6.873-13.778-4.067l-14.986 8.577 14.376 8.556c3.649 2.172 8.262 1.874 11.579-.748l.185-.146c3.68-2.91 4.778-8 2.624-12.172zm-34.411 7.742L93.94 42.335c5.69 3.387 12.886 2.922 18.059-1.166l.184-.146a15.407 15.407 0 004.136-19.181c-4.082-7.907-13.985-10.83-21.711-6.408l-17.735 10.15L41.968 4.806l-1.363-.663C27.978-1.993 12.76 2.395 5.461 14.28-9.21 38.168 17.963 65.846 42.372 51.877l34.464-19.723zm-5.61-3.339L39.26 9.788l-1.145-.557C28.133 4.38 16.102 7.85 10.332 17.243c-11.598 18.885 9.883 40.765 29.18 29.722l31.714-18.15z" fill="url(#paint0_linear)"/><path fill-rule="evenodd" clip-rule="evenodd" d="M19.753 33.161c2.59 5.018 8.875 6.873 13.778 4.067l14.986-8.577-14.376-8.556c-3.649-2.172-8.262-1.874-11.58.748l-.184.146a9.777 9.777 0 00-2.624 12.172zm34.411-7.742L37.06 15.238c-5.692-3.387-12.887-2.922-18.06 1.167l-.184.145a15.407 15.407 0 00-4.136 19.181c4.082 7.907 13.985 10.83 21.711 6.409l17.735-10.15 34.906 20.777 1.363.662c12.627 6.138 27.846 1.749 35.144-10.135C140.21 19.405 113.037-8.273 88.627 5.696L54.164 25.42zm5.61 3.34L91.74 47.784l1.145.557c9.983 4.852 22.013 1.383 27.783-8.012 11.598-18.884-9.883-40.765-29.18-29.722l-31.715 18.15z" fill="url(#paint1_linear)"/><path transform="rotate(60 71.536 28.64)" fill="url(#paint2_linear)" d="M71.536 28.64h5.617v16.723h-5.617z"/></g><defs><linearGradient id="paint0_linear" x1="118.458" y1="28.09" x2="-1.393" y2="26.696" gradientUnits="userSpaceOnUse"><stop stop-color="#DF055A"/><stop offset="1" stop-color="#ED094A"/></linearGradient><linearGradient id="paint1_linear" x1="13.936" y1="30.877" x2="131.696" y2="30.18" gradientUnits="userSpaceOnUse"><stop stop-color="#0075BF"/><stop offset="1" stop-color="#098DED"/></linearGradient><linearGradient id="paint2_linear" x1="93.893" y1="-7.001" x2="27.287" y2="4.319" gradientUnits="userSpaceOnUse"><stop stop-color="#DF055A"/><stop offset="1" stop-color="#ED094A"/></linearGradient></defs></svg>