<svg width="35" height="38" fill="none" xmlns="http://www.w3.org/2000/svg"><path d="M5.923.478a3.253 3.253 0 00-3.122-.15L19.64 17.202l5.505-5.53L5.924.478zM1.254 1.89c-.212.45-.326.95-.326 1.465V34.22a3.3 3.3 0 00.33 1.45l16.83-16.91L1.254 1.89zm18.387 18.425L2.83 37.205a3.3 3.3 0 001.394.297c.586 0 1.17-.14 1.698-.458l19.224-11.21-5.506-5.519zm12.823-4.381a.28.28 0 00-.02-.013l-5.337-3.108-5.916 5.944 5.92 5.932 5.353-3.12a3.272 3.272 0 001.585-2.818 3.27 3.27 0 00-1.585-2.817z" fill="#022D48"/></svg>